<svg aria-hidden="true" style="width:0;height:0;position:absolute;overflow:hidden" xmlns="http://www.w3.org/2000/svg"><defs><symbol id="icon-Instagram" viewBox="0 0 32 32"><path fill="#feda77" style="fill:var(--color1,#feda77)" d="M18.5 32.125c-2.461 0-4.922 0-7.473-.043a8.523 8.523 0 0 0-1.085-.081c-1.476-.01-2.924-.209-4.295-.764-2.126-.861-3.712-2.291-4.482-4.484 1.101.294 2.148.6 3.203.872.149.038.34-.087.555-.131 1.453 1.233 3.135 1.642 4.962 1.692.091.099.166.177.256.205 2.336.707 4.678 1.398 7.009 2.121.468.145.901.406 1.35.613z"/><path fill="#6542ca" style="fill:var(--color2,#6542ca)" d="M30.255 3.862c.248.431.497.861.705 1.335-1.096-.287-2.147-.634-3.209-.938-.447-.128-.921-.166-1.428-.252a44.42 44.42 0 0 1-2.333-.821c-.035-.076-.055-.127-.087-.137-2.42-.732-4.846-1.448-7.259-2.2-.568-.177-1.097-.479-1.643-.724.961 0 1.922 0 2.969.034.367.16.638.318.931.407 3.26.996 6.522 1.987 9.788 2.963.51.152 1.044.224 1.567.333z"/><path fill="#5c4bcd" style="fill:var(--color3,#5c4bcd)" d="M30.238 3.824c-.506-.07-1.04-.142-1.55-.294A1669.57 1669.57 0 0 1 18.9.567c-.292-.089-.563-.247-.872-.407 1.183-.034 2.394-.034 3.664-.034a.756.756 0 0 1 .279.18c.15.113.245.197.355.231 2.054.636 4.109 1.268 6.167 1.892.074.023.175-.042.264-.065.488.474.977.949 1.482 1.462zM21.426.31s.014-.008 0 0z"/><path fill="#6b3bc8" style="fill:var(--color4,#6b3bc8)" d="M14.941.125c.605.245 1.134.547 1.702.724 2.414.753 4.839 1.468 7.259 2.2.032.01.051.061.033.145a57.09 57.09 0 0 1-4.069-.258c-.379-.21-.736-.418-1.121-.536-2.059-.635-4.126-1.241-6.185-1.877-.208-.064-.374-.262-.56-.398h2.941z"/><path fill="#7233c5" style="fill:var(--color5,#7233c5)" d="M11.942.125c.244.136.41.334.618.398 2.058.636 4.126 1.242 6.185 1.877.385.119.742.327 1.063.545-1.094.046-2.138.04-3.192-.008-.514-.259-1.006-.519-1.527-.683-1.769-.555-3.55-1.069-5.321-1.618-.192-.059-.346-.24-.517-.364a9.34 9.34 0 0 0 1.101-.1c.527-.047 1.03-.047 1.591-.047z"/><path fill="#fcd372" style="fill:var(--color6,#fcd372)" d="M18.558 32.125c-.507-.207-.939-.468-1.408-.613-2.332-.722-4.673-1.413-7.009-2.121a.325.325 0 0 1-.202-.211c.675-.004 1.306.042 1.947.132.094.093.172.16.262.187 2.432.742 4.866 1.474 7.294 2.227.207.064.373.262.558.398h-1.442z"/><path fill="#fbcc6d" style="fill:var(--color7,#fbcc6d)" d="M20.057 32.125c-.242-.136-.408-.333-.615-.398-2.428-.753-4.863-1.486-7.294-2.227a.312.312 0 0 1-.204-.194c.67-.035 1.292-.02 1.922.048.136.132.254.244.393.287 2.142.667 4.289 1.319 6.429 1.993.208.066.379.249.567.377l-.004.085c-.379.028-.758.028-1.194.028z"/><path fill="#e31807" style="fill:var(--color8,#e31807)" d="M.125 15.625c0-.462 0-.923.047-1.437.967.194 1.888.441 2.817.744.003.519-.003.98-.057 1.441-.967-.25-1.887-.499-2.807-.748z"/><path fill="#db1617" style="fill:var(--color9,#db1617)" d="M2.98 14.875c-.92-.247-1.84-.493-2.808-.745a4.225 4.225 0 0 1-.002-1.079c.262-.053.488-.084.692-.031.71.186 1.412.401 2.126.657.003.226-.004.401-.028.587-.006.044.006.076.028.158.003.184-.003.318-.009.453z"/><path fill="#c21450" style="fill:var(--color10,#c21450)" d="M32.125 18.25c0 .338 0 .675-.052 1.069a23.501 23.501 0 0 1-2.812-.751c-.003-.477.004-.897.041-1.289.962.343 1.892.657 2.823.971z"/><path fill="#d01530" style="fill:var(--color11,#d01530)" d="M32.125 21.075a2.473 2.473 0 0 1-.187.626 2.422 2.422 0 0 1-.724-.072 27.647 27.647 0 0 1-1.843-.543c-.078-.096-.153-.153-.218-.26.045-.392.081-.734.15-1.046.921.301 1.809.573 2.729.845h.094v.45z"/><path fill="#9311b5" style="fill:var(--color12,#9311b5)" d="M31.979 10.501c.02.155.039.309.102.482.043.232.043.446.001.696a32.507 32.507 0 0 1-2.946-.858c-.003-.352.003-.648.06-.945.232.026.416.038.593.08.731.177 1.46.363 2.19.545z"/><path fill="#b6136a" style="fill:var(--color13,#b6136a)" d="M32.125 16.5c0 .296 0 .593-.049.944a24.552 24.552 0 0 1-2.816-.748c-.003-.352.003-.649.059-.945.968.25 1.887.5 2.806.75z"/><path fill="#f28846" style="fill:var(--color14,#f28846)" d="M.273 22.248a1.327 1.327 0 0 0-.107-.357 1.284 1.284 0 0 1 .009-.587c1.01.198 1.97.446 2.939.75.003.352-.003.648-.057.944-.96-.25-1.872-.5-2.784-.75z"/><path fill="#eb4f23" style="fill:var(--color15,#eb4f23)" d="M.125 18.875c0-.255 0-.511.053-.82.496.041.937.147 1.383.228.471.085.946.145 1.428.272.003.394-.002.732-.056 1.069-.968-.25-1.888-.499-2.808-.748z"/><path fill="#ee6933" style="fill:var(--color16,#ee6933)" d="M.125 20.375c0-.296 0-.593.049-.944.968.194 1.887.443 2.815.742.003.185-.003.32-.027.466-.043.052-.032.084.024.148.003.098-.002.155-.059.212-.393-.064-.735-.117-1.072-.195-.579-.135-1.154-.285-1.73-.429z"/><path fill="#9e109f" style="fill:var(--color17,#9e109f)" d="M32.125 12.375c0 .296 0 .593-.052.944-.617-.094-1.178-.268-1.75-.383-.341-.069-.701-.044-1.062-.117a6.362 6.362 0 0 1 .057-1.068c.926.208 1.804.415 2.714.623l.093.001z"/><path fill="#a41192" style="fill:var(--color18,#a41192)" d="M29.27 12.875c.352.017.712-.007 1.053.061.572.115 1.133.289 1.75.439.052.296.052.593.002.945a24.39 24.39 0 0 1-2.813-.747c-.003-.268.003-.482.009-.697z"/><path fill="#d01531" style="fill:var(--color19,#d01531)" d="M.125 12c0-.42 0-.841.034-1.288.194.16.318.442.52.517.617.23 1.261.394 1.903.552.113.028.264-.099.407-.099.003.436-.003.816-.035 1.195-.026 0-.078 0-.105-.036-.926-.304-1.825-.573-2.723-.841z"/><path fill="#e73012" style="fill:var(--color20,#e73012)" d="M.125 17c0-.255 0-.511.05-.82a24.48 24.48 0 0 1 2.815.748c.003.31-.003.565-.058.821-.969-.25-1.887-.499-2.806-.749z"/><path fill="#f1793c" style="fill:var(--color21,#f1793c)" d="M.125 20.43c.577.089 1.151.239 1.73.374.337.078.679.131 1.081.247.097.35.133.649.168.948-.96-.249-1.92-.497-2.93-.747-.05-.256-.05-.512-.05-.821z"/><path fill="#e93f1a" style="fill:var(--color22,#e93f1a)" d="M.125 17.056c.919.194 1.838.444 2.815.747.052.267.046.482.04.696-.473-.071-.949-.131-1.419-.216-.446-.081-.886-.187-1.383-.282-.053-.296-.053-.593-.053-.944z"/><path fill="#aa1186" style="fill:var(--color23,#aa1186)" d="M29.271 13.625c.918.25 1.836.5 2.804.75.05.296.05.593.005.94a26.08 26.08 0 0 1-2.818-.869c-.003-.31.003-.565.009-.82z"/><path fill="#d41626" style="fill:var(--color24,#d41626)" d="M.125 12.056c.899.213 1.797.481 2.734.81.058.094.086.117.131.183.003.227-.003.402-.01.577-.705-.204-1.408-.419-2.118-.605-.204-.053-.431-.022-.692-.025-.045-.292-.045-.588-.045-.94z"/><path fill="#9a10a8" style="fill:var(--color25,#9a10a8)" d="M32.001 12.374c-.878-.207-1.756-.414-2.693-.672a5.008 5.008 0 0 1-.163-.827c.965.279 1.93.559 2.937.856.042.074.042.129.01.252a3.106 3.106 0 0 0-.091.39z"/><path fill="#bc135d" style="fill:var(--color26,#bc135d)" d="M29.269 16.75c.919.249 1.838.499 2.807.749.049.215.049.429.049.697a26.97 26.97 0 0 1-2.832-.967c-.035-.212-.029-.346-.024-.479z"/><path fill="#b21274" style="fill:var(--color27,#b21274)" d="M32.125 16.448a33.044 33.044 0 0 1-2.814-.75 1.013 1.013 0 0 1 .01-.573c.969.25 1.887.5 2.805.75v.573z"/><path fill="#cb153b" style="fill:var(--color28,#cb153b)" d="M32 20.625c-.888-.272-1.776-.544-2.706-.898a2.193 2.193 0 0 1 .008-.697c.093.111.141.243.219.265.865.245 1.735.472 2.603.705 0 .056 0 .111-.033.234-.053.175-.072.283-.092.391zM2.98 11.625c-.134.056-.285.183-.398.155-.642-.157-1.286-.321-1.903-.552-.202-.075-.326-.358-.52-.575-.034-.029-.034-.092.017-.123.591.111 1.126.278 1.673.385.368.072.753.059 1.139.135.003.226-.002.399-.008.573z"/><path fill="#c61445" style="fill:var(--color29,#c61445)" d="M32.125 19.948a37.51 37.51 0 0 1-2.603-.653c-.078-.022-.126-.154-.228-.312-.035-.171-.029-.265-.024-.359.917.25 1.835.5 2.803.75.052.174.052.347.052.573z"/><path fill="#ae127c" style="fill:var(--color30,#ae127c)" d="M32.125 15.825c-.918-.2-1.836-.45-2.814-.752-.053-.226-.047-.4-.041-.574.921.289 1.842.577 2.809.871.046.138.046.271.046.455z"/><path fill="#c61445" style="fill:var(--color29,#c61445)" d="M2.979 11c-.377-.025-.762-.012-1.13-.084-.547-.107-1.082-.274-1.673-.416-.051 0-.051-.063-.051-.094.043-.167.085-.302.184-.483.939.205 1.822.456 2.699.753-.014.139-.021.231-.029.324z"/><path fill="#ed5c2b" style="fill:var(--color31,#ed5c2b)" d="M2.98 20.124c-.919-.249-1.838-.498-2.806-.748-.049-.134-.049-.268-.049-.451.92.199 1.84.448 2.817.74.051.1.046.156.021.224-.025.023-.041.041-.037.046.014.022.035.041.06.093.003.053-.002.075-.006.096z"/><path fill="#e52209" style="fill:var(--color32,#e52209)" d="M2.981 16.874c-.919-.249-1.837-.498-2.806-.748-.05-.134-.05-.268-.05-.451.92.199 1.839.448 2.816.748.051.184.045.317.039.451z"/><path fill="#fbcf70" style="fill:var(--color33,#fbcf70)" d="M4.008 26.362c.278.35.556.7.852 1.088-.153.087-.344.213-.493.174-1.055-.272-2.102-.578-3.203-.872a2.895 2.895 0 0 1-.35-.958c.778.129 1.495.318 2.219.472.317.068.65.065.975.095z"/><path fill="#f8b863" style="fill:var(--color34,#f8b863)" d="M15.002 29.27a51.993 51.993 0 0 1 2.825.035c.22.141.364.259.529.313.524.173 1.056.323 1.585.48 1.314.391 2.633.768 3.939 1.185.235.075.417.315.624.479-.55.077-1.1.154-1.733.191-.236-.137-.377-.273-.544-.324-1.833-.559-3.675-1.092-5.504-1.663-.589-.184-1.148-.461-1.721-.696z"/><path fill="#f6a054" style="fill:var(--color35,#f6a054)" d="M20.002 29.269a26.47 26.47 0 0 1 2.08-.088c1.157.432 2.256.804 3.347 1.197.533.192 1.051.422 1.576.635-.386.159-.773.319-1.216.428-.189-.138-.311-.262-.457-.307-1.253-.389-2.519-.741-3.764-1.152-.541-.179-1.045-.472-1.566-.713z"/><path fill="#f7ad5b" style="fill:var(--color36,#f7ad5b)" d="M19.944 29.261c.579.25 1.082.543 1.624.721 1.246.412 2.511.764 3.764 1.152.146.045.268.169.41.299a9.737 9.737 0 0 1-1.186.323c-.258-.158-.44-.398-.675-.473-1.306-.417-2.625-.794-3.939-1.185-.529-.158-1.061-.307-1.585-.48-.165-.054-.309-.173-.47-.305a26.34 26.34 0 0 1 2.059-.052z"/><path fill="#fac368" style="fill:var(--color37,#fac368)" d="M14.948 29.262c.627.242 1.186.52 1.775.704 1.829.571 3.671 1.104 5.504 1.663.167.051.308.188.489.316-.431.04-.89.048-1.406.061-.245-.124-.416-.307-.624-.372-2.14-.674-4.286-1.326-6.429-1.993-.139-.043-.257-.155-.393-.287.338-.068.683-.083 1.083-.091z"/><path fill="#f28846" style="fill:var(--color14,#f28846)" d="M23.628 29.022c.505-.092 1.009-.184 1.594-.243 1.051.307 2.025.571 2.989.867.201.062.364.243.545.369-.222.152-.444.305-.755.472a108.773 108.773 0 0 1-4.04-1.152c-.131-.04-.223-.205-.334-.313z"/><path fill="#e31807" style="fill:var(--color8,#e31807)" d="M28.994 24.237c.044-.337.087-.674.192-1.061.93.158 1.799.366 2.669.575-.036.381-.071.762-.169 1.196-.939-.201-1.815-.456-2.692-.71z"/><path fill="#ee6933" style="fill:var(--color16,#ee6933)" d="M26.492 28.112c.263-.205.526-.409.86-.584.286.097.504.155.716.231.689.248 1.376.503 2.064.755a4.662 4.662 0 0 1-.624.703c-.72-.2-1.367-.375-1.997-.6-.355-.127-.68-.335-1.019-.506z"/><path fill="#f4954e" style="fill:var(--color38,#f4954e)" d="M23.577 29.032c.161.096.253.262.384.302 1.314.401 2.634.781 4.002 1.169a8.63 8.63 0 0 1-.913.503c-.57-.206-1.088-.436-1.621-.628-1.091-.393-2.189-.765-3.293-1.189.458-.078.925-.112 1.442-.157z"/><path fill="#f1793c" style="fill:var(--color21,#f1793c)" d="M26.451 28.131c.379.153.704.361 1.059.488.63.225 1.277.4 1.96.617a5.543 5.543 0 0 1-.677.761c-.219-.109-.383-.29-.583-.352-.964-.296-1.938-.56-2.938-.872.36-.233.749-.428 1.179-.643z"/><path fill="#ec5728" style="fill:var(--color39,#ec5728)" d="M30.171 28.498c-.727-.235-1.414-.489-2.103-.738-.211-.076-.429-.135-.673-.238.197-.357.423-.676.689-.968.083.117.108.266.171.284.834.233 1.673.448 2.511.668-.005.021-.01.042-.05.109-.062.076-.08.11-.087.15-.14.238-.28.477-.459.733z"/><path fill="#ea481f" style="fill:var(--color40,#ea481f)" d="M30.802 27.487a56.033 56.033 0 0 1-2.548-.649c-.062-.017-.087-.167-.133-.304.097-.244.196-.44.354-.613.601.209 1.152.374 1.681.591.301.123.567.333.849.503a3.263 3.263 0 0 1-.203.471z"/><path fill="#e73012" style="fill:var(--color20,#e73012)" d="M28.61 25.621c.056-.236.112-.472.262-.727.943.233 1.791.485 2.64.738-.056.235-.111.471-.256.722-.941-.234-1.794-.483-2.647-.732z"/><path fill="#dd1612" style="fill:var(--color41,#dd1612)" d="M31.864 23.7c-.878-.158-1.748-.367-2.668-.575a2.067 2.067 0 0 1-.013-.814c.937.244 1.818.536 2.699.828-.003.17-.006.341-.018.561z"/><path fill="#d9151c" style="fill:var(--color42,#d9151c)" d="M31.927 23.112c-.926-.265-1.807-.557-2.734-.855a10.256 10.256 0 0 1-.057-1.324c.083 0 .157.058.235.203.052.24.078.511.153.525.812.155 1.532.793 2.432.482.005.314.011.629-.029.97z"/><path fill="#e52209" style="fill:var(--color32,#e52209)" d="M31.552 25.61c-.888-.231-1.737-.484-2.639-.738a1.339 1.339 0 0 1 .038-.611c.92.231 1.797.485 2.724.739.006.196-.039.393-.123.611z"/><path fill="#d51624" style="fill:var(--color43,#d51624)" d="M31.949 22.134c-.894.319-1.614-.318-2.425-.474-.075-.014-.1-.285-.148-.486.613.119 1.224.294 1.839.455.217.057.443.082.715.121.056.022.061.043.032.125-.035.11-.036.159-.037.208 0 0 .019.042.026.051z"/><path fill="#e83b18" style="fill:var(--color44,#e83b18)" d="M28.575 25.634c.887.236 1.74.485 2.641.741a1.727 1.727 0 0 1-.171.619c-.321-.149-.587-.358-.888-.482-.529-.217-1.08-.382-1.643-.61a.425.425 0 0 1 .062-.268z"/><path fill="#ea481f" style="fill:var(--color40,#ea481f)" d="M30.66 27.753c-.023-.028-.006-.063.046-.108.011.021-.002.059-.046.108z"/><path fill="#d9151c" style="fill:var(--color42,#d9151c)" d="M31.957 22.061c-.032-.027-.031-.077-.004-.154.03.025.034.079.004.154z"/><path fill="#5652d0" style="fill:var(--color45,#5652d0)" d="M28.739 2.323c-.071.062-.172.126-.246.104A1096.88 1096.88 0 0 1 22.326.535c-.11-.034-.205-.118-.316-.222 2.211-.114 4.307.299 6.186 1.551.186.124.351.279.543.458z"/><path fill="#6b3bc8" style="fill:var(--color4,#6b3bc8)" d="M27.86 5.38c-.485-.43-.97-.859-1.473-1.328.444.04.917.078 1.364.206 1.063.304 2.113.651 3.217.983.167.263.287.524.357.832a3.685 3.685 0 0 1-.897-.08c-.858-.196-1.712-.408-2.568-.614z"/><path fill="#8221be" style="fill:var(--color46,#8221be)" d="M29.119 8.886a12.037 12.037 0 0 1-.203-1.327c1.008.198 1.974.444 2.939.69.046.382.092.765.082 1.198-.69-.122-1.321-.309-1.96-.464-.278-.067-.572-.068-.858-.099z"/><path fill="#7233c5" style="fill:var(--color5,#7233c5)" d="M27.879 5.42c.837.166 1.692.378 2.549.574.278.064.565.087.902.126.054-.002.049.001.057.025.026.059.053.085.089.101.078.304.156.608.192.958-.515-.085-.983-.244-1.463-.341-.525-.107-1.062-.157-1.594-.232-.238-.39-.476-.781-.732-1.211z"/><path fill="#7a2ac1" style="fill:var(--color47,#7a2ac1)" d="M28.617 6.679c.526.027 1.063.077 1.588.184.48.097.948.256 1.472.387.099.299.147.599.187.949-.974-.195-1.939-.442-2.953-.692a4.677 4.677 0 0 1-.294-.829z"/><path fill="#8c17ba" style="fill:var(--color48,#8c17ba)" d="M29.122 8.941c.284-.024.578-.023.856.044.639.154 1.269.341 1.953.515.055.297.061.594.058.946-.739-.127-1.468-.313-2.199-.49-.177-.043-.361-.054-.593-.08-.058-.293-.065-.586-.075-.934z"/><path fill="#6b3bc8" style="fill:var(--color4,#6b3bc8)" d="M31.478 6.215c-.038.015-.065-.011-.09-.073.026-.004.059.019.09.073z"/><path fill="#f8b863" style="fill:var(--color34,#f8b863)" d="M3.478 24.999c.12.305.239.609.319.956-1.088-.246-2.137-.535-3.186-.823-.037-.175-.075-.35-.107-.616.282-.075.565-.093.832-.035.717.155 1.428.343 2.141.518z"/><path fill="#f6a054" style="fill:var(--color35,#f6a054)" d="M3.146 23.502c.033.217.066.433.039.699a2.57 2.57 0 0 1-.721-.03c-.691-.135-1.379-.281-2.068-.423-.047-.258-.094-.516-.083-.824.361.017.663.081.964.15l1.869.428z"/><path fill="#f7ad5b" style="fill:var(--color36,#f7ad5b)" d="M.388 23.799c.697.091 1.385.238 2.076.372.217.042.441.053.714.078.139.22.225.44.305.705-.719-.13-1.429-.318-2.146-.473-.267-.058-.55-.04-.834-.013a4.804 4.804 0 0 1-.115-.669z"/><path fill="#f4954e" style="fill:var(--color38,#f4954e)" d="M3.138 23.452c-.615-.093-1.237-.236-1.861-.378a27.72 27.72 0 0 0-.955-.2c-.056-.175-.062-.349-.058-.575.921.198 1.833.448 2.793.698.056.135.064.27.081.455z"/><path fill="#fac368" style="fill:var(--color37,#fac368)" d="M.616 25.178c1.044.242 2.093.53 3.19.82.096.095.144.19.197.324-.32.011-.653.013-.97-.055-.724-.154-1.44-.343-2.211-.519a2.088 2.088 0 0 1-.206-.57z"/><path fill="#7a2ac1" style="fill:var(--color47,#7a2ac1)" d="M16.616 2.937a43.969 43.969 0 0 1-3.34.02c-.386-.181-.674-.358-.987-.457-1.53-.483-3.071-.935-4.598-1.427-.217-.07-.381-.303-.57-.46C7.796.494 8.47.374 9.198.263c.224.133.379.314.57.373 1.771.548 3.552 1.063 5.321 1.618.522.164 1.013.424 1.527.683z"/><path fill="#8221be" style="fill:var(--color46,#8221be)" d="M7.069.618c.24.152.404.385.621.455 1.527.492 3.068.944 4.598 1.427.313.099.601.276.929.448-.975.079-1.977.126-3.046.121-.13-.098-.186-.164-.257-.186-1.337-.415-2.678-.815-4.01-1.244-.239-.077-.441-.266-.661-.404.591-.204 1.183-.409 1.825-.618z"/><path fill="#8c17ba" style="fill:var(--color48,#8c17ba)" d="M5.199 1.243c.265.131.467.32.706.397 1.332.429 2.673.829 4.01 1.244.07.022.127.088.2.177-.83.133-1.67.222-2.572.259-1.063-.387-2.067-.712-3.062-1.064-.18-.064-.321-.238-.48-.361.384-.215.769-.43 1.199-.652z"/><path fill="#9311b5" style="fill:var(--color12,#9311b5)" d="M3.958 1.899c.201.119.342.293.522.357.995.352 1.999.677 3.01 1.055a7.741 7.741 0 0 1-1.349.547c-1.154-.34-2.217-.665-3.28-.989.352-.322.704-.644 1.097-.969z"/><path fill="#9d0fa0" style="fill:var(--color49,#9d0fa0)" d="M5.506 4.264c-.307.321-.615.642-.981.94-.926-.547-1.855-.853-2.878-.827.214-.322.428-.645.732-.986a84.66 84.66 0 0 1 3.128.872z"/><path fill="#c21450" style="fill:var(--color10,#c21450)" d="M3.105 9.5c-.001.358-.001.716-.046 1.102-.927-.223-1.81-.474-2.74-.726-.047-.401-.046-.8.037-1.203.971.274 1.86.55 2.749.827z"/><path fill="#bb135f" style="fill:var(--color50,#bb135f)" d="M3.114 9.448A40.723 40.723 0 0 1 .4 8.644a1.946 1.946 0 0 1 .095-.871c.976.225 1.855.476 2.735.727-.036.299-.071.597-.116.948z"/><path fill="#a41192" style="fill:var(--color18,#a41192)" d="M1.627 4.416c1.043-.065 1.972.241 2.858.807a2.136 2.136 0 0 1-.482.64c-.969-.236-1.85-.487-2.732-.737l.356-.709z"/><path fill="#aa1186" style="fill:var(--color23,#aa1186)" d="M1.251 5.166c.902.209 1.783.46 2.714.712-.05.239-.148.476-.337.73-.941-.235-1.792-.487-2.643-.739.082-.221.164-.442.265-.703z"/><path fill="#9910ab" style="fill:var(--color51,#9910ab)" d="M5.549 4.257c-1.055-.29-2.068-.587-3.133-.885.089-.158.23-.315.408-.487 1.1.309 2.163.634 3.27.978-.138.142-.32.265-.545.395z"/><path fill="#b6136a" style="fill:var(--color13,#b6136a)" d="M3.239 8.452c-.889-.203-1.768-.453-2.701-.706a.89.89 0 0 1 .088-.599c.939.272 1.784.568 2.629.864a8.89 8.89 0 0 1-.016.441z"/><path fill="#b21274" style="fill:var(--color27,#b21274)" d="M3.296 7.986c-.886-.271-1.731-.567-2.629-.864-.015-.18.023-.358.131-.578.292.001.527.013.735.093.621.236 1.232.499 1.847.751-.015.191-.029.382-.084.599z"/><path fill="#ae127c" style="fill:var(--color30,#ae127c)" d="M3.421 7.364c-.655-.229-1.266-.491-1.887-.728-.209-.079-.443-.091-.714-.135a1.6 1.6 0 0 1 .128-.611c.89.231 1.741.483 2.643.738a2.275 2.275 0 0 1-.169.736z"/><path fill="#5652d0" style="fill:var(--color45,#5652d0)" d="M21.433.306c.007-.004-.007.004 0 0z"/><path fill="#e31807" style="fill:var(--color8,#e31807)" d="M2.961 14.264c.018-.011.034.049.026.079-.02-.002-.032-.035-.026-.079z"/><path fill="#ed5c2b" style="fill:var(--color31,#ed5c2b)" d="M2.962 20.64c.018-.011.031.048.023.077-.055.007-.066-.025-.023-.077z"/><path fill="#db1617" style="fill:var(--color9,#db1617)" d="M2.954 12.877c.026 0 .042.06.034.09-.043.016-.071-.007-.101-.065-.011-.025.041-.026.067-.025z"/><path fill="#eb4f23" style="fill:var(--color15,#eb4f23)" d="M2.963 19.889c.018-.011.031.049.023.078-.026.009-.046-.009-.061-.032-.004-.006.012-.023.037-.046z"/><path fill="#e83103" style="fill:var(--color52,#e83103)" d="M20.879 22.763a7.922 7.922 0 0 1-.969.559c-.089-.077-.119-.152-.167-.166-1.025-.297-2.055-.576-3.077-.882-2.011-.602-4.013-1.231-6.027-1.822-.536-.157-1.101-.217-1.652-.321a12.26 12.26 0 0 1-.481-1.113c.182-.098.371-.15.536-.107 1.036.267 2.067.554 3.139.85.472.342.883.704 1.343.988 1.15.71 2.412.829 3.745.645 1.131.355 2.241.667 3.343 1.007.116.036.18.237.269.362z"/><path fill="#aa1186" style="fill:var(--color23,#aa1186)" d="M11.994 9.112c.323-.169.646-.338 1.056-.498.256.088.418.19.595.243 1.584.477 3.168.959 4.759 1.413 1.49.425 2.989.818 4.483 1.225.204.345.408.691.567 1.082-.228.024-.418.027-.591-.025-1.118-.337-2.229-.695-3.348-1.026-.29-.086-.602-.099-.933-.149-.029-.003-.083-.023-.1-.047-.046-.052-.081-.069-.17-.078a31.004 31.004 0 0 1-2.071-.565 23.49 23.49 0 0 0-1.703-.686c-.846-.304-1.696-.593-2.544-.889z"/><path fill="#a41192" style="fill:var(--color18,#a41192)" d="M22.87 11.455a136.903 136.903 0 0 1-4.467-1.186c-1.591-.454-3.174-.936-4.759-1.413-.177-.053-.339-.155-.554-.261a5.745 5.745 0 0 1 1.276-.425c.405.104.734.143 1.046.237 1.647.499 3.288 1.019 4.936 1.514.463.139.944.218 1.416.324.363.391.726.781 1.105 1.211z"/><path fill="#eb4602" style="fill:var(--color53,#eb4602)" d="M10.361 21.881c-.322-.349-.644-.698-.931-1.088.117-.037.205-.05.282-.027 2.968.887 5.935 1.774 8.899 2.675.15.045.263.21.393.319a12.76 12.76 0 0 1-1.35.333c-1.275-.41-2.469-.797-3.67-1.16-1.204-.364-2.414-.703-3.622-1.053z"/><path fill="#ea3c03" style="fill:var(--color54,#ea3c03)" d="M19.05 23.755c-.176-.104-.29-.269-.439-.314-2.964-.901-5.931-1.788-8.899-2.675-.077-.023-.165-.01-.3-.012a3.24 3.24 0 0 1-.409-.584c.535.065 1.1.125 1.636.282 2.014.591 4.017 1.22 6.027 1.822 1.022.306 2.053.585 3.077.882.048.014.078.089.125.182-.252.169-.513.29-.819.417z"/><path fill="#ed5103" style="fill:var(--color55,#ed5103)" d="M10.377 21.92c1.191.311 2.402.651 3.605 1.014 1.201.363 2.395.75 3.619 1.164-1.049.307-2.123.258-3.199.029-1.55-.33-2.905-1.017-4.026-2.207z"/><path fill="#9e109f" style="fill:var(--color17,#9e109f)" d="M21.747 10.206c-.455-.068-.936-.146-1.399-.285-1.648-.495-3.289-1.015-4.936-1.514-.312-.094-.641-.133-.998-.229 1.538-.32 3.09-.286 4.606.279 1.022.381 1.941.926 2.726 1.75z"/><path fill="#e31807" style="fill:var(--color8,#e31807)" d="M8.146 18.124a22.44 22.44 0 0 1-.215-1.935c.162.112.244.364.386.406.838.242 1.69.435 2.552.684.223.555.433 1.071.59 1.589-.47-.082-.891-.158-1.306-.254-.671-.156-1.338-.326-2.007-.489zM22.765 20.88c-.352.409-.704.817-1.124 1.206a84.727 84.727 0 0 1-3.258-1.129c.509-.35.999-.661 1.513-.934.973.311 1.921.584 2.869.858z"/><path fill="#8b18ba" style="fill:var(--color56,#8b18ba)" d="M26.479 7.75c-.128.365-.256.729-.467 1.092-.206-.071-.323-.163-.455-.206-.927-.301-1.857-.592-2.787-.886.045-.319.09-.638.227-.98 1.222.311 2.352.645 3.482.979z"/><path fill="#8124be" style="fill:var(--color57,#8124be)" d="M26.488 7.697c-1.139-.281-2.269-.615-3.45-.951.201-.734 1.11-1.194 2.172-.987.783.152 1.295.924 1.278 1.938z"/><path fill="#db1617" style="fill:var(--color9,#db1617)" d="M10.855 17.239c-.848-.21-1.7-.403-2.538-.645-.143-.041-.224-.293-.377-.458a4.472 4.472 0 0 1 .103-1.046c.109.077.16.235.248.261.809.23 1.625.436 2.448.7.044.43.08.809.115 1.188zM22.803 20.862a30.958 30.958 0 0 1-2.891-.879 4.46 4.46 0 0 1 .75-.862c.578.165 1.104.331 1.632.492.357.109.806.047.963.523-.138.236-.277.472-.453.726z"/><path fill="#bb135f" style="fill:var(--color50,#bb135f)" d="M9.396 11.501c.257-.327.513-.654.835-.96.747.242 1.439.437 2.105.698.253.099.448.348.653.566a4.98 4.98 0 0 1-.767.558 620.68 620.68 0 0 0-2.826-.861zM24.227 14.876c.048.381.096.762.102 1.165-.14-.041-.23-.131-.338-.164-.863-.257-1.73-.504-2.617-.797-.102-.346-.184-.649-.209-.953 1.058.248 2.059.498 3.061.748z"/><path fill="#c21450" style="fill:var(--color10,#c21450)" d="M9.377 11.54c.946.242 1.873.523 2.827.861-.172.322-.37.588-.618.851-.94-.295-1.831-.589-2.722-.882.165-.263.33-.527.513-.83zM21.395 15.125c.866.25 1.732.496 2.596.753.108.032.198.123.329.215a2.892 2.892 0 0 1-.13.856c-.518-.055-1.025-.075-1.426-.29-.412-.221-1.017-.102-1.267-.705a13.422 13.422 0 0 1-.102-.83z"/><path fill="#d01530" style="fill:var(--color11,#d01530)" d="M23.98 18.25c-.086.32-.173.641-.351.981-.784-.159-1.487-.309-2.162-.539-.163-.056-.234-.38-.345-.629.084-.308.166-.569.254-.782.121.149.22.305.353.345.746.224 1.5.419 2.251.624z"/><path fill="#9311b5" style="fill:var(--color12,#9311b5)" d="M22.762 7.798c.938.246 1.868.537 2.795.838.132.043.249.135.415.224-.423.657-1.093.759-1.777.597-.817-.194-1.313-.759-1.433-1.659z"/><path fill="#b21274" style="fill:var(--color27,#b21274)" d="M23.631 12.986c.122.306.244.613.308.967-.842-.178-1.621-.419-2.411-.619-.29-.073-.604-.051-.945-.092a7.51 7.51 0 0 1-.673-.988c1.102.294 2.151.6 3.208.872.149.038.341-.089.513-.139zM10.87 9.862a2.13 2.13 0 0 1 .488-.322c.234.087.402.158.575.215 1.105.368 2.211.733 3.269 1.109-.386.095-.723.181-1.105.248-.847-.263-1.657-.488-2.45-.764-.282-.098-.52-.321-.777-.487z"/><path fill="#d41626" style="fill:var(--color24,#d41626)" d="M10.731 16c-.814-.213-1.63-.42-2.44-.649-.089-.025-.139-.184-.239-.313.003-.211.038-.389.126-.593.472.078.89.191 1.312.284.463.101.931.184 1.392.326a74.39 74.39 0 0 1-.151.945z"/><path fill="#ae127c" style="fill:var(--color30,#ae127c)" d="M23.628 12.944c-.17.092-.361.22-.51.181-1.057-.272-2.105-.578-3.247-.888-.48-.296-.871-.576-1.261-.857.302.047.614.06.904.146 1.119.331 2.231.689 3.348 1.026.173.052.363.049.598.07a.7.7 0 0 1 .168.323z"/><path fill="#e62404" style="fill:var(--color58,#e62404)" d="M18.362 20.996c1.07.357 2.14.713 3.24 1.106-.195.234-.42.432-.683.645-.128-.109-.192-.31-.308-.346-1.101-.34-2.212-.652-3.32-1.048.357-.17.714-.263 1.071-.357z"/><path fill="#b6136a" style="fill:var(--color13,#b6136a)" d="M20.621 13.262c.303.021.617-.001.907.072.79.2 1.569.441 2.402.666.137.261.226.521.305.829-1.01-.203-2.012-.452-3.108-.72-.232-.294-.369-.571-.506-.847z"/><path fill="#ae127c" style="fill:var(--color30,#ae127c)" d="M15.25 10.855c-1.106-.366-2.212-.731-3.317-1.099a3.53 3.53 0 0 1-.537-.231 2.39 2.39 0 0 1 .556-.406c.891.289 1.742.579 2.587.883.568.204 1.129.428 1.652.695-.341.088-.641.124-.941.16z"/><path fill="#b6136a" style="fill:var(--color13,#b6136a)" d="M10.832 9.877c.296.151.534.374.815.472.792.276 1.603.501 2.428.803-.342.243-.707.428-1.071.614-.221-.18-.416-.429-.669-.528-.666-.26-1.358-.456-2.066-.715.157-.235.341-.433.562-.646z"/><path fill="#e62404" style="fill:var(--color58,#e62404)" d="M8.15 18.17c.665.118 1.332.288 2.003.444.415.096.835.172 1.303.255.049-.002.051-.008.059.02.025.065.052.091.106.147.185.262.352.485.52.709-1.033-.281-2.064-.568-3.1-.835-.165-.042-.354.01-.539.061a6.462 6.462 0 0 1-.352-.802z"/><path fill="#d01531" style="fill:var(--color19,#d01531)" d="M10.886 15.004c-.466-.091-.933-.173-1.396-.275-.422-.092-.84-.205-1.302-.33.026-.284.096-.547.227-.833.571.151 1.071.361 1.593.485.363.087.755.057 1.127.126-.087.307-.167.567-.247.826z"/><path fill="#d51624" style="fill:var(--color43,#d51624)" d="M21.12 18.112c.113.201.184.525.347.581.675.231 1.377.38 2.122.561-.05.281-.152.56-.293.861-.196-.454-.645-.392-1.002-.501a28.719 28.719 0 0 1-1.625-.537c.121-.353.287-.659.452-.964z"/><path fill="#cb153b" style="fill:var(--color28,#cb153b)" d="M24 18.207a28.065 28.065 0 0 1-2.271-.581c-.133-.04-.232-.196-.351-.39.003-.182.011-.271.066-.36.93.252 1.812.502 2.695.753-.039.178-.079.357-.138.578zM11.14 14.13c-.379-.022-.77.008-1.134-.079-.521-.125-1.022-.335-1.571-.528a2.25 2.25 0 0 1 .234-.694c.121.075.184.22.281.249.798.236 1.602.451 2.404.712-.071.14-.143.24-.214.341z"/><path fill="#c61445" style="fill:var(--color29,#c61445)" d="M24.18 17.605a39.873 39.873 0 0 1-2.745-.778c-.009-.309.038-.568.085-.827.227.558.832.439 1.244.66.401.215.907.234 1.417.34.046.193.044.387-.001.605zM11.354 13.75c-.802-.221-1.606-.436-2.404-.672-.097-.029-.16-.173-.27-.293a.897.897 0 0 1 .148-.398c.927.276 1.818.57 2.743.904-.049.18-.133.32-.217.459z"/><path fill="#ae127c" style="fill:var(--color30,#ae127c)" d="M18.481 11.329c-.021.011-.059-.001-.109-.044.028-.025.063-.008.109.044z"/><path fill="#e31807" style="fill:var(--color8,#e31807)" d="M11.515 18.889c.027-.004.063.019.094.076-.041.016-.069-.011-.094-.076z"/></symbol><symbol id="icon-youtube" viewBox="0 0 32 32"><path fill="red" style="fill:var(--color59,red)" d="M.125 16.375c0-.133 0-.267.052-.428.101-.259.177-.488.193-.721.133-1.931.222-3.867.391-5.795.122-1.386.684-2.629 1.955-3.279.768-.393 1.699-.551 2.574-.634 2.356-.224 4.721-.479 7.084-.49 4.107-.018 8.215.104 12.32.241 1.342.045 2.707.196 4.006.52 1.183.295 2.051 1.203 2.397 2.374.559 1.892.725 3.866.764 5.832.057 2.89-.01 5.77-.452 8.649-.39 2.541-1.735 3.818-4.058 4.089-1.736.202-3.488.29-5.235.384a86.41 86.41 0 0 1-4.348.124c-1.116.004-2.232-.084-3.349-.113-1.887-.05-3.775-.051-5.66-.139-1.518-.071-3.046-.149-4.543-.391-1.576-.255-2.795-1.169-3.184-2.768-.346-1.422-.492-2.898-.64-4.359-.09-.886-.006-1.79-.028-2.684-.003-.139-.155-.274-.239-.411zm20.52.067.596-.369-8.177-4.69v9.406c2.543-1.456 5.024-2.876 7.581-4.348z"/><path fill="snow" style="fill:var(--color60,snow)" d="M20.606 16.468a7734.244 7734.244 0 0 1-7.542 4.322v-9.406l8.177 4.69-.635.394z"/></symbol><symbol id="icon-viber" viewBox="0 0 32 32"><path fill="#4c4e9a" style="fill:var(--color61,#4c4e9a)" d="M29.514 20.882a1.604 1.604 0 0 1-.255.484 1.267 1.267 0 0 0-.249.4s-.004-.011-.043-.006c-.175.153-.306.306-.448.45-.633.642-1.216 1.346-1.913 1.907-1.485 1.194-3.29 1.651-5.118 1.997-.527.1-1.075.095-1.618.093a17.819 17.819 0 0 0-.38-.837c-.166.149-.287.295-.44.383-.159.091-.461.219-.507.165-.143-.167-.228-.406-.266-.63-.02-.118.103-.261.161-.392.313-.711.626-1.422.984-2.149.205-.057.367-.093.525-.141 1.816-.551 2.741-1.918 2.86-3.802.068-1.073-.549-1.395-1.236-1.776.491-1.031.685-2.165 1.617-2.932.731.006 1.016-.205.908-.858-.178-1.082-.479-2.144-.704-3.25.198.022.402.04.539.146.292.224.549.493.839.781.233.231.436.44.666.614.508.385 1.018.769 1.557 1.108.082.051.406-.101.47-.232.55-1.118 1.058-2.257 1.594-3.382.264-.553.335-1.055-.164-1.532-.22-.211-.282-.473.152-.613h.207c.079.139.157.278.249.486.03.103.056.128.092.141.048.138.095.275.119.477a.616.616 0 0 0 .129.272c.007.021.014.042.036.119.031.087.055.11.085.126.009.056.019.113.005.231.026.133.075.203.124.274.219 1.289.575 2.573.623 3.868.061 1.62-.128 3.25-.218 4.875-.01.179-.079.355-.156.6-.062.098-.079.132-.085.172-.002.091-.003.181-.058.325a30.765 30.765 0 0 0-.565 1.678s-.005.055-.051.086c-.053.113-.059.195-.066.277z"/><path fill="#6b6dad" style="fill:var(--color62,#6b6dad)" d="M1.768 17.751c-.09-1.543-.272-3.088-.247-4.63.039-2.464.519-4.846 1.863-6.974 1.052-1.666 2.556-2.792 4.372-3.5a14.815 14.815 0 0 1 5.085-1.012c1.844-.041 3.69-.165 5.531-.11 2.359.071 4.706.379 6.858 1.429 1.036.506 2.054 1.11 2.724 2.13-.095.046-.15.045-.223.007-1.101-1.132-2.428-1.817-3.903-2.343-2.05-.65-4.118-.816-6.261-.871l-2.25-.001c-1.903-.054-3.712.217-5.265.474L7.866 7.191c.157.146.287.268.399.425-1.012.98-1.493 2.137-1.5 3.509-.615-.24-.887.02-1.115.539-.319.726-.73 1.41-1.089 2.119-.083.164-.106.358-.18.528-.166.383-.342.762-.522 1.139-.079.165-.19.314-.264.48-.312.693-.617 1.389-.897 2.022l-.93-.202z"/><path fill="#5b5ca4" style="fill:var(--color63,#5b5ca4)" d="M8.27 29.379c-.048-.815-.101-1.631-.14-2.446-.017-.351-.003-.703-.005-1.16-.121-.248-.219-.417-.363-.527-.194-.148-.422-.249-.596-.392.197-.375.344-.734.515-1.082.427-.868.856-1.735 1.299-2.594.507-.984 1.03-1.96 1.587-2.933.8.667 1.558 1.327 2.317 2.031.54.646 1.079 1.247 1.617 1.901-.043.294-.04.557-.137.776-.537 1.211-1.111 2.406-1.648 3.617-.504 1.137-.978 2.287-1.487 3.472-.328.138-.63.252-.941.331-.728.184-1.221-.348-1.802-.614 0 0 .009-.004 0-.027-.027-.06-.054-.086-.092-.102 0 0-.019-.054-.03-.111-.029-.095-.056-.122-.094-.139z"/><path fill="#6365a9" style="fill:var(--color64,#6365a9)" d="M1.779 17.799c.243.008.497.063.919.154.28-.633.584-1.33.897-2.022.075-.166.186-.315.264-.48.18-.377.356-.756.522-1.139.074-.17.097-.364.18-.528.36-.708.771-1.393 1.089-2.119.228-.519.5-.78 1.13-.489.22.608.327 1.189.551 1.719.362.857.802 1.682 1.188 2.566-.094.177-.166.309-.306.567l.626-.125c.007 0 .021-.001-.005.05-.204.641-.351 1.243-.569 1.817-.193.507-.463.985-.703 1.473-.09.182-.185.362-.286.539-.212.373-.451.732-.637 1.117-.314.649-.573 1.326-.907 1.963-.083.158-.358.257-.562.297-.213.042-.446-.02-.689-.074-.22-.177-.422-.317-.624-.457-.042-.002-.075-.02-.104-.13a1.81 1.81 0 0 0-.268-.368s.009-.003 0-.027c-.027-.06-.055-.087-.093-.102-.811-1.171-1.255-2.485-1.52-3.87-.019-.097-.055-.192-.094-.335z"/><path fill="#50529c" style="fill:var(--color65,#50529c)" d="M27.75 5.13c.055 0 .11.001.206-.001.077.02.112.042.156.14.135.211.262.346.388.482.034.023.069.046.112.143.092.169.176.264.259.359.038.058.077.115.121.257.007.178.008.272.009.366-.392.14-.331.403-.11.614.499.478.428.979.164 1.532-.536 1.125-1.044 2.264-1.594 3.382-.064.131-.388.284-.47.232a21.87 21.87 0 0 1-1.557-1.108 3.525 3.525 0 0 1-.621-.618c.226-.212.512-.341.611-.557.795-1.732 1.555-3.479 2.326-5.222z"/><path fill="#5557a1" style="fill:var(--color66,#5557a1)" d="M11.25 30c.487-1.144.961-2.294 1.465-3.431.537-1.211 1.111-2.406 1.648-3.617.097-.219.094-.482.175-.757.71.757 1.401 1.534 2.039 2.35.131.167.162.531.071.727-.201.435-.509.821-.829 1.226-.352 0-.648 0-.963-.028a.593.593 0 0 0-.27.048c-.178.262-.317.505-.456.749-.098.112-.195.224-.374.352-.18.185-.278.353-.376.522a5.598 5.598 0 0 1-.619.601c-.313.207-.55.392-.776.589-.25.217-.49.446-.735.67z"/><path fill="#5f62a7" style="fill:var(--color67,#5f62a7)" d="M4.5 23.125c.224.017.458.078.671.037.204-.04.479-.139.562-.297.334-.638.593-1.314.907-1.963.186-.385.425-.744.637-1.117.1-.177.196-.357.286-.539.24-.489.511-.966.703-1.473.218-.574.365-1.176.602-1.79.379.48.7.985 1.002 1.53-.508.959-1.028 1.862-1.477 2.8-.423.884-.745 1.816-1.164 2.702-.189.399-.508.737-.685.987-.391 0-.655 0-.962-.005-.354-.166-.665-.328-.975-.489-.042-.003-.074-.022-.102-.13-.005-.132-.004-.192-.003-.252z"/><path fill="#44478f" style="fill:var(--color68,#44478f)" d="M19.875 26.251c.538-.043 1.086-.038 1.613-.138 1.828-.347 3.633-.803 5.118-1.997.698-.561 1.281-1.265 1.913-1.907.141-.143.273-.296.453-.447-.429 1.111-1.275 1.907-2.218 2.61-1.806 1.346-3.887 1.922-6.094 2.129-.47.044-.94.084-1.508.122-.158-.085-.218-.166-.228-.248.35-.042.65-.083.95-.123z"/><path fill="#505298" style="fill:var(--color69,#505298)" d="M11.228 30.041c.267-.264.507-.493.757-.71.226-.197.463-.381.739-.573-.657.904-1.215 2.001-2.603 1.991-.702-.005-1.25-.299-1.628-.948.573.223 1.066.754 1.794.571.311-.078.613-.192.941-.331z"/><path fill="#4c4e95" style="fill:var(--color70,#4c4e95)" d="M18.875 26.375c.06.081.12.162.222.249-.148.046-.336.118-.525.119-1.193.01-2.386.004-3.638-.043-.059-.098-.059-.15-.059-.201h.998c1.074-.042 2.038-.083 3.002-.125z"/><path fill="#595b9c" style="fill:var(--color71,#595b9c)" d="M4.625 23.545c.291.123.602.285.975.489.55.309 1.038.575 1.525.841.213.121.442.223.635.371.144.11.243.279.361.47a59.63 59.63 0 0 1-2.884-1.6c-.224-.133-.397-.352-.613-.57z"/><path fill="#44478f" style="fill:var(--color68,#44478f)" d="M29.672 20.495c.131-.518.301-1.06.515-1.61-.13.523-.302 1.055-.515 1.61z"/><path fill="#595b9c" style="fill:var(--color71,#595b9c)" d="M4.482 23.087c.018.098.017.157.014.262a5.31 5.31 0 0 1-.629-.676c.193.097.395.237.615.415z"/><path fill="#4c4e95" style="fill:var(--color70,#4c4e95)" d="M14.167 27.25a3.18 3.18 0 0 1 .42-.687.422.422 0 0 1 .044.202c-.143.156-.286.311-.465.485z"/><path fill="#6b6dad" style="fill:var(--color62,#6b6dad)" d="M28.498 5.708a1.79 1.79 0 0 1-.376-.409c.125.092.249.23.376.409z"/><path fill="#4c4e95" style="fill:var(--color70,#4c4e95)" d="M13.418 28.123c.06-.15.158-.319.303-.49a1.821 1.821 0 0 1-.303.49z"/><path fill="#53559d" style="fill:var(--color72,#53559d)" d="M14.672 26.76c-.043-.053-.044-.112-.047-.216a.278.278 0 0 1 .231-.073c.018.08.018.131.019.221-.054.046-.108.054-.203.067z"/><path fill="#44478f" style="fill:var(--color68,#44478f)" d="M29.047 21.748a.834.834 0 0 1 .175-.363c-.016.112-.077.229-.175.363z"/><path fill="#595b9c" style="fill:var(--color71,#595b9c)" d="M3.493 22.173c.08.057.167.155.253.3-.083-.055-.164-.157-.253-.3z"/><path fill="#6b6dad" style="fill:var(--color62,#6b6dad)" d="M29.043 6.875c-.042-.095-.043-.189-.043-.33a.836.836 0 0 1 .249.288c-.054.042-.109.042-.206.041zM28.871 6.21a.866.866 0 0 1-.249-.288c.083.053.166.15.249.288z"/><path fill="#44478f" style="fill:var(--color68,#44478f)" d="M29.548 20.864c-.027-.065-.02-.147.023-.234.028.069.02.143-.023.234z"/><path fill="#50529c" style="fill:var(--color65,#50529c)" d="M30.1 8.964a.3.3 0 0 1-.129-.194c.065.039.102.098.129.194zM29.849 8.213a.302.302 0 0 1-.136-.19c.066.038.106.095.136.19z"/><path fill="#505298" style="fill:var(--color69,#505298)" d="M8.393 29.661c.039-.017.067.01.093.075-.026.004-.06-.019-.093-.075zM8.268 29.412c.04-.016.067.011.093.078-.026.004-.06-.021-.093-.078z"/><path fill="#6b6dad" style="fill:var(--color62,#6b6dad)" d="M29.598 7.471c-.043.018-.07-.006-.092-.068.029-.006.064.015.092.068z"/><path fill="#50529c" style="fill:var(--color65,#50529c)" d="M29.967 8.466c-.037.013-.06-.01-.085-.064.036-.023.069-.004.085.064z"/><path fill="#595b9c" style="fill:var(--color71,#595b9c)" d="M3.392 22.036c.039-.017.067.009.094.075-.026.005-.06-.019-.094-.075z"/><path fill="#44478f" style="fill:var(--color68,#44478f)" d="M30.284 18.503c-.023-.027-.006-.061.045-.107.011.02-.003.058-.045.107z"/><path fill="#fefefe" style="fill:var(--color73,#fefefe)" d="M9.888 17.471c-.321-.504-.642-1.009-.995-1.54-.032-.028-.046-.027-.05-.065a5.207 5.207 0 0 0-.302-.449c-.407-.839-.847-1.663-1.209-2.521-.224-.531-.331-1.111-.506-1.719-.054-1.422.428-2.579 1.479-3.581.411-.257.744-.511 1.121-.647 1.29-.463 2.379-.173 2.918.75.004.021.036.051.042.094.31.659.6 1.282.924 1.886s.314 1.213.012 1.794c-.228.438-.565.818-.825 1.242-.093.151-.191.391-.134.526.516 1.226 1.232 2.308 2.395 3.09.214.159.405.283.594.41.709.478 1.326.698 2.096-.052.782-.762 1.781-.9 2.792-.257.398.253.853.416 1.282.619.735.355 1.352.677 1.284 1.75-.119 1.884-1.044 3.252-2.86 3.802-.158.048-.32.083-.582.135-1.657.141-2.969-.558-4.277-1.239-.752-.391-1.471-.844-2.205-1.269-.758-.66-1.516-1.32-2.322-2.03-.256-.277-.463-.503-.671-.73z"/><path fill="#5456a0" style="fill:var(--color74,#5456a0)" d="M27.732 5.091a187.848 187.848 0 0 1-2.308 5.26c-.099.216-.385.345-.629.519-.316-.246-.573-.515-.865-.739-.137-.105-.341-.123-.572-.175a30.837 30.837 0 0 1-1.705-2.346c.273-.689.455-1.384.756-2.024.392-.832.88-1.619 1.32-2.429.067-.124.099-.267.148-.402 1.427.518 2.754 1.203 3.855 2.335z"/><path fill="#53559d" style="fill:var(--color72,#53559d)" d="M21.569 17.026c-.477-.178-.933-.34-1.331-.593-1.012-.644-2.01-.506-2.792.257-.77.75-1.386.53-2.096.052-.189-.127-.38-.251-.589-.467.186-.749.376-1.413.601-2.065.238-.691.508-1.371.81-2.063.857.101 1.184.611 1.326 1.376.043.233.405.535.654.571.399.057.644-.269.615-.683-.024-.348-.119-.692-.137-1.035.395.278.744.554 1.108.842.099-.118.198-.237.32-.312.035.207.044.371.059.535.04.437.273.705.719.671.453-.034.687-.376.599-.779-.189-.87-.46-1.723-.653-2.579.369.206.69.413 1.018.607.232.138.475.259.738.429.093.506.132.977.238 1.433.07.299.235.576.358.863-.882.776-1.077 1.91-1.567 2.941z"/><path fill="#fafafc" style="fill:var(--color75,#fafafc)" d="M23.186 14.094c-.172-.295-.338-.572-.408-.871-.106-.456-.145-.927-.238-1.481-.397-1.386-1.063-2.491-2.16-3.36-1.131-.966-2.413-1.448-3.858-1.56-.344-.027-.674-.225-1.033-.384-.24-.501-.024-.766.444-.943 2.23-.073 4.062.75 5.682 2.135a322.21 322.21 0 0 0 1.718 2.363c.282 1.099.583 2.161.762 3.244.108.653-.178.864-.908.858z"/><path fill="#53559d" style="fill:var(--color72,#53559d)" d="M12.883 20.276c.732.381 1.452.834 2.203 1.225 1.309.681 2.62 1.38 4.233 1.255-.256.716-.569 1.427-.882 2.138-.058.132-.181.274-.161.392.038.223.123.463.266.63.046.054.348-.074.507-.165.154-.088.274-.234.44-.383.138.292.257.542.38.837a5.78 5.78 0 0 1-.945.169c-1.015.043-1.979.084-2.997.125.211-.406.518-.791.72-1.226.091-.196.06-.56-.071-.727-.638-.817-1.329-1.593-2.039-2.402a47.02 47.02 0 0 1-1.656-1.868zm4.128 5.543.166.252.174-.281c-.105-.019-.21-.037-.34.029z"/><path fill="#6365a9" style="fill:var(--color64,#6365a9)" d="M12.341 7.678c-.535-.902-1.624-1.192-2.914-.729-.376.135-.71.39-1.102.611-.17-.101-.3-.222-.457-.369l2.186-4.841c1.553-.257 3.362-.528 5.264-.423.014.271.011.51-.079.709-.583 1.281-1.216 2.541-1.768 3.836-.241.566-.493 1.045-1.129 1.206z"/><path fill="#5b5da4" style="fill:var(--color76,#5b5da4)" d="M21.652 7.611c-1.657-1.367-3.489-2.19-5.711-2.161.184-.32.47-.569.638-.882.353-.653.658-1.334.951-2.017.086-.201.067-.448.096-.673 2.084.054 4.152.22 6.202.87a.864.864 0 0 1-.099.409c-.44.81-.929 1.597-1.32 2.429-.301.64-.483 1.335-.756 2.024z"/><path fill="#5f61a6" style="fill:var(--color77,#5f61a6)" d="M17.568 1.877c.03.227.049.473-.037.674a24.729 24.729 0 0 1-.951 2.017c-.169.312-.455.561-.696.883-.419.22-.635.485-.412 1.027a35.139 35.139 0 0 1-1.384 2.629c-.286-.259-.518-.52-.787-.734-.289-.23-.612-.417-.92-.623 0 0-.032-.029-.036-.051.632-.183.884-.662 1.125-1.228.552-1.295 1.185-2.554 1.768-3.836.091-.199.094-.437.138-.708.711-.051 1.422-.051 2.192-.051zM9.87 17.512c.226.186.433.413.647.683-.509 1.023-1.031 1.999-1.538 2.983-.443.86-.873 1.726-1.299 2.594-.171.347-.317.707-.515 1.082a15.945 15.945 0 0 1-1.521-.816C5.888 24 6.151 24 6.543 24c.177-.25.496-.588.685-.987.42-.886.741-1.818 1.164-2.702.449-.937.97-1.841 1.477-2.8z"/><path fill="#5f62a7" style="fill:var(--color67,#5f62a7)" d="M8.52 15.462c.121.092.22.229.316.404-.167.071-.33.104-.623.163.141-.258.213-.389.306-.567z"/><path fill="#595b9c" style="fill:var(--color71,#595b9c)" d="M12.386 7.794c.302.162.626.349.915.579.269.215.501.476.805.772.586.618 1.117 1.18 1.622 1.781-.423.667-.319.959.398 1.229-.256.685-.526 1.365-.764 2.057-.224.652-.415 1.316-.625 2.031-1.143-.692-1.859-1.773-2.375-2.999-.057-.135.042-.376.134-.526.26-.424.597-.804.825-1.242.303-.581.313-1.189-.012-1.794s-.613-1.227-.924-1.886z"/><path fill="#5d5fa5" style="fill:var(--color78,#5d5fa5)" d="M15.754 10.886c-.531-.562-1.062-1.124-1.611-1.724.432-.892.882-1.747 1.35-2.644.354.078.685.276 1.029.303 1.445.112 2.727.595 3.849 1.612-.137.463-.201.907-.755.974-.901-.7-1.876-1.127-2.976-1.253-.703-.081-1.209.156-1.265.586-.058.444.313.691 1.128.754 1.798.137 3.339 1.607 3.532 3.369l-.297.355a34.841 34.841 0 0 0-1.136-.87c-.78-1.202-1.765-1.709-2.849-1.46z"/><path fill="#fafafc" style="fill:var(--color75,#fafafc)" d="M20.059 12.905c-.216-1.804-1.757-3.274-3.555-3.411-.816-.062-1.186-.31-1.128-.754.056-.43.562-.666 1.265-.586 1.1.126 2.074.553 2.994 1.292.406.468.755.885 1.104 1.303.238.86.509 1.712.698 2.583.087.403-.146.744-.599.779-.446.034-.679-.234-.719-.671-.015-.164-.024-.329-.059-.535z"/><path fill="#fafafc" style="fill:var(--color75,#fafafc)" d="M15.728 10.925c1.111-.287 2.095.22 2.83 1.419.091.374.186.718.21 1.066.029.414-.216.74-.615.683-.249-.035-.611-.338-.654-.571-.142-.765-.469-1.275-1.326-1.376-.763-.262-.867-.554-.444-1.222z"/><path fill="#585aa2" style="fill:var(--color79,#585aa2)" d="M20.784 10.754a22.414 22.414 0 0 1-1.11-1.295c.497-.118.561-.562.717-.99 1.086.784 1.752 1.888 2.124 3.233a3.766 3.766 0 0 1-.713-.34c-.328-.195-.649-.402-1.018-.607z"/><path fill="#5557a1" style="fill:var(--color66,#5557a1)" d="M17.023 25.776c.118-.024.223-.005.328.014l-.174.281c-.055-.084-.111-.168-.154-.295z"/></symbol><symbol id="icon-telegram" viewBox="0 0 32 32"><path fill="#0188cc" style="fill:var(--color80,#0188cc)" d="M32.125 15.125c0 .628 0 1.256-.048 1.965-.14.793-.191 1.511-.331 2.212-.809 4.049-2.917 7.285-6.226 9.729-2.079 1.535-4.409 2.503-6.983 2.851-.473.064-.941.161-1.411.243-.628 0-1.256 0-1.965-.048-.552-.099-1.022-.139-1.49-.202-3.033-.412-5.697-1.68-7.989-3.662-2.557-2.211-4.265-4.988-5.055-8.296-.191-.8-.335-1.611-.501-2.417 0-.878 0-1.755.047-2.714.098-.425.151-.769.201-1.113.419-2.869 1.571-5.405 3.407-7.651C6.035 3.265 8.892 1.484 12.334.627c.798-.199 1.611-.336 2.417-.502.878 0 1.755 0 2.714.047.666.14 1.256.211 1.836.328 4.049.815 7.286 2.919 9.73 6.229 1.536 2.08 2.505 4.409 2.852 6.984.064.473.161.941.243 1.412zM20.014 9.208c-4.656 1.799-9.314 3.596-13.967 5.404a3.875 3.875 0 0 0-.917.517c-.357.27-.306.576.074.788.252.14.529.242.805.331 1.149.368 2.297.743 3.456 1.076.41.118.622.334.746.732.496 1.588 1.014 3.17 1.53 4.751.237.726.706.889 1.318.418.41-.316.764-.705 1.14-1.065.445-.426.887-.857 1.328-1.283 1.535 1.131 2.999 2.233 4.489 3.297.865.618 1.505.366 1.747-.663.248-1.053.46-2.114.683-3.173.789-3.746 1.588-7.489 2.356-11.239.226-1.106-.38-1.586-1.439-1.189-1.091.409-2.174.836-3.348 1.297z"/><path fill="#fcfefe" style="fill:var(--color81,#fcfefe)" d="M20.058 9.187c1.13-.44 2.214-.868 3.304-1.276 1.059-.397 1.665.083 1.439 1.189-.768 3.75-1.567 7.493-2.356 11.239-.223 1.059-.435 2.12-.683 3.173-.242 1.029-.881 1.281-1.747.663-1.49-1.065-2.954-2.167-4.489-3.297-.441.427-.883.857-1.328 1.283-.376.36-.73.749-1.14 1.065-.612.471-1.081.308-1.318-.418-.516-1.582-1.033-3.163-1.53-4.751-.124-.398-.336-.614-.746-.732-1.159-.333-2.307-.708-3.456-1.076a4.354 4.354 0 0 1-.805-.331c-.38-.212-.432-.518-.074-.788.278-.21.592-.391.917-.517 4.653-1.808 9.31-3.604 14.01-5.425zm-8.248 7.312c-1.096.689-1.096.69-.693 1.907.033.099.068.197.1.296l1.075 3.326c.206-.842.296-1.664.346-2.489.031-.51.221-.889.61-1.235 2.533-2.26 5.049-4.54 7.567-6.818.184-.167.336-.369.503-.555l-.128-.185c-.265.116-.55.2-.792.351-2.84 1.779-5.675 3.568-8.587 5.402z"/><path fill="#078acd" style="fill:var(--color82,#078acd)" d="M11.848 16.475c2.874-1.81 5.708-3.599 8.549-5.378.242-.152.527-.236.792-.351l.128.185c-.167.186-.319.389-.503.555-2.517 2.278-5.033 4.558-7.567 6.818-.388.346-.579.725-.61 1.235-.05.825-.14 1.647-.346 2.489l-1.075-3.326c-.032-.099-.067-.197-.1-.296-.403-1.218-.403-1.218.732-1.931z"/></symbol></defs></svg>