<svg version="1.1" id="Layer_1" xmlns="http://www.w3.org/2000/svg" xmlns:xlink="http://www.w3.org/1999/xlink" x="0px" y="0px"
	 width="100%" viewBox="0 0 256 256" enable-background="new 0 0 256 256" xml:space="preserve">
<path fill="#FEDA77" opacity="1.000000" stroke="none" 
	d="
M148.000000,257.000000 
	C128.312439,257.000000 108.624878,257.000000 88.215500,256.658875 
	C84.840919,256.211670 82.188660,256.030792 79.535278,256.012390 
	C67.729614,255.930511 56.147060,254.341949 45.175014,249.899734 
	C28.166191,243.013458 15.478978,231.568802 9.318050,214.025253 
	C18.127640,216.374588 26.500460,218.822144 34.942570,221.001266 
	C36.132381,221.308380 37.660629,220.304367 39.382019,219.956787 
	C51.006504,229.817123 64.465904,233.096283 79.080200,233.493713 
	C79.808586,234.282379 80.405266,234.911972 81.126442,235.130249 
	C99.816711,240.787170 118.546448,246.315720 137.198608,252.094788 
	C140.945953,253.255829 144.406967,255.340942 148.000000,257.000000 
z"/>
<path fill="#FFFFFF" opacity="1.000000" stroke="none" 
	d="
M257.000000,169.000000 
	C257.000000,198.259811 257.000000,227.519638 257.000000,257.000000 
	C228.312820,257.000000 199.625061,257.000000 170.473175,256.772400 
	C170.009018,256.544830 170.032928,256.090179 170.489105,256.049683 
	C174.615692,255.945633 178.286102,255.882050 182.392441,255.882538 
	C187.230042,255.331741 191.631699,254.716873 196.444336,254.057938 
	C199.906342,253.281036 202.957397,252.548187 206.387100,251.874847 
	C209.856735,250.659866 212.947739,249.385376 216.395569,248.052338 
	C219.203217,246.677994 221.654037,245.362167 224.408875,243.907806 
	C226.490814,242.550415 228.268723,241.331558 230.349487,239.974915 
	C232.469101,237.910400 234.285843,235.983704 236.402847,233.917328 
	C238.152634,231.892670 239.602173,230.007660 241.364258,227.980637 
	C242.796219,225.932510 243.915604,224.026413 245.278961,222.028030 
	C245.628815,221.635345 245.734726,221.334946 245.923248,220.790558 
	C246.045456,220.379486 246.085007,220.212372 246.419678,219.894226 
	C247.157700,218.536880 247.600616,217.330551 248.361053,215.952545 
	C249.159012,214.203232 249.639450,212.625565 250.442566,210.873978 
	C251.210358,208.816254 251.655441,206.932449 252.414139,204.878662 
	C253.085526,203.136871 253.443314,201.565048 253.890976,199.570663 
	C254.266571,196.099396 254.552307,193.050720 254.912384,189.599884 
	C255.009247,187.835022 255.031738,186.472305 255.412750,184.896896 
	C255.729233,182.169678 255.687210,179.655167 255.592728,177.071228 
	C255.540268,177.001801 255.386215,176.664627 255.654358,176.487976 
	C255.893539,175.885223 255.864594,175.459106 255.897827,174.775040 
	C255.918991,174.345032 255.877975,174.172974 255.910675,173.608337 
	C256.322937,171.810501 256.661469,170.405243 257.000000,169.000000 
z"/>
<path fill="#FFFFFF" opacity="1.000000" stroke="none" 
	d="
M174.000000,1.000000 
	C201.595291,1.000000 229.190567,1.000000 257.000000,1.000000 
	C257.000000,29.687206 257.000000,58.374943 256.652191,87.389114 
	C256.147644,86.478653 255.990936,85.241768 255.905380,83.564835 
	C255.929794,80.750122 255.883057,78.375458 255.892624,75.589066 
	C255.579010,72.118355 255.209091,69.059357 254.906830,65.594170 
	C254.588150,62.792263 254.201767,60.396545 253.747070,57.630341 
	C253.054672,54.828930 252.430618,52.398006 251.826874,49.717216 
	C251.578339,49.284477 251.309479,49.101612 251.033920,48.941845 
	C251.027222,48.964943 251.070206,48.941017 251.032791,48.576771 
	C250.037552,46.128368 249.079712,44.044216 248.064102,41.596588 
	C246.018784,37.787842 244.031235,34.342564 241.907181,30.589382 
	C237.862823,26.486078 233.954971,22.690678 229.908417,18.587318 
	C228.370850,17.155201 227.048599,15.916126 225.561279,14.924646 
	C210.531235,4.905192 193.760056,1.597506 175.685974,2.095246 
	C174.916687,1.681223 174.458344,1.340611 174.000000,1.000000 
z"/>
<path fill="#FFFFFF" opacity="1.000000" stroke="none" 
	d="
M8.903358,214.037933 
	C15.478978,231.568802 28.166191,243.013458 45.175014,249.899734 
	C56.147060,254.341949 67.729614,255.930511 79.535278,256.012390 
	C82.188660,256.030792 84.840919,256.211670 87.746841,256.658875 
	C59.075264,257.000000 30.150524,257.000000 1.000000,257.000000 
	C1.000000,229.979523 1.000000,202.958420 1.326403,175.594467 
	C1.829302,176.162369 2.005797,177.073105 2.109294,178.396713 
	C2.081209,180.202713 2.126123,181.595871 2.101983,183.390091 
	C2.410849,185.856018 2.788769,187.920883 3.103858,190.390274 
	C3.350186,192.560608 3.659343,194.326416 3.980180,196.473038 
	C4.291512,198.253510 4.591166,199.653137 4.929538,201.425568 
	C5.367899,203.193619 5.767540,204.588898 6.107089,206.358856 
	C6.999117,209.168335 7.951239,211.603134 8.903358,214.037933 
z"/>
<path fill="#FFFFFF" opacity="1.000000" stroke="none" 
	d="
M1.000000,83.000000 
	C1.000000,55.739769 1.000000,28.479540 1.000000,1.000000 
	C28.020498,1.000000 55.041592,1.000000 82.338539,1.373898 
	C79.743439,1.890681 76.872490,2.033566 73.577728,2.107404 
	C67.757072,2.994107 62.360218,3.949857 56.555767,4.946518 
	C51.416447,6.622198 46.684727,8.256968 41.590042,9.946710 
	C38.151081,11.722751 35.075089,13.443820 31.662457,15.195963 
	C28.511663,17.801651 25.697506,20.376266 22.589737,23.074099 
	C21.166096,24.451012 20.036066,25.704708 18.606365,27.118567 
	C16.594910,29.858377 14.883124,32.438026 13.017068,35.327869 
	C11.963782,37.426388 11.064768,39.214718 10.007416,41.329601 
	C9.194429,43.422901 8.539781,45.189648 7.571515,47.124695 
	C6.890871,48.861759 6.523844,50.430527 5.990862,52.339478 
	C5.521895,54.107430 5.218882,55.535194 4.589825,57.164841 
	C4.135385,58.896118 4.006989,60.425510 3.536912,62.172722 
	C3.094905,64.574463 2.994580,66.758392 2.539497,69.174744 
	C2.178103,72.605507 2.171467,75.803833 2.093499,79.375710 
	C1.681446,80.832832 1.340723,81.916420 1.000000,83.000000 
z"/>
<path fill="#6542CA" opacity="1.000000" stroke="none" 
	d="
M242.043686,30.897285 
	C244.031235,34.342564 246.018784,37.787842 247.683594,41.573570 
	C238.916412,39.277313 230.511444,36.502621 222.008759,34.069397 
	C218.429382,33.045078 214.643677,32.741787 210.582565,32.056229 
	C204.141724,29.945927 198.070099,27.890123 191.915802,25.484142 
	C191.632019,24.879080 191.477951,24.468596 191.223038,24.391476 
	C171.861160,18.533775 152.457581,12.810543 133.147018,6.788967 
	C128.604630,5.372527 124.374031,2.956286 120.000000,0.999999 
	C127.687584,1.000000 135.375168,1.000000 143.752838,1.272997 
	C146.690598,2.554197 148.860336,3.817513 151.197891,4.531505 
	C177.280426,12.498305 203.374878,20.427120 229.504913,28.236357 
	C233.585159,29.455782 237.859238,30.026567 242.043686,30.897285 
z"/>
<path fill="#5C4BCD" opacity="1.000000" stroke="none" 
	d="
M241.907181,30.589382 
	C237.859238,30.026567 233.585159,29.455782 229.504913,28.236357 
	C203.374878,20.427120 177.280426,12.498305 151.197891,4.531505 
	C148.860336,3.817513 146.690598,2.554197 144.221466,1.272997 
	C153.687561,1.000000 163.375122,1.000000 173.531342,1.000000 
	C174.458344,1.340611 174.916687,1.681223 175.761353,2.439516 
	C176.962708,3.342353 177.720444,4.012503 178.601227,4.285245 
	C195.033264,9.373537 211.476364,14.426292 227.937805,19.418413 
	C228.533264,19.598999 229.339249,19.085371 230.047119,18.895279 
	C233.954971,22.690678 237.862823,26.486078 241.907181,30.589382 
M171.411514,2.483672 
	C171.411514,2.483672 171.523499,2.417209 171.411514,2.483672 
z"/>
<path fill="#6B3BC8" opacity="1.000000" stroke="none" 
	d="
M119.531364,0.999999 
	C124.374031,2.956286 128.604630,5.372527 133.147018,6.788967 
	C152.457581,12.810543 171.861160,18.533775 191.223038,24.391476 
	C191.477951,24.468596 191.632019,24.879080 191.483795,25.552288 
	C180.422592,25.258797 169.710754,24.546978 158.928436,23.492008 
	C155.897034,21.815058 153.037689,20.151846 149.958282,19.202448 
	C133.488434,14.124688 116.948143,9.275303 100.481644,4.186959 
	C98.818321,3.672972 97.485954,2.087971 96.000000,1.000000 
	C103.687576,1.000000 111.375153,1.000000 119.531364,0.999999 
z"/>
<path fill="#7233C5" opacity="1.000000" stroke="none" 
	d="
M95.536819,1.000000 
	C97.485954,2.087971 98.818321,3.672972 100.481644,4.186959 
	C116.948143,9.275303 133.488434,14.124688 149.958282,19.202448 
	C153.037689,20.151846 155.897034,21.815058 158.464172,23.560558 
	C149.713638,23.927282 141.356873,23.882305 132.927200,23.494564 
	C128.812332,21.424145 124.881493,19.342186 120.708191,18.033354 
	C106.557457,13.595400 92.305870,9.479669 78.138954,5.091846 
	C76.605896,4.617021 75.373436,3.171634 74.001534,2.176450 
	C76.872490,2.033566 79.743439,1.890681 82.807198,1.373898 
	C87.024544,1.000000 91.049088,1.000000 95.536819,1.000000 
z"/>
<path fill="#FCD372" opacity="1.000000" stroke="none" 
	d="
M148.460632,257.000000 
	C144.406967,255.340942 140.945953,253.255829 137.198608,252.094788 
	C118.546448,246.315720 99.816711,240.787170 81.126442,235.130249 
	C80.405266,234.911972 79.808586,234.282379 79.511978,233.440033 
	C84.915581,233.405777 89.961113,233.775879 95.085396,234.497864 
	C95.833595,235.239609 96.457817,235.777664 97.179062,235.997696 
	C116.631760,241.932373 136.107544,247.792084 155.531891,253.817673 
	C157.190704,254.332230 158.518463,255.913986 160.000000,257.000000 
	C156.307098,257.000000 152.614182,257.000000 148.460632,257.000000 
z"/>
<path fill="#FBCC6D" opacity="1.000000" stroke="none" 
	d="
M160.454102,257.000000 
	C158.518463,255.913986 157.190704,254.332230 155.531891,253.817673 
	C136.107544,247.792084 116.631760,241.932373 97.179062,235.997696 
	C96.457817,235.777664 95.833595,235.239609 95.546730,234.442993 
	C100.905800,234.158966 105.882294,234.281708 110.920197,234.825531 
	C112.005630,235.885254 112.950699,236.777512 114.065491,237.124557 
	C131.202515,242.459167 148.375031,247.680298 165.494385,253.070450 
	C167.159134,253.594604 168.527176,255.061096 170.032928,256.090179 
	C170.032928,256.090179 170.009018,256.544830 170.004517,256.772400 
	C166.969406,257.000000 163.938812,257.000000 160.454102,257.000000 
z"/>
<path fill="#E31807" opacity="1.000000" stroke="none" 
	d="
M1.000000,125.000000 
	C1.000000,121.307091 1.000000,117.614182 1.376861,113.502762 
	C9.115412,115.056496 16.477102,117.028748 23.909933,119.457069 
	C23.933088,123.607018 23.885101,127.300880 23.455175,130.987823 
	C15.715490,128.987274 8.357746,126.993629 1.000000,125.000000 
z"/>
<path fill="#DB1617" opacity="1.000000" stroke="none" 
	d="
M23.838791,119.000992 
	C16.477102,117.028748 9.115412,115.056496 1.376861,113.042130 
	C1.000000,110.299988 1.000000,107.599968 1.362827,104.413864 
	C3.455660,103.988998 5.266847,103.740005 6.900970,104.167633 
	C12.581264,105.654091 18.200148,107.375214 23.911739,109.421371 
	C23.931881,111.231377 23.882666,112.627113 23.689812,114.113617 
	C23.643351,114.463516 23.740526,114.722641 23.913897,115.379456 
	C23.939657,116.851753 23.889225,117.926369 23.838791,119.000992 
z"/>
<path fill="#C21450" opacity="1.000000" stroke="none" 
	d="
M257.000000,146.000000 
	C257.000000,148.700623 257.000000,151.401260 256.586639,154.550766 
	C248.835114,152.998611 241.496948,150.997574 234.087173,148.543777 
	C234.065445,144.729248 234.115341,141.367493 234.419174,138.232605 
	C242.115417,140.973007 249.557709,143.486496 257.000000,146.000000 
z"/>
<path fill="#D01530" opacity="1.000000" stroke="none" 
	d="
M257.000000,168.600021 
	C256.661469,170.405243 256.322937,171.810501 255.506348,173.607712 
	C253.255173,173.683899 251.451355,173.485229 249.714752,173.030090 
	C244.797348,171.741318 239.907440,170.347549 234.971252,168.687103 
	C234.343140,167.922745 233.750504,167.466431 233.226227,166.608185 
	C233.583038,163.472061 233.871460,160.737869 234.422729,158.239044 
	C241.791199,160.648666 248.896820,162.822968 256.251831,164.999100 
	C256.501221,165.000946 257.000000,165.000000 257.000000,165.000000 
	C257.000000,166.066681 257.000000,167.133362 257.000000,168.600021 
z"/>
<path fill="#9311B5" opacity="1.000000" stroke="none" 
	d="
M255.834213,84.004875 
	C255.990936,85.241768 256.147644,86.478653 256.652191,87.857773 
	C257.000000,89.714394 257.000000,91.428795 256.660461,93.426079 
	C248.602371,91.473602 240.883774,89.238235 233.094299,86.562836 
	C233.070068,83.749252 233.116699,81.375694 233.572968,79.001450 
	C235.428680,79.208672 236.902206,79.302849 238.316025,79.644333 
	C244.165253,81.057121 249.996414,82.544746 255.834213,84.004875 
z"/>
<path fill="#B6136A" opacity="1.000000" stroke="none" 
	d="
M257.000000,132.000000 
	C257.000000,134.370560 257.000000,136.741104 256.608521,139.549011 
	C248.863159,137.991455 241.509323,135.996536 234.084442,133.561798 
	C234.061218,130.747009 234.109039,128.372040 234.553558,125.998642 
	C242.300186,128.000137 249.650085,130.000061 257.000000,132.000000 
z"/>
<path fill="#F28846" opacity="1.000000" stroke="none" 
	d="
M2.182292,177.983856 
	C2.005797,177.073105 1.829302,176.162369 1.326403,175.125809 
	C1.000000,173.611115 1.000000,172.222214 1.397479,170.425720 
	C9.474965,172.007767 17.154972,173.997391 24.906590,176.427002 
	C24.930050,179.239716 24.881901,181.612442 24.453293,183.981049 
	C16.775986,181.979233 9.479139,179.981552 2.182292,177.983856 
z"/>
<path fill="#EB4F23" opacity="1.000000" stroke="none" 
	d="
M0.999999,151.000000 
	C1.000000,148.957687 1.000000,146.915359 1.426435,144.435913 
	C5.395936,144.760132 8.922371,145.613510 12.486623,146.257645 
	C16.252661,146.938248 20.054737,147.419434 23.909744,148.434082 
	C23.935791,151.583939 23.893160,154.287476 23.463345,156.985504 
	C15.717439,154.986664 8.358719,152.993332 0.999999,151.000000 
z"/>
<path fill="#EE6933" opacity="1.000000" stroke="none" 
	d="
M1.000001,163.000000 
	C1.000000,160.629440 1.000000,158.258896 1.393933,155.452026 
	C9.138373,157.006836 16.488880,158.997940 23.913567,161.389282 
	C23.938437,162.870087 23.889126,163.950653 23.696880,165.116730 
	C23.351246,165.531494 23.441027,165.785767 23.890564,166.299637 
	C23.918110,167.085724 23.878382,167.537216 23.416317,167.993073 
	C20.274721,167.481476 17.534393,167.056091 14.840902,166.429413 
	C10.211882,165.352417 5.612072,164.149857 1.000001,163.000000 
z"/>
<path fill="#9E109F" opacity="1.000000" stroke="none" 
	d="
M257.000000,99.000000 
	C257.000000,101.370560 257.000000,103.741112 256.584290,106.554398 
	C251.645767,105.802643 247.163040,104.408333 242.584961,103.488907 
	C239.854889,102.940613 236.975143,103.137726 234.090958,102.554459 
	C234.067764,99.406204 234.116272,96.703247 234.548523,94.008606 
	C241.958115,95.674797 248.983932,97.332664 256.257324,98.993256 
	C256.504883,98.995964 257.000000,99.000000 257.000000,99.000000 
z"/>
<path fill="#A41192" opacity="1.000000" stroke="none" 
	d="
M234.162689,102.999748 
	C236.975143,103.137726 239.854889,102.940613 242.584961,103.488907 
	C247.163040,104.408333 251.645767,105.802643 256.584290,106.998566 
	C257.000000,109.370560 257.000000,111.741112 256.598480,114.555496 
	C248.853104,113.000015 241.509247,111.000710 234.093918,108.577171 
	C234.069183,106.435211 234.115936,104.717476 234.162689,102.999748 
z"/>
<path fill="#D01531" opacity="1.000000" stroke="none" 
	d="
M1.000000,96.000000 
	C1.000000,92.637901 1.000000,89.275795 1.273378,85.691887 
	C2.824351,86.970840 3.819224,89.228882 5.432283,89.831100 
	C10.371606,91.675171 15.523538,92.984367 20.655981,94.244110 
	C21.561342,94.466324 22.771097,93.448364 23.914772,93.452591 
	C23.939463,96.940186 23.889666,99.978310 23.631222,103.013733 
	C23.422579,103.011024 23.005289,103.016014 22.787540,102.725716 
	C15.379862,100.290283 8.189931,98.145142 1.000000,96.000000 
z"/>
<path fill="#E73012" opacity="1.000000" stroke="none" 
	d="
M1.000000,136.000000 
	C1.000000,133.957687 1.000000,131.915359 1.398490,129.443863 
	C9.146549,131.007080 16.496119,132.999496 23.916435,135.425140 
	C23.940361,137.902954 23.893543,139.947540 23.449783,141.995087 
	C15.701893,139.998688 8.350946,137.999344 1.000000,136.000000 
z"/>
<path fill="#F1793C" opacity="1.000000" stroke="none" 
	d="
M1.000001,163.437500 
	C5.612072,164.149857 10.211882,165.352417 14.840902,166.429413 
	C17.534393,167.056091 20.274721,167.481476 23.488888,168.406174 
	C24.267527,171.205627 24.551252,173.596329 24.834978,175.987030 
	C17.154972,173.997391 9.474965,172.007767 1.397479,170.009064 
	C1.000000,167.958328 1.000000,165.916672 1.000001,163.437500 
z"/>
<path fill="#E93F1A" opacity="1.000000" stroke="none" 
	d="
M1.000000,136.444168 
	C8.350946,137.999344 15.701893,139.998688 23.523232,142.418793 
	C23.942772,144.555603 23.891922,146.271652 23.841072,147.987732 
	C20.054737,147.419434 16.252661,146.938248 12.486623,146.257645 
	C8.922371,145.613510 5.395936,144.760132 1.426435,143.999390 
	C1.000000,141.629440 1.000000,139.258896 1.000000,136.444168 
z"/>
<path fill="#AA1186" opacity="1.000000" stroke="none" 
	d="
M234.165375,109.001404 
	C241.509247,111.000710 248.853104,113.000015 256.598480,114.999664 
	C257.000000,117.370560 257.000000,119.741112 256.634888,122.518059 
	C248.900909,120.615349 241.532028,118.306252 234.092468,115.564438 
	C234.069641,113.088280 234.117508,111.044838 234.165375,109.001404 
z"/>
<path fill="#D41626" opacity="1.000000" stroke="none" 
	d="
M1.000000,96.444168 
	C8.189931,98.145142 15.379862,100.290283 22.874287,102.927536 
	C23.338964,103.678703 23.560503,103.864685 23.918720,104.392189 
	C23.943493,106.206886 23.892939,107.606995 23.842386,109.007095 
	C18.200148,107.375214 12.581264,105.654091 6.900970,104.167633 
	C5.266847,103.740005 3.455660,103.988998 1.362827,103.963882 
	C1.000000,101.629440 1.000000,99.258888 1.000000,96.444168 
z"/>
<path fill="#9A10A8" opacity="1.000000" stroke="none" 
	d="
M256.009766,98.990540 
	C248.983932,97.332664 241.958115,95.674797 234.466919,93.615509 
	C233.722778,91.143684 233.443985,89.073273 233.165192,87.002861 
	C240.883774,89.238235 248.602371,91.473602 256.660461,93.854485 
	C257.000000,94.444443 257.000000,94.888893 256.737152,95.870575 
	C256.319458,97.268730 256.164612,98.129631 256.009766,98.990540 
z"/>
<path fill="#BC135D" opacity="1.000000" stroke="none" 
	d="
M234.155472,134.001617 
	C241.509323,135.996536 248.863159,137.991455 256.608521,139.993195 
	C257.000000,141.714355 257.000000,143.428711 257.000000,145.571533 
	C249.557709,143.486496 242.115417,140.973007 234.345825,137.836273 
	C234.064194,136.142578 234.109833,135.072098 234.155472,134.001617 
z"/>
<path fill="#B21274" opacity="1.000000" stroke="none" 
	d="
M257.000000,131.583344 
	C249.650085,130.000061 242.300186,128.000137 234.484528,125.586182 
	C234.064713,123.781166 234.110611,122.390182 234.561676,120.999252 
	C242.311218,122.999535 249.655609,124.999763 257.000000,127.000000 
	C257.000000,128.388885 257.000000,129.777786 257.000000,131.583344 
z"/>
<path fill="#CB153B" opacity="1.000000" stroke="none" 
	d="
M256.002441,164.997253 
	C248.896820,162.822968 241.791199,160.648666 234.352997,157.814484 
	C234.069031,155.437332 234.117645,153.720108 234.420425,152.240860 
	C235.168091,153.127884 235.545914,154.185837 236.172867,154.363190 
	C243.092926,156.320999 250.051712,158.141968 257.000000,160.000000 
	C257.000000,160.444443 257.000000,160.888901 256.737091,161.871429 
	C256.316925,163.272110 256.159668,164.134674 256.002441,164.997253 
z"/>
<path fill="#CB153B" opacity="1.000000" stroke="none" 
	d="
M23.840282,93.003128 
	C22.771097,93.448364 21.561342,94.466324 20.655981,94.244110 
	C15.523538,92.984367 10.371606,91.675171 5.432283,89.831100 
	C3.819224,89.228882 2.824351,86.970840 1.273378,85.235039 
	C1.000000,85.000000 1.000000,84.500000 1.410349,84.252274 
	C6.140472,85.137856 10.420053,86.476501 14.794074,87.332695 
	C17.738186,87.908981 20.815779,87.803368 23.905758,88.415298 
	C23.932001,90.219566 23.886141,91.611343 23.840282,93.003128 
z"/>
<path fill="#C61445" opacity="1.000000" stroke="none" 
	d="
M257.000000,159.583344 
	C250.051712,158.141968 243.092926,156.320999 236.172867,154.363190 
	C235.545914,154.185837 235.168091,153.127884 234.347702,151.868774 
	C234.066803,150.504654 234.112793,149.750595 234.158783,148.996536 
	C241.496948,150.997574 248.835114,152.998611 256.586639,154.999817 
	C257.000000,156.388885 257.000000,157.777786 257.000000,159.583344 
z"/>
<path fill="#AE127C" opacity="1.000000" stroke="none" 
	d="
M257.000000,126.600006 
	C249.655609,124.999763 242.311218,122.999535 234.491989,120.586456 
	C234.065826,118.781456 234.114502,117.389305 234.163162,115.997154 
	C241.532028,118.306252 248.900909,120.615349 256.634888,122.962219 
	C257.000000,124.066673 257.000000,125.133339 257.000000,126.600006 
z"/>
<path fill="#C61445" opacity="1.000000" stroke="none" 
	d="
M23.833656,88.002815 
	C20.815779,87.803368 17.738186,87.908981 14.794074,87.332695 
	C10.420053,86.476501 6.140472,85.137856 1.410349,84.002274 
	C1.000000,84.000000 1.000000,83.500000 1.000000,83.250000 
	C1.340723,81.916420 1.681446,80.832832 2.473209,79.382904 
	C9.987864,81.024673 17.051477,83.032791 24.065392,85.410500 
	C23.955015,86.521004 23.894337,87.261909 23.833656,88.002815 
z"/>
<path fill="#ED5C2B" opacity="1.000000" stroke="none" 
	d="
M23.839386,160.989044 
	C16.488880,158.997940 9.138373,157.006836 1.393933,155.007874 
	C1.000000,153.933334 1.000000,152.866653 0.999999,151.399994 
	C8.358719,152.993332 15.717439,154.986664 23.535568,157.322174 
	C23.947229,158.118378 23.899481,158.572418 23.705744,159.111511 
	C23.504993,159.293961 23.379557,159.436844 23.407850,159.480804 
	C23.522932,159.659622 23.685143,159.808105 23.886341,160.222595 
	C23.908262,160.647964 23.873823,160.818497 23.839386,160.989044 
z"/>
<path fill="#E52209" opacity="1.000000" stroke="none" 
	d="
M23.845692,134.991913 
	C16.496119,132.999496 9.146549,131.007080 1.398490,129.007339 
	C1.000000,127.933327 1.000000,126.866661 1.000000,125.399994 
	C8.357746,126.993629 15.715490,128.987274 23.531286,131.383087 
	C23.941454,132.854126 23.893574,133.923019 23.845692,134.991913 
z"/>
<path fill="#9311B5" opacity="1.000000" stroke="none" 
	d="
M256.257324,98.993256 
	C256.164612,98.129631 256.319458,97.268730 256.737152,96.203911 
	C257.000000,96.750000 257.000000,97.500000 257.000000,98.625000 
	C257.000000,99.000000 256.504883,98.995964 256.257324,98.993256 
z"/>
<path fill="#C61445" opacity="1.000000" stroke="none" 
	d="
M256.251831,164.999100 
	C256.159668,164.134674 256.316925,163.272110 256.737091,162.204773 
	C257.000000,162.750000 257.000000,163.500000 257.000000,164.625000 
	C257.000000,165.000000 256.501221,165.000946 256.251831,164.999100 
z"/>
<path fill="#FFFFFF" opacity="1.000000" stroke="none" 
	d="
M23.916435,135.425140 
	C23.893574,133.923019 23.941454,132.854126 23.913225,131.389999 
	C23.885101,127.300880 23.933088,123.607018 23.909933,119.457069 
	C23.889225,117.926369 23.939657,116.851753 23.975445,115.139435 
	C23.960800,114.501732 23.833452,114.022850 23.833450,114.022850 
	C23.882666,112.627113 23.931881,111.231377 23.911739,109.421371 
	C23.892939,107.606995 23.943493,106.206886 23.979008,104.151695 
	C23.963972,103.496605 23.839867,103.016434 23.839867,103.016434 
	C23.889666,99.978310 23.939463,96.940186 23.914772,93.452591 
	C23.886141,91.611343 23.932001,90.219566 23.905758,88.415298 
	C23.894337,87.261909 23.955015,86.521004 24.417528,85.183731 
	C24.825197,81.724701 24.831032,78.862038 24.909836,75.584412 
	C25.268625,72.780243 25.554441,70.391052 25.912964,67.616104 
	C26.004934,66.183762 26.024202,65.137169 26.369492,63.887482 
	C26.811872,62.155857 26.928232,60.627335 27.364204,58.910175 
	C28.165377,56.828934 28.646940,54.936333 29.437366,52.885796 
	C30.536339,50.832458 31.326447,48.937065 32.417252,46.913631 
	C33.825146,45.227409 34.932346,43.669224 36.355991,41.962204 
	C39.131187,39.245842 41.589935,36.678314 44.390610,34.055153 
	C46.190472,33.016586 47.648403,32.033649 49.480152,31.018845 
	C53.234535,29.603502 56.615101,28.220026 60.415543,26.907703 
	C67.556435,26.264664 74.277451,25.550470 81.451515,24.907278 
	C89.924828,24.598667 97.945091,24.219057 106.431503,23.909645 
	C115.598473,23.932341 124.299286,23.884834 133.000107,23.837328 
	C141.356873,23.882305 149.713638,23.927282 158.534668,23.903709 
	C169.710754,24.546978 180.422592,25.258797 191.566437,25.902470 
	C198.070099,27.890123 204.141724,29.945927 210.724930,32.364906 
	C215.118057,36.166000 218.999603,39.603916 223.030060,43.360374 
	C225.081818,46.801754 226.984695,49.924599 228.935211,53.429611 
	C229.620041,55.884422 230.257233,57.957058 230.938828,60.447212 
	C231.640396,64.273026 232.297562,67.681320 232.974243,71.528046 
	C233.050293,74.311691 233.106812,76.656914 233.163330,79.002129 
	C233.116699,81.375694 233.070068,83.749252 233.094299,86.562836 
	C233.443985,89.073273 233.722778,91.143684 234.083176,93.607193 
	C234.116272,96.703247 234.067764,99.406204 234.090973,102.554459 
	C234.115936,104.717476 234.069183,106.435211 234.093903,108.577171 
	C234.117508,111.044838 234.069641,113.088280 234.092468,115.564438 
	C234.114502,117.389305 234.065826,118.781456 234.086838,120.586411 
	C234.110611,122.390182 234.064713,123.781166 234.087830,125.584610 
	C234.109039,128.372040 234.061218,130.747009 234.084442,133.561798 
	C234.109833,135.072098 234.064194,136.142578 234.091888,137.609390 
	C234.115341,141.367493 234.065445,144.729248 234.087173,148.543777 
	C234.112793,149.750595 234.066803,150.504654 234.093536,151.630798 
	C234.117645,153.720108 234.069031,155.437332 234.090149,157.579132 
	C233.871460,160.737869 233.583038,163.472061 233.154419,167.060852 
	C233.065262,171.278427 233.116287,174.641403 233.092621,178.436798 
	C233.064758,180.912537 233.111603,182.955841 233.079102,185.403320 
	C232.649826,188.502853 232.299896,191.198181 231.605621,194.082840 
	C231.134399,195.834824 231.007523,197.397476 230.554047,199.133057 
	C229.778595,201.192307 229.329742,203.078613 228.603348,205.072464 
	C228.198029,205.749283 228.070251,206.318558 227.638489,207.036392 
	C226.540878,208.751251 225.747238,210.317535 224.648956,212.043945 
	C222.540359,214.760864 220.736420,217.317673 218.588242,219.930237 
	C216.140457,221.623749 214.036926,223.261490 211.611572,225.046906 
	C208.174484,226.761398 205.059219,228.328262 201.536423,229.932404 
	C197.092651,230.704025 193.056396,231.438339 188.615692,232.258728 
	C184.479614,232.618591 180.747971,232.892395 176.588531,233.102112 
	C170.779251,233.410370 165.397781,233.782730 159.551666,234.087128 
	C153.730270,234.066666 148.373520,234.114197 142.551331,234.095444 
	C134.729996,234.073853 127.374092,234.118530 119.583977,234.099869 
	C116.386108,234.159180 113.622444,234.281830 110.858788,234.404465 
	C105.882294,234.281708 100.905800,234.158966 95.467972,234.091095 
	C89.961113,233.775879 84.915581,233.405777 79.438278,233.089325 
	C64.465904,233.096283 51.006504,229.817123 39.233730,219.655014 
	C36.512760,216.501801 34.289871,213.699905 32.025841,210.578033 
	C31.600687,209.502289 31.216669,208.746521 30.762810,207.645462 
	C29.736528,204.863907 28.780092,202.427673 27.866215,199.631866 
	C27.220541,197.512024 26.532307,195.751709 25.902058,193.603592 
	C25.695694,191.483047 25.431343,189.750336 25.100679,187.617188 
	C24.967495,186.139572 24.900623,185.062378 24.833752,183.985168 
	C24.881901,181.612442 24.930050,179.239716 24.906590,176.427002 
	C24.551252,173.596329 24.267527,171.205627 23.911228,168.401825 
	C23.878382,167.537216 23.918110,167.085724 23.949657,166.067169 
	C23.941477,165.500107 23.839815,165.031219 23.839815,165.031219 
	C23.889126,163.950653 23.938437,162.870087 23.913567,161.389282 
	C23.873823,160.818497 23.908262,160.647964 23.948879,159.988602 
	C23.955057,159.499786 23.851732,159.026459 23.851732,159.026459 
	C23.899481,158.572418 23.947229,158.118378 23.922752,157.327667 
	C23.893160,154.287476 23.935791,151.583939 23.909746,148.434067 
	C23.891922,146.271652 23.942772,144.555603 23.920174,142.415833 
	C23.893543,139.947540 23.940361,137.902954 23.916435,135.425140 
M69.015602,102.753883 
	C68.397438,104.512497 67.779282,106.271103 66.821053,108.707306 
	C66.265175,110.812775 65.709290,112.918236 65.000450,115.767464 
	C64.722336,117.193245 64.444221,118.619019 64.018799,120.880989 
	C63.734924,123.590622 63.451050,126.300255 63.023605,129.851852 
	C63.737095,134.899521 64.450584,139.947174 65.228683,145.722641 
	C66.138512,147.854645 67.048332,149.986633 68.008430,152.857834 
	C69.302834,155.588547 70.597237,158.319244 72.154762,161.675125 
	C73.061386,163.131073 73.968018,164.587036 75.157700,166.667480 
	C77.733665,169.459747 80.309624,172.252014 83.153862,175.668884 
	C91.992409,184.877518 102.827171,190.370712 115.228989,193.012405 
	C123.835808,194.845734 132.424011,195.237610 141.846405,193.013290 
	C145.240631,192.036224 148.634842,191.059158 152.764679,190.000824 
	C154.850769,189.028122 156.936859,188.055420 159.680542,186.825729 
	C162.132034,185.251617 164.583527,183.677505 167.663254,181.847458 
	C169.458344,180.267960 171.253433,178.688461 173.670456,176.844376 
	C176.486145,173.575195 179.301849,170.306000 182.731461,166.755875 
	C183.837875,164.866745 184.944275,162.977600 186.677307,160.741837 
	C187.492142,158.507278 188.306992,156.272705 189.766113,153.694000 
	C190.457001,151.130081 191.147888,148.566177 192.159103,145.316605 
	C192.474075,143.888779 192.789062,142.460953 193.771851,140.638794 
	C193.794983,139.091248 193.818100,137.543716 193.984634,135.198181 
	C194.264786,133.124680 194.544952,131.051178 194.967224,128.151108 
	C194.582932,125.104149 194.198639,122.057182 193.946945,118.255638 
	C193.242630,116.171692 192.538315,114.087746 191.975388,111.242050 
	C190.998291,108.790138 190.021210,106.338219 189.007065,103.219093 
	C188.706253,102.466370 188.405441,101.713646 187.992447,100.245132 
	C186.359665,97.482948 184.726883,94.720764 182.827576,91.328644 
	C179.925262,88.204193 177.022949,85.079742 173.838776,81.334053 
	C167.699783,75.055664 160.343552,70.694450 152.170044,67.646385 
	C140.044937,63.124714 127.625549,62.852131 114.257500,65.041412 
	C110.955490,66.205933 107.653473,67.370461 103.705688,68.832809 
	C101.120766,70.186401 98.535835,71.539993 95.268204,72.995552 
	C93.829315,73.960968 92.390427,74.926376 90.350700,76.145973 
	C89.220741,77.062447 88.090782,77.978912 86.352173,79.139915 
	C84.884094,80.720604 83.416023,82.301300 81.326401,84.156387 
	C79.273163,86.772568 77.219925,89.388748 74.869492,92.635094 
	C73.550331,94.742165 72.231171,96.849228 70.342278,99.228905 
	C69.957863,100.166245 69.573441,101.103584 69.015602,102.753883 
M183.243927,54.353123 
	C182.884338,56.903576 182.524750,59.454025 182.030396,62.770214 
	C183.052750,69.592476 187.022461,74.108719 193.560410,75.661301 
	C199.032501,76.960793 204.392517,76.139206 208.757584,70.753075 
	C209.783051,67.836586 210.808533,64.920097 211.976929,61.153282 
	C212.042206,53.460079 207.939209,47.290623 201.678650,46.071598 
	C193.186996,44.418156 185.911880,48.094006 183.243927,54.353123 
z"/>
<path fill="#FBCF70" opacity="1.000000" stroke="none" 
	d="
M32.066986,210.898010 
	C34.289871,213.699905 36.512760,216.501801 38.883938,219.605469 
	C37.660629,220.304367 36.132381,221.308380 34.942570,221.001266 
	C26.500460,218.822144 18.127640,216.374588 9.318050,214.025253 
	C7.951239,211.603134 6.999117,209.168335 6.515476,206.364365 
	C12.740185,207.394669 18.472513,208.906128 24.263662,210.141937 
	C26.802921,210.683792 29.462204,210.663208 32.066986,210.898010 
z"/>
<path fill="#F8B863" opacity="1.000000" stroke="none" 
	d="
M120.018188,234.163208 
	C127.374092,234.118530 134.729996,234.073853 142.617523,234.440613 
	C144.376785,235.564819 145.527130,236.511887 146.846329,236.947083 
	C151.040436,238.330734 155.295914,239.528824 159.530441,240.789322 
	C170.044281,243.918961 180.594666,246.933838 191.042114,250.271042 
	C192.921967,250.871521 194.380386,252.791336 196.033371,254.101990 
	C191.631699,254.716873 187.230042,255.331741 182.169952,255.626648 
	C180.285751,254.532333 179.156815,253.440430 177.819275,253.032349 
	C163.153351,248.557800 148.420502,244.300049 133.785156,239.729431 
	C129.076004,238.258759 124.600548,236.039841 120.018188,234.163208 
z"/>
<path fill="#F6A054" opacity="1.000000" stroke="none" 
	d="
M160.016296,234.155090 
	C165.397781,233.782730 170.779251,233.410370 176.655518,233.449677 
	C185.913483,236.906830 194.701370,239.883759 203.429291,243.027206 
	C207.690063,244.561768 211.839127,246.406525 216.038742,248.110870 
	C212.947739,249.385376 209.856735,250.659866 206.313019,251.533112 
	C204.796982,250.432053 203.824188,249.440445 202.656189,249.078201 
	C192.628540,245.968307 182.506088,243.152191 172.540802,239.858536 
	C168.210632,238.427353 164.181931,236.084091 160.016296,234.155090 
z"/>
<path fill="#F7AD5B" opacity="1.000000" stroke="none" 
	d="
M159.551666,234.087128 
	C164.181931,236.084091 168.210632,238.427353 172.540802,239.858536 
	C182.506088,243.152191 192.628540,245.968307 202.656189,249.078201 
	C203.824188,249.440445 204.796982,250.432053 205.934357,251.473602 
	C202.957397,252.548187 199.906342,253.281036 196.444336,254.057953 
	C194.380386,252.791336 192.921967,250.871521 191.042114,250.271042 
	C180.594666,246.933838 170.044281,243.918961 159.530441,240.789322 
	C155.295914,239.528824 151.040436,238.330734 146.846329,236.947083 
	C145.527130,236.511887 144.376785,235.564819 143.082962,234.506866 
	C148.373520,234.114197 153.730270,234.066666 159.551666,234.087128 
z"/>
<path fill="#FAC368" opacity="1.000000" stroke="none" 
	d="
M119.583977,234.099869 
	C124.600548,236.039841 129.076004,238.258759 133.785156,239.729431 
	C148.420502,244.300049 163.153351,248.557800 177.819275,253.032349 
	C179.156815,253.440430 180.285751,254.532333 181.734039,255.562576 
	C178.286102,255.882050 174.615692,255.945633 170.489105,256.049683 
	C168.527176,255.061096 167.159134,253.594604 165.494385,253.070450 
	C148.375031,247.680298 131.202515,242.459167 114.065491,237.124557 
	C112.950699,236.777512 112.005630,235.885254 110.920197,234.825562 
	C113.622444,234.281830 116.386108,234.159180 119.583977,234.099869 
z"/>
<path fill="#F28846" opacity="1.000000" stroke="none" 
	d="
M189.020142,232.172653 
	C193.056396,231.438339 197.092651,230.704025 201.771118,230.225464 
	C210.178024,232.682846 217.970871,234.792709 225.684357,237.161072 
	C227.289246,237.653839 228.600220,239.103851 230.046646,240.112701 
	C228.268723,241.331558 226.490814,242.550415 224.007538,243.887253 
	C212.757126,240.918518 202.197876,237.878235 191.688934,234.673004 
	C190.642471,234.353821 189.902405,233.030136 189.020142,232.172653 
z"/>
<path fill="#E31807" opacity="1.000000" stroke="none" 
	d="
M231.949966,193.893509 
	C232.299896,191.198181 232.649826,188.502853 233.488708,185.403488 
	C240.931107,186.666977 247.884567,188.334503 254.838043,190.002029 
	C254.552307,193.050720 254.266571,196.099396 253.486328,199.571777 
	C245.977875,197.961487 238.963913,195.927490 231.949966,193.893509 
z"/>
<path fill="#EE6933" opacity="1.000000" stroke="none" 
	d="
M211.933411,224.899231 
	C214.036926,223.261490 216.140457,221.623749 218.815506,220.227264 
	C221.106339,221.001389 222.848984,221.469482 224.540665,222.079041 
	C230.054367,224.065765 235.549454,226.104141 241.051697,228.122650 
	C239.602173,230.007660 238.152634,231.892670 236.062714,233.747116 
	C230.302002,232.148163 225.122650,230.745087 220.084335,228.946838 
	C217.247223,227.934235 214.642700,226.269943 211.933411,224.899231 
z"/>
<path fill="#F4954E" opacity="1.000000" stroke="none" 
	d="
M188.615692,232.258728 
	C189.902405,233.030136 190.642471,234.353821 191.688934,234.673004 
	C202.197876,237.878235 212.757126,240.918518 223.703522,244.025787 
	C221.654037,245.362167 219.203217,246.677994 216.395569,248.052353 
	C211.839127,246.406525 207.690063,244.561768 203.429291,243.027206 
	C194.701370,239.883759 185.913483,236.906830 177.083313,233.513763 
	C180.747971,232.892395 184.479614,232.618591 188.615692,232.258728 
z"/>
<path fill="#F1793C" opacity="1.000000" stroke="none" 
	d="
M211.611572,225.046890 
	C214.642700,226.269943 217.247223,227.934235 220.084335,228.946838 
	C225.122650,230.745087 230.302002,232.148163 235.762482,233.886780 
	C234.285843,235.983704 232.469101,237.910400 230.349487,239.974915 
	C228.600220,239.103851 227.289246,237.653839 225.684357,237.161072 
	C217.970871,234.792709 210.178024,232.682846 202.178650,230.188156 
	C205.059219,228.328262 208.174484,226.761398 211.611572,225.046890 
z"/>
<path fill="#EC5728" opacity="1.000000" stroke="none" 
	d="
M241.364258,227.980621 
	C235.549454,226.104141 230.054367,224.065765 224.540665,222.079041 
	C222.848984,221.469482 221.106339,221.001389 219.159760,220.171509 
	C220.736420,217.317673 222.540359,214.760864 224.669800,212.431580 
	C225.334793,213.365036 225.536560,214.563156 226.034576,214.702515 
	C232.707077,216.569748 239.420975,218.289124 246.124573,220.045258 
	C246.085007,220.212372 246.045456,220.379486 245.727692,220.919250 
	C245.229187,221.526947 245.091003,221.803085 245.035004,222.120316 
	C243.915604,224.026413 242.796219,225.932510 241.364258,227.980621 
z"/>
<path fill="#EA481F" opacity="1.000000" stroke="none" 
	d="
M246.419678,219.894226 
	C239.420975,218.289124 232.707077,216.569748 226.034576,214.702515 
	C225.536560,214.563156 225.334793,213.365036 224.974457,212.271454 
	C225.747238,210.317535 226.540878,208.751251 227.806610,207.366669 
	C232.613617,209.041809 237.020645,210.359482 241.255524,212.096832 
	C243.663635,213.084747 245.790176,214.759018 248.043518,216.124207 
	C247.600616,217.330551 247.157700,218.536880 246.419678,219.894226 
z"/>
<path fill="#E73012" opacity="1.000000" stroke="none" 
	d="
M228.880890,204.964920 
	C229.329742,203.078613 229.778595,201.192307 230.977844,199.144806 
	C238.519012,201.005295 245.309784,203.026978 252.100540,205.048660 
	C251.655441,206.932449 251.210358,208.816254 250.054520,210.822540 
	C242.522812,208.951660 235.701859,206.958282 228.880890,204.964920 
z"/>
<path fill="#DD1612" opacity="1.000000" stroke="none" 
	d="
M254.912399,189.599884 
	C247.884567,188.334503 240.931107,186.666977 233.568039,184.999298 
	C233.111603,182.955841 233.064758,180.912537 233.465088,178.488007 
	C240.959579,180.441025 248.006912,182.775299 255.054230,185.109589 
	C255.031738,186.472305 255.009247,187.835022 254.912399,189.599884 
z"/>
<path fill="#D9151C" opacity="1.000000" stroke="none" 
	d="
M255.412750,184.896896 
	C248.006912,182.775299 240.959579,180.441025 233.539795,178.055557 
	C233.116287,174.641403 233.065262,171.278427 233.086029,167.462799 
	C233.750504,167.466431 234.343140,167.922745 234.969482,169.085144 
	C235.389374,171.003952 235.593399,173.169083 236.189743,173.283173 
	C242.683090,174.525192 248.442108,179.623657 255.645187,177.140640 
	C255.687210,179.655167 255.729233,182.169678 255.412750,184.896896 
z"/>
<path fill="#E52209" opacity="1.000000" stroke="none" 
	d="
M252.414139,204.878662 
	C245.309784,203.026978 238.519012,201.005295 231.304459,198.971863 
	C231.007523,197.397476 231.134399,195.834824 231.605621,194.082840 
	C238.963913,195.927490 245.977875,197.961487 253.396454,199.994354 
	C253.443314,201.565048 253.085526,203.136871 252.414139,204.878662 
z"/>
<path fill="#D51624" opacity="1.000000" stroke="none" 
	d="
M255.592728,177.071228 
	C248.442108,179.623657 242.683090,174.525192 236.189743,173.283173 
	C235.593399,173.169083 235.389374,171.003952 235.004944,169.393173 
	C239.907440,170.347549 244.797348,171.741318 249.714752,173.030090 
	C251.451355,173.485229 253.255173,173.683899 255.432632,174.000275 
	C255.877975,174.172974 255.918991,174.345032 255.685974,174.997757 
	C255.403351,175.873825 255.394775,176.269226 255.386215,176.664627 
	C255.386215,176.664627 255.540268,177.001801 255.592728,177.071228 
z"/>
<path fill="#E83B18" opacity="1.000000" stroke="none" 
	d="
M228.603348,205.072464 
	C235.701859,206.958282 242.522812,208.951660 249.731842,210.996475 
	C249.639450,212.625565 249.159012,214.203232 248.361053,215.952545 
	C245.790176,214.759018 243.663635,213.084747 241.255524,212.096832 
	C237.020645,210.359482 232.613617,209.041809 228.110565,207.218109 
	C228.070251,206.318558 228.198029,205.749283 228.603348,205.072464 
z"/>
<path fill="#EA481F" opacity="1.000000" stroke="none" 
	d="
M245.278961,222.028030 
	C245.091003,221.803085 245.229187,221.526947 245.645065,221.163239 
	C245.734726,221.334946 245.628815,221.635345 245.278961,222.028030 
z"/>
<path fill="#D9151C" opacity="1.000000" stroke="none" 
	d="
M255.654358,176.487976 
	C255.394775,176.269226 255.403351,175.873825 255.623795,175.255707 
	C255.864594,175.459106 255.893539,175.885223 255.654358,176.487976 
z"/>
<path fill="#5652D0" opacity="1.000000" stroke="none" 
	d="
M229.908417,18.587318 
	C229.339249,19.085371 228.533264,19.598999 227.937805,19.418413 
	C211.476364,14.426292 195.033264,9.373537 178.601227,4.285245 
	C177.720444,4.012503 176.962708,3.342353 176.072296,2.512928 
	C193.760056,1.597506 210.531235,4.905192 225.561279,14.924646 
	C227.048599,15.916126 228.370850,17.155201 229.908417,18.587318 
z"/>
<path fill="#6B3BC8" opacity="1.000000" stroke="none" 
	d="
M222.881165,43.041836 
	C218.999603,39.603916 215.118057,36.166000 211.094131,32.419407 
	C214.643677,32.741787 218.429382,33.045078 222.008759,34.069397 
	C230.511444,36.502621 238.916412,39.277313 247.741379,41.937042 
	C249.079712,44.044216 250.037552,46.128368 250.600769,48.594795 
	C247.943970,48.644573 245.647858,48.460339 243.425903,47.951973 
	C236.562454,46.381660 229.727310,44.687748 222.881165,43.041836 
z"/>
<path fill="#8221BE" opacity="1.000000" stroke="none" 
	d="
M232.954727,71.089615 
	C232.297562,67.681320 231.640396,64.273026 231.330719,60.477585 
	C239.398514,62.060413 247.118835,64.030388 254.839157,66.000359 
	C255.209091,69.059357 255.579010,72.118355 255.496994,75.587708 
	C249.973801,74.608986 244.927948,73.114861 239.819519,71.879562 
	C237.597504,71.342247 235.246918,71.336685 232.954727,71.089615 
z"/>
<path fill="#7233C5" opacity="1.000000" stroke="none" 
	d="
M223.030060,43.360374 
	C229.727310,44.687748 236.562454,46.381660 243.425903,47.951973 
	C245.647858,48.460339 247.943970,48.644573 250.638184,48.959045 
	C251.070206,48.941017 251.027222,48.964943 251.097229,49.158531 
	C251.307175,49.633160 251.520294,49.838146 251.806549,49.967079 
	C252.430618,52.398006 253.054672,54.828930 253.343781,57.630234 
	C249.223038,56.948704 245.480789,55.682194 241.639709,54.902637 
	C237.436600,54.049618 233.142181,53.646584 228.887558,53.047440 
	C226.984695,49.924599 225.081818,46.801754 223.030060,43.360374 
z"/>
<path fill="#7A2AC1" opacity="1.000000" stroke="none" 
	d="
M228.935211,53.429611 
	C233.142181,53.646584 237.436600,54.049618 241.639709,54.902637 
	C245.480789,55.682194 249.223038,56.948704 253.412125,58.000725 
	C254.201767,60.396545 254.588150,62.792263 254.906830,65.594170 
	C247.118835,64.030388 239.398514,62.060413 231.286316,60.060066 
	C230.257233,57.957058 229.620041,55.884422 228.935211,53.429611 
z"/>
<path fill="#8C17BA" opacity="1.000000" stroke="none" 
	d="
M232.974243,71.528046 
	C235.246918,71.336685 237.597504,71.342247 239.819519,71.879562 
	C244.927948,73.114861 249.973801,74.608986 255.440674,75.999420 
	C255.883057,78.375458 255.929794,80.750122 255.905380,83.564835 
	C249.996414,82.544746 244.165253,81.057121 238.316025,79.644333 
	C236.902206,79.302849 235.428680,79.208672 233.572968,79.001450 
	C233.106812,76.656914 233.050293,74.311691 232.974243,71.528046 
z"/>
<path fill="#6B3BC8" opacity="1.000000" stroke="none" 
	d="
M251.826874,49.717213 
	C251.520294,49.838146 251.307175,49.633160 251.103912,49.135437 
	C251.309479,49.101612 251.578339,49.284477 251.826874,49.717213 
z"/>
<path fill="#F8B863" opacity="1.000000" stroke="none" 
	d="
M27.823656,199.991425 
	C28.780092,202.427673 29.736528,204.863907 30.377659,207.638794 
	C21.671839,205.669205 13.281330,203.360992 4.890820,201.052780 
	C4.591166,199.653137 4.291512,198.253510 4.038690,196.125946 
	C6.292577,195.529984 8.559606,195.384964 10.695126,195.847321 
	C16.434664,197.090027 22.118004,198.592255 27.823656,199.991425 
z"/>
<path fill="#F6A054" opacity="1.000000" stroke="none" 
	d="
M25.166994,188.017609 
	C25.431343,189.750336 25.695694,191.483047 25.480522,193.606873 
	C23.236046,193.794891 21.448729,193.706497 19.710260,193.367554 
	C14.185945,192.290497 8.679835,191.120071 3.166689,189.985733 
	C2.788769,187.920883 2.410849,185.856018 2.506144,183.393768 
	C5.391478,183.527679 7.806623,184.045670 10.215081,184.593079 
	C15.200934,185.726318 20.183233,186.875168 25.166994,188.017609 
z"/>
<path fill="#F7AD5B" opacity="1.000000" stroke="none" 
	d="
M3.103858,190.390274 
	C8.679835,191.120071 14.185945,192.290497 19.710260,193.367554 
	C21.448729,193.706497 23.236046,193.794891 25.422539,193.994690 
	C26.532307,195.751709 27.220541,197.512024 27.866217,199.631866 
	C22.118004,198.592255 16.434664,197.090027 10.695126,195.847321 
	C8.559606,195.384964 6.292577,195.529984 4.027010,195.745117 
	C3.659343,194.326416 3.350186,192.560608 3.103858,190.390274 
z"/>
<path fill="#F4954E" opacity="1.000000" stroke="none" 
	d="
M25.100679,187.617188 
	C20.183233,186.875168 15.200934,185.726318 10.215081,184.593079 
	C7.806623,184.045670 5.391478,183.527679 2.575198,182.992691 
	C2.126123,181.595871 2.081209,180.202713 2.109294,178.396713 
	C9.479139,179.981552 16.775986,181.979233 24.453293,183.981049 
	C24.900623,185.062378 24.967495,186.139572 25.100679,187.617188 
z"/>
<path fill="#FAC368" opacity="1.000000" stroke="none" 
	d="
M4.929539,201.425568 
	C13.281330,203.360992 21.671839,205.669205 30.447502,207.984100 
	C31.216669,208.746521 31.600687,209.502289 32.025845,210.578033 
	C29.462204,210.663208 26.802921,210.683792 24.263662,210.141937 
	C18.472513,208.906128 12.740185,207.394669 6.575569,205.989685 
	C5.767540,204.588898 5.367899,203.193619 4.929539,201.425568 
z"/>
<path fill="#7A2AC1" opacity="1.000000" stroke="none" 
	d="
M132.927200,23.494564 
	C124.299286,23.884834 115.598473,23.932341 106.209274,23.657557 
	C103.122963,22.208464 100.815819,20.794003 98.311699,20.003578 
	C86.067787,16.138792 73.743744,12.526015 61.524696,8.586358 
	C59.789093,8.026767 58.473404,6.164794 56.963364,4.905609 
	C62.360218,3.949857 67.757072,2.994107 73.577728,2.107402 
	C75.373436,3.171634 76.605896,4.617021 78.138954,5.091846 
	C92.305870,9.479669 106.557457,13.595400 120.708191,18.033354 
	C124.881493,19.342186 128.812332,21.424145 132.927200,23.494564 
z"/>
<path fill="#8221BE" opacity="1.000000" stroke="none" 
	d="
M56.555767,4.946518 
	C58.473404,6.164794 59.789093,8.026767 61.524696,8.586358 
	C73.743744,12.526015 86.067787,16.138792 98.311699,20.003578 
	C100.815819,20.794003 103.122963,22.208464 105.743134,23.587357 
	C97.945091,24.219057 89.924828,24.598667 81.372063,24.558716 
	C80.335083,23.775400 79.881683,23.247061 79.318558,23.072258 
	C68.625244,19.752916 57.895027,16.549740 47.237602,13.120062 
	C45.327572,12.505393 43.707146,10.990813 41.953003,9.891737 
	C46.684727,8.256968 51.416447,6.622198 56.555767,4.946518 
z"/>
<path fill="#8C17BA" opacity="1.000000" stroke="none" 
	d="
M41.590042,9.946709 
	C43.707146,10.990813 45.327572,12.505393 47.237602,13.120062 
	C57.895027,16.549740 68.625244,19.752916 79.318558,23.072258 
	C79.881683,23.247061 80.335083,23.775400 80.919014,24.487717 
	C74.277451,25.550470 67.556435,26.264664 60.340225,26.559074 
	C51.836185,23.465494 43.801277,20.865391 35.842411,18.050293 
	C34.401394,17.540596 33.272228,16.149225 31.999092,15.164888 
	C35.075089,13.443820 38.151081,11.722751 41.590042,9.946709 
z"/>
<path fill="#9311B5" opacity="1.000000" stroke="none" 
	d="
M31.662457,15.195963 
	C33.272228,16.149225 34.401394,17.540596 35.842411,18.050293 
	C43.801277,20.865391 51.836185,23.465494 59.920349,26.487923 
	C56.615101,28.220026 53.234535,29.603502 49.127136,30.866756 
	C39.894650,28.147982 31.388998,25.549431 22.883347,22.950882 
	C25.697506,20.376266 28.511663,17.801651 31.662457,15.195963 
z"/>
<path fill="#9D0FA0" opacity="1.000000" stroke="none" 
	d="
M44.048683,34.110786 
	C41.589935,36.678314 39.131187,39.245842 36.199059,41.631535 
	C28.791409,37.258400 21.359711,34.811371 13.171339,35.017677 
	C14.883124,32.438026 16.594910,29.858377 19.026390,27.131287 
	C27.846951,29.359491 35.947815,31.735140 44.048683,34.110786 
z"/>
<path fill="#C21450" opacity="1.000000" stroke="none" 
	d="
M24.836864,75.999382 
	C24.831032,78.862038 24.825197,81.724701 24.467228,84.814133 
	C17.051477,83.032791 9.987864,81.024673 2.544540,79.009361 
	C2.171467,75.803833 2.178103,72.605507 2.844392,69.382874 
	C10.614985,71.572182 17.725925,73.785782 24.836864,75.999382 
z"/>
<path fill="#BB135F" opacity="1.000000" stroke="none" 
	d="
M24.909836,75.584412 
	C17.725925,73.785782 10.614985,71.572182 3.199149,69.150452 
	C2.994580,66.758392 3.094905,64.574463 3.962073,62.186172 
	C11.766031,63.988495 18.803146,65.995171 25.840260,68.001846 
	C25.554441,70.391052 25.268625,72.780243 24.909836,75.584412 
z"/>
<path fill="#A41192" opacity="1.000000" stroke="none" 
	d="
M13.017068,35.327869 
	C21.359711,34.811371 28.791409,37.258400 35.882610,41.780365 
	C34.932346,43.669224 33.825146,45.227409 32.023739,46.896740 
	C24.274939,45.006271 17.220346,43.004658 10.165754,41.003044 
	C11.064768,39.214718 11.963782,37.426388 13.017068,35.327869 
z"/>
<path fill="#AA1186" opacity="1.000000" stroke="none" 
	d="
M10.007416,41.329601 
	C17.220346,43.004658 24.274939,45.006271 31.723042,47.024776 
	C31.326447,48.937065 30.536339,50.832458 29.026791,52.866982 
	C21.499945,50.989532 14.692538,48.972961 7.885132,46.956390 
	C8.539781,45.189648 9.194429,43.422901 10.007416,41.329601 
z"/>
<path fill="#9910AB" opacity="1.000000" stroke="none" 
	d="
M44.390610,34.055153 
	C35.947815,31.735140 27.846951,29.359491 19.326059,26.971123 
	C20.036066,25.704708 21.166096,24.451012 22.589737,23.074097 
	C31.388998,25.549431 39.894650,28.147982 48.753319,30.898623 
	C47.648403,32.033649 46.190472,33.016586 44.390610,34.055153 
z"/>
<path fill="#B6136A" opacity="1.000000" stroke="none" 
	d="
M25.912964,67.616096 
	C18.803146,65.995171 11.766031,63.988495 4.303755,61.968361 
	C4.006989,60.425510 4.135385,58.896118 5.011510,57.175537 
	C12.520650,59.353100 19.282061,61.721844 26.043470,64.090584 
	C26.024202,65.137169 26.004934,66.183762 25.912964,67.616096 
z"/>
<path fill="#B21274" opacity="1.000000" stroke="none" 
	d="
M26.369492,63.887482 
	C19.282061,61.721844 12.520650,59.353100 5.337554,56.973660 
	C5.218882,55.535194 5.521895,54.107430 6.384578,52.349396 
	C8.723812,52.360432 10.597146,52.455105 12.265328,53.089359 
	C17.234968,54.978840 22.124043,57.080223 27.044594,59.098816 
	C26.928232,60.627335 26.811872,62.155857 26.369492,63.887482 
z"/>
<path fill="#AE127C" opacity="1.000000" stroke="none" 
	d="
M27.364204,58.910175 
	C22.124043,57.080223 17.234968,54.978840 12.265328,53.089359 
	C10.597146,52.455105 8.723812,52.360432 6.550532,52.009209 
	C6.523844,50.430527 6.890871,48.861759 7.571515,47.124695 
	C14.692538,48.972961 21.499945,50.989532 28.717928,53.024918 
	C28.646940,54.936333 28.165377,56.828934 27.364204,58.910175 
z"/>
<path fill="#5652D0" opacity="1.000000" stroke="none" 
	d="
M171.467499,2.450441 
	C171.523499,2.417209 171.411514,2.483672 171.467499,2.450441 
z"/>
<path fill="#E31807" opacity="1.000000" stroke="none" 
	d="
M23.689814,114.113617 
	C23.833452,114.022850 23.960800,114.501732 23.899250,114.741753 
	C23.740526,114.722641 23.643351,114.463516 23.689814,114.113617 
z"/>
<path fill="#ED5C2B" opacity="1.000000" stroke="none" 
	d="
M23.696880,165.116730 
	C23.839815,165.031219 23.941477,165.500107 23.882383,165.732574 
	C23.441027,165.785767 23.351246,165.531494 23.696880,165.116730 
z"/>
<path fill="#DB1617" opacity="1.000000" stroke="none" 
	d="
M23.631222,103.013733 
	C23.839867,103.016434 23.963972,103.496605 23.903685,103.737099 
	C23.560503,103.864685 23.338964,103.678703 23.092035,103.217834 
	C23.005289,103.016014 23.422579,103.011024 23.631222,103.013733 
z"/>
<path fill="#EB4F23" opacity="1.000000" stroke="none" 
	d="
M23.705744,159.111511 
	C23.851732,159.026459 23.955057,159.499786 23.892519,159.733780 
	C23.685143,159.808105 23.522932,159.659622 23.407850,159.480804 
	C23.379557,159.436844 23.504993,159.293961 23.705744,159.111511 
z"/>
<path fill="#E83103" opacity="1.000000" stroke="none" 
	d="
M167.035019,182.103394 
	C164.583527,183.677505 162.132034,185.251617 159.279785,186.578888 
	C158.571579,185.961197 158.329788,185.363953 157.946960,185.252884 
	C149.748108,182.874008 141.505142,180.644028 133.327850,178.194565 
	C117.243202,173.376541 101.221359,168.346909 85.110344,163.620209 
	C80.821884,162.362030 76.304123,161.885422 71.891632,161.049957 
	C70.597237,158.319244 69.302834,155.588547 68.040855,152.143921 
	C69.496895,151.362427 71.010490,150.945023 72.329460,151.284271 
	C80.619888,153.416672 88.867012,155.717407 97.438377,158.088058 
	C101.215118,160.824463 104.506142,163.720032 108.183372,165.989990 
	C117.382843,171.668839 127.477524,172.620697 138.144745,171.152069 
	C147.193604,173.988663 156.074982,176.485321 164.886841,179.207031 
	C165.812759,179.493027 166.328812,181.106049 167.035019,182.103394 
z"/>
<path fill="#AA1186" opacity="1.000000" stroke="none" 
	d="
M95.950912,72.893593 
	C98.535835,71.539993 101.120766,70.186401 104.399811,68.905518 
	C106.445702,69.610603 107.743690,70.421532 109.157654,70.847435 
	C121.832825,74.665382 134.498154,78.521606 147.226791,82.154839 
	C159.144379,85.556557 171.135406,88.700943 183.094116,91.958572 
	C184.726883,94.720764 186.359665,97.482948 187.626190,100.614578 
	C185.803375,100.804726 184.284882,100.830688 182.900345,100.412804 
	C173.959824,97.714325 165.069016,94.849777 156.113739,92.202591 
	C153.791672,91.516197 151.297913,91.410629 148.652832,91.010941 
	C148.422653,90.983627 147.986160,90.827148 147.851501,90.633865 
	C147.482071,90.214310 147.203140,90.079292 146.494751,90.011520 
	C140.740997,88.605698 135.372513,87.223877 129.930084,85.492561 
	C125.341309,83.424812 120.851532,81.636650 116.305679,80.004707 
	C109.541550,77.576416 102.737801,75.258484 95.950912,72.893593 
z"/>
<path fill="#A41192" opacity="1.000000" stroke="none" 
	d="
M182.960846,91.643608 
	C171.135406,88.700943 159.144379,85.556557 147.226791,82.154839 
	C134.498154,78.521606 121.832825,74.665382 109.157654,70.847435 
	C107.743690,70.421532 106.445702,69.610603 104.722694,68.756607 
	C107.653473,67.370461 110.955490,66.205933 114.931946,65.353149 
	C118.175186,66.181610 120.805954,66.493568 123.302399,67.249283 
	C136.480026,71.238396 149.605148,75.401344 162.791229,79.361702 
	C166.493393,80.473625 170.340195,81.104019 174.120651,81.955284 
	C177.022949,85.079742 179.925262,88.204193 182.960846,91.643608 
z"/>
<path fill="#EB4602" opacity="1.000000" stroke="none" 
	d="
M82.885590,175.044281 
	C80.309624,172.252014 77.733665,169.459747 75.434464,166.343750 
	C76.373138,166.049774 77.075333,165.944733 77.691154,166.128754 
	C101.433586,173.223251 125.174934,180.321762 148.883759,187.527252 
	C150.080490,187.890945 150.987274,189.208603 152.029068,190.082092 
	C148.634842,191.059158 145.240631,192.036224 141.225800,192.747803 
	C131.026794,189.470383 121.473946,186.373886 111.862808,183.470322 
	C102.234016,180.561417 92.547050,177.845047 82.885590,175.044281 
z"/>
<path fill="#EA3C03" opacity="1.000000" stroke="none" 
	d="
M152.396881,190.041458 
	C150.987274,189.208603 150.080490,187.890945 148.883759,187.527252 
	C125.174934,180.321762 101.433586,173.223251 77.691154,166.128754 
	C77.075333,165.944733 76.373138,166.049774 75.292938,166.031494 
	C73.968018,164.587036 73.061386,163.131073 72.023201,161.362549 
	C76.304123,161.885422 80.821884,162.362030 85.110344,163.620209 
	C101.221359,168.346909 117.243202,173.376541 133.327850,178.194565 
	C141.505142,180.644028 149.748108,182.874008 157.946960,185.252884 
	C158.329788,185.363953 158.571579,185.961197 158.950989,186.707382 
	C156.936859,188.055420 154.850769,189.028122 152.396881,190.041458 
z"/>
<path fill="#ED5103" opacity="1.000000" stroke="none" 
	d="
M83.019730,175.356583 
	C92.547050,177.845047 102.234016,180.561417 111.862808,183.470322 
	C121.473946,186.373886 131.026794,189.470383 140.818024,192.783173 
	C132.424011,195.237610 123.835808,194.845734 115.228989,193.012405 
	C102.827171,190.370712 91.992409,184.877518 83.019730,175.356583 
z"/>
<path fill="#9E109F" opacity="1.000000" stroke="none" 
	d="
M173.979706,81.644669 
	C170.340195,81.104019 166.493393,80.473625 162.791229,79.361702 
	C149.605148,75.401344 136.480026,71.238396 123.302399,67.249283 
	C120.805954,66.493568 118.175186,66.181610 115.322311,65.413261 
	C127.625549,62.852131 140.044937,63.124714 152.170044,67.646385 
	C160.343552,70.694450 167.699783,75.055664 173.979706,81.644669 
z"/>
<path fill="#E31807" opacity="1.000000" stroke="none" 
	d="
M65.164070,144.994843 
	C64.450584,139.947174 63.737095,134.899521 63.444206,129.511078 
	C64.742104,130.408279 65.393921,132.426437 66.533798,132.755875 
	C73.238716,134.693680 80.057396,136.237823 86.945801,138.228577 
	C88.732040,142.668777 90.410225,146.795029 91.668594,150.944061 
	C87.905273,150.286911 84.544319,149.682098 81.222237,148.909988 
	C75.856056,147.662827 70.515465,146.305603 65.164070,144.994843 
z"/>
<path fill="#E31807" opacity="1.000000" stroke="none" 
	d="
M182.117538,167.036819 
	C179.301849,170.306000 176.486145,173.575195 173.127136,176.683075 
	C164.022385,173.669647 155.460953,170.817535 147.062561,167.649445 
	C151.138168,164.845856 155.050781,162.358246 159.169128,160.176559 
	C166.955780,162.667252 174.536652,164.852036 182.117538,167.036819 
z"/>
<path fill="#8B18BA" opacity="1.000000" stroke="none" 
	d="
M211.834000,62.003609 
	C210.808533,64.920097 209.783051,67.836586 208.098343,70.737862 
	C206.448639,70.169060 205.516891,69.434570 204.458282,69.090935 
	C197.041901,66.683594 189.599335,64.356949 182.165146,62.004478 
	C182.524750,59.454025 182.884338,56.903576 183.980255,54.168152 
	C193.755722,56.656658 202.794861,59.330132 211.834000,62.003609 
z"/>
<path fill="#8124BE" opacity="1.000000" stroke="none" 
	d="
M211.905457,61.578445 
	C202.794861,59.330132 193.755722,56.656658 184.305603,53.970024 
	C185.911880,48.094006 193.186996,44.418156 201.678650,46.071598 
	C207.939209,47.290623 212.042206,53.460079 211.905457,61.578445 
z"/>
<path fill="#DB1617" opacity="1.000000" stroke="none" 
	d="
M86.837738,137.914627 
	C80.057396,136.237823 73.238716,134.693680 66.533798,132.755875 
	C65.393921,132.426437 64.742104,130.408279 63.515991,129.090088 
	C63.451050,126.300255 63.734924,123.590622 64.342819,120.722137 
	C65.213272,121.336685 65.619263,122.605164 66.328056,122.806229 
	C72.803635,124.643204 79.331863,126.294540 85.914383,128.409576 
	C86.268616,131.850922 86.553177,134.882782 86.837738,137.914627 
z"/>
<path fill="#DB1617" opacity="1.000000" stroke="none" 
	d="
M182.424500,166.896347 
	C174.536652,164.852036 166.955780,162.667252 159.293076,159.867844 
	C161.101456,157.155197 162.991638,155.057175 165.290070,152.972244 
	C169.914429,154.294403 174.125244,155.620911 178.348541,156.906448 
	C181.207001,157.776550 184.792938,157.279266 186.050690,161.088470 
	C184.944275,162.977600 183.837875,164.866745 182.424500,166.896347 
z"/>
<path fill="#BB135F" opacity="1.000000" stroke="none" 
	d="
M75.166695,92.004936 
	C77.219925,89.388748 79.273163,86.772568 81.846268,84.321915 
	C87.820709,86.257378 93.356339,87.819855 98.688438,89.903229 
	C100.713417,90.694435 102.270103,92.684158 103.909836,94.430336 
	C101.894196,96.167747 100.008957,97.602440 97.773163,98.893219 
	C90.003975,96.501167 82.585335,94.253052 75.166695,92.004936 
z"/>
<path fill="#BB135F" opacity="1.000000" stroke="none" 
	d="
M193.814331,119.010223 
	C194.198639,122.057182 194.582932,125.104149 194.632965,128.332245 
	C193.512360,128.005386 192.790695,127.280403 191.929443,127.023712 
	C185.022354,124.965012 178.088882,122.994743 170.996643,120.651390 
	C170.178986,117.882286 169.528183,115.459213 169.323151,113.025391 
	C177.784058,115.013168 185.799194,117.011696 193.814331,119.010223 
z"/>
<path fill="#C21450" opacity="1.000000" stroke="none" 
	d="
M75.018097,92.320015 
	C82.585335,94.253052 90.003975,96.501167 97.631485,99.206879 
	C96.255219,101.785736 94.670067,103.906990 92.691002,106.013878 
	C85.168732,103.651772 78.040375,101.304031 70.912018,98.956299 
	C72.231171,96.849228 73.550331,94.742165 75.018097,92.320015 
z"/>
<path fill="#C21450" opacity="1.000000" stroke="none" 
	d="
M171.163483,120.997414 
	C178.088882,122.994743 185.022354,124.965012 191.929443,127.023712 
	C192.790695,127.280403 193.512360,128.005386 194.561905,128.745529 
	C194.544952,131.051178 194.264786,133.124680 193.518250,135.596939 
	C189.371674,135.153473 185.321457,135.000336 182.114014,133.277847 
	C178.817444,131.507507 173.976868,132.465866 171.979950,127.638176 
	C171.585999,125.184509 171.374741,123.090965 171.163483,120.997414 
z"/>
<path fill="#D01530" opacity="1.000000" stroke="none" 
	d="
M191.838791,146.002258 
	C191.147888,148.566177 190.457001,151.130081 189.029510,153.854004 
	C182.753754,152.580231 177.133118,151.384903 171.734421,149.540146 
	C170.432251,149.095169 169.864670,146.500473 168.974823,144.508667 
	C169.645569,142.041504 170.300781,139.960083 171.005386,138.252930 
	C171.972687,139.444717 172.762650,140.689163 173.829727,141.008972 
	C179.795715,142.796951 185.828705,144.361420 191.838791,146.002258 
z"/>
<path fill="#9311B5" opacity="1.000000" stroke="none" 
	d="
M182.097778,62.387348 
	C189.599335,64.356949 197.041901,66.683594 204.458282,69.090935 
	C205.516891,69.434570 206.448639,70.169060 207.776474,70.886475 
	C204.392517,76.139206 199.032501,76.960793 193.560410,75.661301 
	C187.022461,74.108719 183.052750,69.592476 182.097778,62.387348 
z"/>
<path fill="#B21274" opacity="1.000000" stroke="none" 
	d="
M189.044113,103.886307 
	C190.021210,106.338219 190.998291,108.790138 191.509033,111.620743 
	C184.774200,110.200317 178.538406,108.272514 172.220184,106.669502 
	C169.902512,106.081482 167.389725,106.262489 164.662476,105.930054 
	C162.528961,103.191742 160.698898,100.616081 159.280029,98.029305 
	C168.099731,100.378860 176.485992,102.826027 184.942047,105.001831 
	C186.134766,105.308723 187.668320,104.290939 189.044113,103.886307 
z"/>
<path fill="#B21274" opacity="1.000000" stroke="none" 
	d="
M86.960815,78.895386 
	C88.090782,77.978912 89.220741,77.062447 90.862473,76.321060 
	C92.735611,77.014740 94.080185,77.583771 95.461090,78.043739 
	C104.302284,80.988670 113.151466,83.909653 121.614639,86.918175 
	C118.529381,87.680733 115.827515,88.363625 112.777359,88.900887 
	C106.002724,86.796432 99.519897,84.999756 93.180313,82.791801 
	C90.928001,82.007370 89.023888,80.223183 86.960815,78.895386 
z"/>
<path fill="#D41626" opacity="1.000000" stroke="none" 
	d="
M85.844727,128.000076 
	C79.331863,126.294540 72.803635,124.643204 66.328056,122.806229 
	C65.619263,122.605164 65.213272,121.336685 64.416466,120.304047 
	C64.444221,118.619019 64.722336,117.193245 65.422012,115.562485 
	C69.199814,116.188492 72.540237,117.091721 75.916550,117.831024 
	C79.622696,118.642563 83.361916,119.303040 87.052063,120.442123 
	C86.626511,123.236633 86.235619,125.618355 85.844727,128.000076 
z"/>
<path fill="#AE127C" opacity="1.000000" stroke="none" 
	d="
M189.025589,103.552696 
	C187.668320,104.290939 186.134766,105.308723 184.942047,105.001831 
	C176.485992,102.826027 168.099731,100.378860 158.967377,97.894653 
	C155.123337,95.526833 152.003189,93.282547 148.883026,91.038261 
	C151.297913,91.410629 153.791672,91.516197 156.113739,92.202591 
	C165.069016,94.849777 173.959824,97.714325 182.900345,100.412804 
	C184.284882,100.830688 185.803375,100.804726 187.682266,100.972473 
	C188.405441,101.713646 188.706253,102.466370 189.025589,103.552696 
z"/>
<path fill="#E62404" opacity="1.000000" stroke="none" 
	d="
M146.899536,167.965439 
	C155.460953,170.817535 164.022385,173.669647 172.816162,176.815369 
	C171.253433,178.688461 169.458344,180.267960 167.349136,181.975433 
	C166.328812,181.106049 165.812759,179.493027 164.886841,179.207031 
	C156.074982,176.485321 147.193604,173.988663 138.330933,170.819397 
	C141.186279,169.462784 144.042908,168.714111 146.899536,167.965439 
z"/>
<path fill="#B6136A" opacity="1.000000" stroke="none" 
	d="
M164.965942,106.092697 
	C167.389725,106.262489 169.902512,106.081482 172.220184,106.669502 
	C178.538406,108.272514 184.774200,110.200317 191.438324,112.001617 
	C192.538315,114.087746 193.242630,116.171692 193.880646,118.632935 
	C185.799194,117.011696 177.784058,115.013168 169.015717,112.869934 
	C167.163651,110.514374 166.064804,108.303535 164.965942,106.092697 
z"/>
<path fill="#AE127C" opacity="1.000000" stroke="none" 
	d="
M121.998024,86.838501 
	C113.151466,83.909653 104.302284,80.988670 95.461090,78.043739 
	C94.080185,77.583771 92.735611,77.014740 91.162888,76.193962 
	C92.390427,74.926376 93.829315,73.960968 95.609558,72.944572 
	C102.737801,75.258484 109.541550,77.576416 116.305679,80.004707 
	C120.851532,81.636650 125.341309,83.424812 129.522369,85.561531 
	C126.791710,86.266159 124.394867,86.552330 121.998024,86.838501 
z"/>
<path fill="#B6136A" opacity="1.000000" stroke="none" 
	d="
M86.656494,79.017654 
	C89.023888,80.223183 90.928001,82.007370 93.180313,82.791801 
	C99.519897,84.999756 106.002724,86.796432 112.608414,89.216019 
	C109.871910,91.160400 106.956070,92.644012 104.040222,94.127625 
	C102.270103,92.684158 100.713417,90.694435 98.688438,89.903229 
	C93.356339,87.819855 87.820709,86.257378 82.157043,84.184723 
	C83.416023,82.301300 84.884094,80.720604 86.656494,79.017654 
z"/>
<path fill="#E62404" opacity="1.000000" stroke="none" 
	d="
M65.196381,145.358734 
	C70.515465,146.305603 75.856056,147.662827 81.222237,148.909988 
	C84.544319,149.682098 87.905273,150.286911 91.644058,150.953644 
	C92.039337,150.940491 92.055794,150.890503 92.119965,151.114075 
	C92.322685,151.631012 92.539429,151.845276 92.971466,152.292969 
	C94.448524,154.391144 95.788490,156.176804 97.128464,157.962463 
	C88.867012,155.717407 80.619888,153.416672 72.329460,151.284271 
	C71.010490,150.945023 69.496895,151.362427 68.015717,151.774323 
	C67.048332,149.986633 66.138512,147.854645 65.196381,145.358734 
z"/>
<path fill="#D01531" opacity="1.000000" stroke="none" 
	d="
M87.086731,120.029327 
	C83.361916,119.303040 79.622696,118.642563 75.916550,117.831024 
	C72.540237,117.091721 69.199814,116.188492 65.498497,115.190605 
	C65.709290,112.918236 66.265175,110.812775 67.312355,108.525833 
	C71.878792,109.732521 75.884178,111.412415 80.052925,112.408958 
	C82.959862,113.103874 86.090691,112.862160 89.065598,113.420616 
	C88.368706,115.878052 87.727722,117.953697 87.086731,120.029327 
z"/>
<path fill="#D51624" opacity="1.000000" stroke="none" 
	d="
M168.959274,144.894379 
	C169.864670,146.500473 170.432251,149.095169 171.734421,149.540146 
	C177.133118,151.384903 182.753754,152.580231 188.707367,154.026062 
	C188.306992,156.272705 187.492142,158.507278 186.363998,160.915161 
	C184.792938,157.279266 181.207001,157.776550 178.348541,156.906448 
	C174.125244,155.620911 169.914429,154.294403 165.344604,152.609833 
	C166.313705,149.787674 167.636490,147.341034 168.959274,144.894379 
z"/>
<path fill="#CB153B" opacity="1.000000" stroke="none" 
	d="
M191.998947,145.659439 
	C185.828705,144.361420 179.795715,142.796951 173.829727,141.008972 
	C172.762650,140.689163 171.972687,139.444717 171.020081,137.891800 
	C171.045654,136.438431 171.105942,135.720505 171.548004,135.010010 
	C178.987869,137.022675 186.045944,139.027908 193.104034,141.033142 
	C192.789062,142.460953 192.474075,143.888779 191.998947,145.659439 
z"/>
<path fill="#CB153B" opacity="1.000000" stroke="none" 
	d="
M89.121513,113.038818 
	C86.090691,112.862160 82.959862,113.103874 80.052925,112.408958 
	C75.884178,111.412415 71.878792,109.732521 67.482391,108.187035 
	C67.779282,106.271103 68.397438,104.512497 69.355293,102.631577 
	C70.324318,103.235573 70.826660,104.390602 71.603012,104.620552 
	C77.984962,106.510849 84.417839,108.229218 90.834351,110.313065 
	C90.262794,111.430534 89.692154,112.234673 89.121513,113.038818 
z"/>
<path fill="#C61445" opacity="1.000000" stroke="none" 
	d="
M193.437943,140.835968 
	C186.045944,139.027908 178.987869,137.022675 171.478745,134.610519 
	C171.406036,132.135147 171.784348,130.066727 172.162659,127.998291 
	C173.976868,132.465866 178.817444,131.507507 182.114014,133.277847 
	C185.321457,135.000336 189.371674,135.153473 193.446533,135.995941 
	C193.818100,137.543716 193.794983,139.091248 193.437943,140.835968 
z"/>
<path fill="#C61445" opacity="1.000000" stroke="none" 
	d="
M90.835266,109.999741 
	C84.417839,108.229218 77.984962,106.510849 71.603012,104.620552 
	C70.826660,104.390602 70.324318,103.235573 69.442001,102.275101 
	C69.573441,101.103584 69.957863,100.166245 70.627151,99.092606 
	C78.040375,101.304031 85.168732,103.651772 92.574036,106.326256 
	C92.179077,107.768585 91.507172,108.884163 90.835266,109.999741 
z"/>
<path fill="#FFFFFF" opacity="1.000000" stroke="none" 
	d="
M90.834351,110.313065 
	C91.507172,108.884163 92.179077,107.768585 92.967949,106.340622 
	C94.670067,103.906990 96.255219,101.785736 97.982040,99.350807 
	C100.008957,97.602440 101.894196,96.167747 103.909836,94.430344 
	C106.956070,92.644012 109.871910,91.160400 112.956696,89.361649 
	C115.827515,88.363625 118.529381,87.680733 121.614639,86.918167 
	C124.394867,86.552330 126.791710,86.266159 129.596283,85.911018 
	C135.372513,87.223877 140.740997,88.605698 146.593018,90.254410 
	C147.379730,90.623253 147.682953,90.725197 147.986160,90.827148 
	C147.986160,90.827148 148.422653,90.983627 148.652832,91.010941 
	C152.003189,93.282547 155.123337,95.526833 158.556168,97.905777 
	C160.698898,100.616081 162.528961,103.191742 164.662476,105.930054 
	C166.064804,108.303535 167.163651,110.514374 168.569946,112.880676 
	C169.528183,115.459213 170.178986,117.882286 170.996628,120.651390 
	C171.374741,123.090965 171.585999,125.184509 171.979950,127.638176 
	C171.784348,130.066727 171.406036,132.135147 171.096954,134.603073 
	C171.105942,135.720505 171.045654,136.438431 170.970688,137.517517 
	C170.300781,139.960083 169.645569,142.041504 168.974823,144.508667 
	C167.636490,147.341034 166.313705,149.787674 164.936371,152.596741 
	C162.991638,155.057175 161.101456,157.155197 159.087311,159.561935 
	C155.050781,162.358246 151.138168,164.845856 147.062561,167.649445 
	C144.042908,168.714111 141.186279,169.462784 138.143463,170.544128 
	C127.477524,172.620697 117.382843,171.668839 108.183372,165.989990 
	C104.506142,163.720032 101.215118,160.824463 97.438385,158.088058 
	C95.788490,156.176804 94.448524,154.391144 93.008499,152.031860 
	C92.624229,151.268997 92.340012,151.079742 92.055794,150.890503 
	C92.055794,150.890503 92.039337,150.940491 92.063873,150.930893 
	C90.410225,146.795029 88.732040,142.668777 86.945793,138.228577 
	C86.553177,134.882782 86.268616,131.850922 85.914383,128.409576 
	C86.235619,125.618355 86.626511,123.236633 87.052063,120.442123 
	C87.727722,117.953697 88.368706,115.878052 89.065598,113.420616 
	C89.692154,112.234673 90.262794,111.430534 90.834351,110.313065 
z"/>
<path fill="#AE127C" opacity="1.000000" stroke="none" 
	d="
M147.851501,90.633865 
	C147.682953,90.725197 147.379730,90.623253 146.978271,90.278412 
	C147.203140,90.079292 147.482071,90.214310 147.851501,90.633865 
z"/>
<path fill="#E31807" opacity="1.000000" stroke="none" 
	d="
M92.119965,151.114075 
	C92.340012,151.079742 92.624229,151.268997 92.871414,151.719330 
	C92.539429,151.845276 92.322685,151.631012 92.119965,151.114075 
z"/>
</svg>