<?xml version="1.0" standalone="no"?>
<!DOCTYPE svg PUBLIC "-//W3C//DTD SVG 20010904//EN"
 "http://www.w3.org/TR/2001/REC-SVG-20010904/DTD/svg10.dtd">
<svg version="1.0" xmlns="http://www.w3.org/2000/svg"
 width="256.000000pt" height="256.000000pt" viewBox="0 0 256.000000 256.000000"
 preserveAspectRatio="xMidYMid meet">

<g transform="translate(0.000000,256.000000) scale(0.100000,-0.100000)"
fill="#000000" stroke="none">
<path d="M730 2549 c-143 -13 -235 -36 -340 -86 -79 -38 -108 -59 -172 -123
-129 -131 -187 -278 -208 -527 -11 -138 -13 -834 -2 -831 4 1 27 -5 52 -12 25
-8 47 -14 50 -15 3 -1 23 -7 45 -13 22 -6 44 -11 49 -11 5 0 12 -5 16 -11 4
-6 10 199 13 457 5 350 10 488 21 547 36 193 153 321 337 372 78 21 329 33
689 33 642 0 770 -21 899 -150 100 -100 128 -189 143 -454 14 -259 4 -981 -16
-1089 -19 -103 -63 -190 -128 -255 -29 -29 -48 -51 -43 -50 13 4 68 -9 125
-28 25 -8 56 -17 69 -19 13 -3 32 -9 42 -14 14 -8 23 -1 48 38 119 186 140
333 141 977 0 387 -11 606 -36 717 -45 204 -176 375 -355 461 -110 53 -194 74
-356 87 -140 12 -947 11 -1083 -1z"/>
<path d="M1933 2109 c-80 -16 -126 -76 -120 -155 4 -60 32 -105 81 -128 105
-50 216 21 216 139 0 98 -82 165 -177 144z"/>
<path d="M1195 1930 c-297 -40 -527 -274 -565 -574 -38 -301 150 -599 438
-695 363 -122 751 89 848 459 10 39 16 103 16 160 0 186 -58 327 -192 460 -65
65 -103 94 -160 122 -124 60 -261 85 -385 68z m166 -234 c134 -29 241 -110
298 -228 177 -364 -203 -744 -567 -567 -161 79 -262 269 -232 442 31 176 161
315 333 352 80 17 89 17 168 1z"/>
</g>
</svg>
