<svg aria-hidden="true" style="position: absolute; width: 0; height: 0; overflow: hidden;" version="1.1" xmlns="http://www.w3.org/2000/svg" xmlns:xlink="http://www.w3.org/1999/xlink">
<defs>
<symbol id="icon-Instagram" viewBox="0 0 32 32">
<path fill="#feda77" style="fill: var(--color1, #feda77)" d="M18.5 32.125c-2.461 0-4.922 0-7.473-0.043-0.422-0.056-0.753-0.078-1.085-0.081-1.476-0.010-2.924-0.209-4.295-0.764-2.126-0.861-3.712-2.291-4.482-4.484 1.101 0.294 2.148 0.6 3.203 0.872 0.149 0.038 0.34-0.087 0.555-0.131 1.453 1.233 3.135 1.642 4.962 1.692 0.091 0.099 0.166 0.177 0.256 0.205 2.336 0.707 4.678 1.398 7.009 2.121 0.468 0.145 0.901 0.406 1.35 0.613z"></path>
<path fill="#6542ca" style="fill: var(--color2, #6542ca)" d="M30.255 3.862c0.248 0.431 0.497 0.861 0.705 1.335-1.096-0.287-2.147-0.634-3.209-0.938-0.447-0.128-0.921-0.166-1.428-0.252-0.805-0.264-1.564-0.521-2.333-0.821-0.035-0.076-0.055-0.127-0.087-0.137-2.42-0.732-4.846-1.448-7.259-2.2-0.568-0.177-1.097-0.479-1.643-0.724 0.961 0 1.922 0 2.969 0.034 0.367 0.16 0.638 0.318 0.931 0.407 3.26 0.996 6.522 1.987 9.788 2.963 0.51 0.152 1.044 0.224 1.567 0.333z"></path>
<path fill="#5c4bcd" style="fill: var(--color3, #5c4bcd)" d="M30.238 3.824c-0.506-0.070-1.040-0.142-1.55-0.294-3.266-0.976-6.528-1.967-9.788-2.963-0.292-0.089-0.563-0.247-0.872-0.407 1.183-0.034 2.394-0.034 3.664-0.034 0.116 0.043 0.173 0.085 0.279 0.18 0.15 0.113 0.245 0.197 0.355 0.231 2.054 0.636 4.109 1.268 6.167 1.892 0.074 0.023 0.175-0.042 0.264-0.065 0.488 0.474 0.977 0.949 1.482 1.462zM21.426 0.31c0 0 0.014-0.008 0 0z"></path>
<path fill="#6b3bc8" style="fill: var(--color4, #6b3bc8)" d="M14.941 0.125c0.605 0.245 1.134 0.547 1.702 0.724 2.414 0.753 4.839 1.468 7.259 2.2 0.032 0.010 0.051 0.061 0.033 0.145-1.383-0.037-2.722-0.126-4.069-0.258-0.379-0.21-0.736-0.418-1.121-0.536-2.059-0.635-4.126-1.241-6.185-1.877-0.208-0.064-0.374-0.262-0.56-0.398 0.961 0 1.922 0 2.941 0z"></path>
<path fill="#7233c5" style="fill: var(--color5, #7233c5)" d="M11.942 0.125c0.244 0.136 0.41 0.334 0.618 0.398 2.058 0.636 4.126 1.242 6.185 1.877 0.385 0.119 0.742 0.327 1.063 0.545-1.094 0.046-2.138 0.040-3.192-0.008-0.514-0.259-1.006-0.519-1.527-0.683-1.769-0.555-3.55-1.069-5.321-1.618-0.192-0.059-0.346-0.24-0.517-0.364 0.359-0.018 0.718-0.036 1.101-0.1 0.527-0.047 1.030-0.047 1.591-0.047z"></path>
<path fill="#fcd372" style="fill: var(--color6, #fcd372)" d="M18.558 32.125c-0.507-0.207-0.939-0.468-1.408-0.613-2.332-0.722-4.673-1.413-7.009-2.121-0.090-0.027-0.165-0.106-0.202-0.211 0.675-0.004 1.306 0.042 1.947 0.132 0.094 0.093 0.172 0.16 0.262 0.187 2.432 0.742 4.866 1.474 7.294 2.227 0.207 0.064 0.373 0.262 0.558 0.398-0.462 0-0.923 0-1.442 0z"></path>
<path fill="#fbcc6d" style="fill: var(--color7, #fbcc6d)" d="M20.057 32.125c-0.242-0.136-0.408-0.333-0.615-0.398-2.428-0.753-4.863-1.486-7.294-2.227-0.090-0.027-0.168-0.095-0.204-0.194 0.67-0.035 1.292-0.020 1.922 0.048 0.136 0.132 0.254 0.244 0.393 0.287 2.142 0.667 4.289 1.319 6.429 1.993 0.208 0.066 0.379 0.249 0.567 0.377 0 0-0.003 0.057-0.004 0.085-0.379 0.028-0.758 0.028-1.194 0.028z"></path>
<path fill="#e31807" style="fill: var(--color8, #e31807)" d="M0.125 15.625c0-0.462 0-0.923 0.047-1.437 0.967 0.194 1.888 0.441 2.817 0.744 0.003 0.519-0.003 0.98-0.057 1.441-0.967-0.25-1.887-0.499-2.807-0.748z"></path>
<path fill="#db1617" style="fill: var(--color9, #db1617)" d="M2.98 14.875c-0.92-0.247-1.84-0.493-2.808-0.745-0.047-0.343-0.047-0.68-0.002-1.079 0.262-0.053 0.488-0.084 0.692-0.031 0.71 0.186 1.412 0.401 2.126 0.657 0.003 0.226-0.004 0.401-0.028 0.587-0.006 0.044 0.006 0.076 0.028 0.158 0.003 0.184-0.003 0.318-0.009 0.453z"></path>
<path fill="#c21450" style="fill: var(--color10, #c21450)" d="M32.125 18.25c0 0.338 0 0.675-0.052 1.069-0.969-0.194-1.886-0.444-2.812-0.751-0.003-0.477 0.004-0.897 0.041-1.289 0.962 0.343 1.892 0.657 2.823 0.971z"></path>
<path fill="#d01530" style="fill: var(--color11, #d01530)" d="M32.125 21.075c-0.042 0.226-0.085 0.401-0.187 0.626-0.281 0.010-0.507-0.015-0.724-0.072-0.615-0.161-1.226-0.335-1.843-0.543-0.078-0.096-0.153-0.153-0.218-0.26 0.045-0.392 0.081-0.734 0.15-1.046 0.921 0.301 1.809 0.573 2.729 0.845 0.031 0 0.094 0 0.094 0 0 0.133 0 0.267 0 0.45z"></path>
<path fill="#9311b5" style="fill: var(--color12, #9311b5)" d="M31.979 10.501c0.020 0.155 0.039 0.309 0.102 0.482 0.043 0.232 0.043 0.446 0.001 0.696-1.007-0.244-1.972-0.523-2.946-0.858-0.003-0.352 0.003-0.648 0.060-0.945 0.232 0.026 0.416 0.038 0.593 0.080 0.731 0.177 1.46 0.363 2.19 0.545z"></path>
<path fill="#b6136a" style="fill: var(--color13, #b6136a)" d="M32.125 16.5c0 0.296 0 0.593-0.049 0.944-0.968-0.195-1.887-0.444-2.816-0.748-0.003-0.352 0.003-0.649 0.059-0.945 0.968 0.25 1.887 0.5 2.806 0.75z"></path>
<path fill="#f28846" style="fill: var(--color14, #f28846)" d="M0.273 22.248c-0.022-0.114-0.044-0.228-0.107-0.357-0.041-0.189-0.041-0.363 0.009-0.587 1.010 0.198 1.97 0.446 2.939 0.75 0.003 0.352-0.003 0.648-0.057 0.944-0.96-0.25-1.872-0.5-2.784-0.75z"></path>
<path fill="#eb4f23" style="fill: var(--color15, #eb4f23)" d="M0.125 18.875c0-0.255 0-0.511 0.053-0.82 0.496 0.041 0.937 0.147 1.383 0.228 0.471 0.085 0.946 0.145 1.428 0.272 0.003 0.394-0.002 0.732-0.056 1.069-0.968-0.25-1.888-0.499-2.808-0.748z"></path>
<path fill="#ee6933" style="fill: var(--color16, #ee6933)" d="M0.125 20.375c0-0.296 0-0.593 0.049-0.944 0.968 0.194 1.887 0.443 2.815 0.742 0.003 0.185-0.003 0.32-0.027 0.466-0.043 0.052-0.032 0.084 0.024 0.148 0.003 0.098-0.002 0.155-0.059 0.212-0.393-0.064-0.735-0.117-1.072-0.195-0.579-0.135-1.154-0.285-1.73-0.429z"></path>
<path fill="#9e109f" style="fill: var(--color17, #9e109f)" d="M32.125 12.375c0 0.296 0 0.593-0.052 0.944-0.617-0.094-1.178-0.268-1.75-0.383-0.341-0.069-0.701-0.044-1.062-0.117-0.003-0.394 0.003-0.731 0.057-1.068 0.926 0.208 1.804 0.415 2.714 0.623 0.031 0 0.093 0.001 0.093 0.001z"></path>
<path fill="#a41192" style="fill: var(--color18, #a41192)" d="M29.27 12.875c0.352 0.017 0.712-0.007 1.053 0.061 0.572 0.115 1.133 0.289 1.75 0.439 0.052 0.296 0.052 0.593 0.002 0.945-0.968-0.194-1.886-0.444-2.813-0.747-0.003-0.268 0.003-0.482 0.009-0.697z"></path>
<path fill="#d01531" style="fill: var(--color19, #d01531)" d="M0.125 12c0-0.42 0-0.841 0.034-1.288 0.194 0.16 0.318 0.442 0.52 0.517 0.617 0.23 1.261 0.394 1.903 0.552 0.113 0.028 0.264-0.099 0.407-0.099 0.003 0.436-0.003 0.816-0.035 1.195-0.026-0-0.078 0-0.105-0.036-0.926-0.304-1.825-0.573-2.723-0.841z"></path>
<path fill="#e73012" style="fill: var(--color20, #e73012)" d="M0.125 17c0-0.255 0-0.511 0.050-0.82 0.968 0.195 1.887 0.444 2.815 0.748 0.003 0.31-0.003 0.565-0.058 0.821-0.969-0.25-1.887-0.499-2.806-0.749z"></path>
<path fill="#f1793c" style="fill: var(--color21, #f1793c)" d="M0.125 20.43c0.577 0.089 1.151 0.239 1.73 0.374 0.337 0.078 0.679 0.131 1.081 0.247 0.097 0.35 0.133 0.649 0.168 0.948-0.96-0.249-1.92-0.497-2.93-0.747-0.050-0.256-0.050-0.512-0.050-0.821z"></path>
<path fill="#e93f1a" style="fill: var(--color22, #e93f1a)" d="M0.125 17.056c0.919 0.194 1.838 0.444 2.815 0.747 0.052 0.267 0.046 0.482 0.040 0.696-0.473-0.071-0.949-0.131-1.419-0.216-0.446-0.081-0.886-0.187-1.383-0.282-0.053-0.296-0.053-0.593-0.053-0.944z"></path>
<path fill="#aa1186" style="fill: var(--color23, #aa1186)" d="M29.271 13.625c0.918 0.25 1.836 0.5 2.804 0.75 0.050 0.296 0.050 0.593 0.005 0.94-0.967-0.238-1.888-0.526-2.818-0.869-0.003-0.31 0.003-0.565 0.009-0.82z"></path>
<path fill="#d41626" style="fill: var(--color24, #d41626)" d="M0.125 12.056c0.899 0.213 1.797 0.481 2.734 0.81 0.058 0.094 0.086 0.117 0.131 0.183 0.003 0.227-0.003 0.402-0.010 0.577-0.705-0.204-1.408-0.419-2.118-0.605-0.204-0.053-0.431-0.022-0.692-0.025-0.045-0.292-0.045-0.588-0.045-0.94z"></path>
<path fill="#9a10a8" style="fill: var(--color25, #9a10a8)" d="M32.001 12.374c-0.878-0.207-1.756-0.414-2.693-0.672-0.093-0.309-0.128-0.568-0.163-0.827 0.965 0.279 1.93 0.559 2.937 0.856 0.042 0.074 0.042 0.129 0.010 0.252-0.052 0.175-0.072 0.282-0.091 0.39z"></path>
<path fill="#bc135d" style="fill: var(--color26, #bc135d)" d="M29.269 16.75c0.919 0.249 1.838 0.499 2.807 0.749 0.049 0.215 0.049 0.429 0.049 0.697-0.93-0.261-1.861-0.575-2.832-0.967-0.035-0.212-0.029-0.346-0.024-0.479z"></path>
<path fill="#b21274" style="fill: var(--color27, #b21274)" d="M32.125 16.448c-0.919-0.198-1.837-0.448-2.814-0.75-0.052-0.226-0.047-0.399 0.010-0.573 0.969 0.25 1.887 0.5 2.805 0.75 0 0.174 0 0.347 0 0.573z"></path>
<path fill="#cb153b" style="fill: var(--color28, #cb153b)" d="M32 20.625c-0.888-0.272-1.776-0.544-2.706-0.898-0.035-0.297-0.029-0.512 0.008-0.697 0.093 0.111 0.141 0.243 0.219 0.265 0.865 0.245 1.735 0.472 2.603 0.705 0 0.056 0 0.111-0.033 0.234-0.053 0.175-0.072 0.283-0.092 0.391z"></path>
<path fill="#cb153b" style="fill: var(--color28, #cb153b)" d="M2.98 11.625c-0.134 0.056-0.285 0.183-0.398 0.155-0.642-0.157-1.286-0.321-1.903-0.552-0.202-0.075-0.326-0.358-0.52-0.575-0.034-0.029-0.034-0.092 0.017-0.123 0.591 0.111 1.126 0.278 1.673 0.385 0.368 0.072 0.753 0.059 1.139 0.135 0.003 0.226-0.002 0.399-0.008 0.573z"></path>
<path fill="#c61445" style="fill: var(--color29, #c61445)" d="M32.125 19.948c-0.869-0.18-1.738-0.408-2.603-0.653-0.078-0.022-0.126-0.154-0.228-0.312-0.035-0.171-0.029-0.265-0.024-0.359 0.917 0.25 1.835 0.5 2.803 0.75 0.052 0.174 0.052 0.347 0.052 0.573z"></path>
<path fill="#ae127c" style="fill: var(--color30, #ae127c)" d="M32.125 15.825c-0.918-0.2-1.836-0.45-2.814-0.752-0.053-0.226-0.047-0.4-0.041-0.574 0.921 0.289 1.842 0.577 2.809 0.871 0.046 0.138 0.046 0.271 0.046 0.455z"></path>
<path fill="#c61445" style="fill: var(--color29, #c61445)" d="M2.979 11c-0.377-0.025-0.762-0.012-1.13-0.084-0.547-0.107-1.082-0.274-1.673-0.416-0.051-0-0.051-0.063-0.051-0.094 0.043-0.167 0.085-0.302 0.184-0.483 0.939 0.205 1.822 0.456 2.699 0.753-0.014 0.139-0.021 0.231-0.029 0.324z"></path>
<path fill="#ed5c2b" style="fill: var(--color31, #ed5c2b)" d="M2.98 20.124c-0.919-0.249-1.838-0.498-2.806-0.748-0.049-0.134-0.049-0.268-0.049-0.451 0.92 0.199 1.84 0.448 2.817 0.74 0.051 0.1 0.046 0.156 0.021 0.224-0.025 0.023-0.041 0.041-0.037 0.046 0.014 0.022 0.035 0.041 0.060 0.093 0.003 0.053-0.002 0.075-0.006 0.096z"></path>
<path fill="#e52209" style="fill: var(--color32, #e52209)" d="M2.981 16.874c-0.919-0.249-1.837-0.498-2.806-0.748-0.050-0.134-0.050-0.268-0.050-0.451 0.92 0.199 1.839 0.448 2.816 0.748 0.051 0.184 0.045 0.317 0.039 0.451z"></path>
<path fill="#fbcf70" style="fill: var(--color33, #fbcf70)" d="M4.008 26.362c0.278 0.35 0.556 0.7 0.852 1.088-0.153 0.087-0.344 0.213-0.493 0.174-1.055-0.272-2.102-0.578-3.203-0.872-0.171-0.303-0.29-0.607-0.35-0.958 0.778 0.129 1.495 0.318 2.219 0.472 0.317 0.068 0.65 0.065 0.975 0.095z"></path>
<path fill="#f8b863" style="fill: var(--color34, #f8b863)" d="M15.002 29.27c0.919-0.006 1.839-0.011 2.825 0.035 0.22 0.141 0.364 0.259 0.529 0.313 0.524 0.173 1.056 0.323 1.585 0.48 1.314 0.391 2.633 0.768 3.939 1.185 0.235 0.075 0.417 0.315 0.624 0.479-0.55 0.077-1.1 0.154-1.733 0.191-0.236-0.137-0.377-0.273-0.544-0.324-1.833-0.559-3.675-1.092-5.504-1.663-0.589-0.184-1.148-0.461-1.721-0.696z"></path>
<path fill="#f6a054" style="fill: var(--color35, #f6a054)" d="M20.002 29.269c0.673-0.047 1.345-0.093 2.080-0.088 1.157 0.432 2.256 0.804 3.347 1.197 0.533 0.192 1.051 0.422 1.576 0.635-0.386 0.159-0.773 0.319-1.216 0.428-0.189-0.138-0.311-0.262-0.457-0.307-1.253-0.389-2.519-0.741-3.764-1.152-0.541-0.179-1.045-0.472-1.566-0.713z"></path>
<path fill="#f7ad5b" style="fill: var(--color36, #f7ad5b)" d="M19.944 29.261c0.579 0.25 1.082 0.543 1.624 0.721 1.246 0.412 2.511 0.764 3.764 1.152 0.146 0.045 0.268 0.169 0.41 0.299-0.372 0.134-0.753 0.226-1.186 0.323-0.258-0.158-0.44-0.398-0.675-0.473-1.306-0.417-2.625-0.794-3.939-1.185-0.529-0.158-1.061-0.307-1.585-0.48-0.165-0.054-0.309-0.173-0.47-0.305 0.661-0.049 1.331-0.055 2.059-0.052z"></path>
<path fill="#fac368" style="fill: var(--color37, #fac368)" d="M14.948 29.262c0.627 0.242 1.186 0.52 1.775 0.704 1.829 0.571 3.671 1.104 5.504 1.663 0.167 0.051 0.308 0.188 0.489 0.316-0.431 0.040-0.89 0.048-1.406 0.061-0.245-0.124-0.416-0.307-0.624-0.372-2.14-0.674-4.286-1.326-6.429-1.993-0.139-0.043-0.257-0.155-0.393-0.287 0.338-0.068 0.683-0.083 1.083-0.091z"></path>
<path fill="#f28846" style="fill: var(--color14, #f28846)" d="M23.628 29.022c0.505-0.092 1.009-0.184 1.594-0.243 1.051 0.307 2.025 0.571 2.989 0.867 0.201 0.062 0.364 0.243 0.545 0.369-0.222 0.152-0.444 0.305-0.755 0.472-1.406-0.371-2.726-0.751-4.040-1.152-0.131-0.040-0.223-0.205-0.334-0.313z"></path>
<path fill="#e31807" style="fill: var(--color8, #e31807)" d="M28.994 24.237c0.044-0.337 0.087-0.674 0.192-1.061 0.93 0.158 1.799 0.366 2.669 0.575-0.036 0.381-0.071 0.762-0.169 1.196-0.939-0.201-1.815-0.456-2.692-0.71z"></path>
<path fill="#ee6933" style="fill: var(--color16, #ee6933)" d="M26.492 28.112c0.263-0.205 0.526-0.409 0.86-0.584 0.286 0.097 0.504 0.155 0.716 0.231 0.689 0.248 1.376 0.503 2.064 0.755-0.181 0.236-0.362 0.471-0.624 0.703-0.72-0.2-1.367-0.375-1.997-0.6-0.355-0.127-0.68-0.335-1.019-0.506z"></path>
<path fill="#f4954e" style="fill: var(--color38, #f4954e)" d="M23.577 29.032c0.161 0.096 0.253 0.262 0.384 0.302 1.314 0.401 2.634 0.781 4.002 1.169-0.256 0.167-0.563 0.332-0.913 0.503-0.57-0.206-1.088-0.436-1.621-0.628-1.091-0.393-2.189-0.765-3.293-1.189 0.458-0.078 0.925-0.112 1.442-0.157z"></path>
<path fill="#f1793c" style="fill: var(--color21, #f1793c)" d="M26.451 28.131c0.379 0.153 0.704 0.361 1.059 0.488 0.63 0.225 1.277 0.4 1.96 0.617-0.185 0.262-0.412 0.503-0.677 0.761-0.219-0.109-0.383-0.29-0.583-0.352-0.964-0.296-1.938-0.56-2.938-0.872 0.36-0.233 0.749-0.428 1.179-0.643z"></path>
<path fill="#ec5728" style="fill: var(--color39, #ec5728)" d="M30.171 28.498c-0.727-0.235-1.414-0.489-2.103-0.738-0.211-0.076-0.429-0.135-0.673-0.238 0.197-0.357 0.423-0.676 0.689-0.968 0.083 0.117 0.108 0.266 0.171 0.284 0.834 0.233 1.673 0.448 2.511 0.668-0.005 0.021-0.010 0.042-0.050 0.109-0.062 0.076-0.080 0.11-0.087 0.15-0.14 0.238-0.28 0.477-0.459 0.733z"></path>
<path fill="#ea481f" style="fill: var(--color40, #ea481f)" d="M30.802 27.487c-0.875-0.201-1.714-0.416-2.548-0.649-0.062-0.017-0.087-0.167-0.133-0.304 0.097-0.244 0.196-0.44 0.354-0.613 0.601 0.209 1.152 0.374 1.681 0.591 0.301 0.123 0.567 0.333 0.849 0.503-0.055 0.151-0.111 0.302-0.203 0.471z"></path>
<path fill="#e73012" style="fill: var(--color20, #e73012)" d="M28.61 25.621c0.056-0.236 0.112-0.472 0.262-0.727 0.943 0.233 1.791 0.485 2.64 0.738-0.056 0.235-0.111 0.471-0.256 0.722-0.941-0.234-1.794-0.483-2.647-0.732z"></path>
<path fill="#dd1612" style="fill: var(--color41, #dd1612)" d="M31.864 23.7c-0.878-0.158-1.748-0.367-2.668-0.575-0.057-0.255-0.063-0.511-0.013-0.814 0.937 0.244 1.818 0.536 2.699 0.828-0.003 0.17-0.006 0.341-0.018 0.561z"></path>
<path fill="#d9151c" style="fill: var(--color42, #d9151c)" d="M31.927 23.112c-0.926-0.265-1.807-0.557-2.734-0.855-0.053-0.427-0.059-0.847-0.057-1.324 0.083 0 0.157 0.058 0.235 0.203 0.052 0.24 0.078 0.511 0.153 0.525 0.812 0.155 1.532 0.793 2.432 0.482 0.005 0.314 0.011 0.629-0.029 0.97z"></path>
<path fill="#e52209" style="fill: var(--color32, #e52209)" d="M31.552 25.61c-0.888-0.231-1.737-0.484-2.639-0.738-0.037-0.197-0.021-0.392 0.038-0.611 0.92 0.231 1.797 0.485 2.724 0.739 0.006 0.196-0.039 0.393-0.123 0.611z"></path>
<path fill="#d51624" style="fill: var(--color43, #d51624)" d="M31.949 22.134c-0.894 0.319-1.614-0.318-2.425-0.474-0.075-0.014-0.1-0.285-0.148-0.486 0.613 0.119 1.224 0.294 1.839 0.455 0.217 0.057 0.443 0.082 0.715 0.121 0.056 0.022 0.061 0.043 0.032 0.125-0.035 0.11-0.036 0.159-0.037 0.208 0 0 0.019 0.042 0.026 0.051z"></path>
<path fill="#e83b18" style="fill: var(--color44, #e83b18)" d="M28.575 25.634c0.887 0.236 1.74 0.485 2.641 0.741-0.012 0.204-0.072 0.401-0.171 0.619-0.321-0.149-0.587-0.358-0.888-0.482-0.529-0.217-1.080-0.382-1.643-0.61-0.005-0.112 0.011-0.184 0.062-0.268z"></path>
<path fill="#ea481f" style="fill: var(--color40, #ea481f)" d="M30.66 27.753c-0.023-0.028-0.006-0.063 0.046-0.108 0.011 0.021-0.002 0.059-0.046 0.108z"></path>
<path fill="#d9151c" style="fill: var(--color42, #d9151c)" d="M31.957 22.061c-0.032-0.027-0.031-0.077-0.004-0.154 0.030 0.025 0.034 0.079 0.004 0.154z"></path>
<path fill="#5652d0" style="fill: var(--color45, #5652d0)" d="M28.739 2.323c-0.071 0.062-0.172 0.126-0.246 0.104-2.058-0.624-4.113-1.256-6.167-1.892-0.11-0.034-0.205-0.118-0.316-0.222 2.211-0.114 4.307 0.299 6.186 1.551 0.186 0.124 0.351 0.279 0.543 0.458z"></path>
<path fill="#6b3bc8" style="fill: var(--color4, #6b3bc8)" d="M27.86 5.38c-0.485-0.43-0.97-0.859-1.473-1.328 0.444 0.040 0.917 0.078 1.364 0.206 1.063 0.304 2.113 0.651 3.217 0.983 0.167 0.263 0.287 0.524 0.357 0.832-0.332 0.006-0.619-0.017-0.897-0.080-0.858-0.196-1.712-0.408-2.568-0.614z"></path>
<path fill="#8221be" style="fill: var(--color46, #8221be)" d="M29.119 8.886c-0.082-0.426-0.164-0.852-0.203-1.327 1.008 0.198 1.974 0.444 2.939 0.69 0.046 0.382 0.092 0.765 0.082 1.198-0.69-0.122-1.321-0.309-1.96-0.464-0.278-0.067-0.572-0.068-0.858-0.099z"></path>
<path fill="#7233c5" style="fill: var(--color5, #7233c5)" d="M27.879 5.42c0.837 0.166 1.692 0.378 2.549 0.574 0.278 0.064 0.565 0.087 0.902 0.126 0.054-0.002 0.049 0.001 0.057 0.025 0.026 0.059 0.053 0.085 0.089 0.101 0.078 0.304 0.156 0.608 0.192 0.958-0.515-0.085-0.983-0.244-1.463-0.341-0.525-0.107-1.062-0.157-1.594-0.232-0.238-0.39-0.476-0.781-0.732-1.211z"></path>
<path fill="#7a2ac1" style="fill: var(--color47, #7a2ac1)" d="M28.617 6.679c0.526 0.027 1.063 0.077 1.588 0.184 0.48 0.097 0.948 0.256 1.472 0.387 0.099 0.299 0.147 0.599 0.187 0.949-0.974-0.195-1.939-0.442-2.953-0.692-0.129-0.263-0.208-0.522-0.294-0.829z"></path>
<path fill="#8c17ba" style="fill: var(--color48, #8c17ba)" d="M29.122 8.941c0.284-0.024 0.578-0.023 0.856 0.044 0.639 0.154 1.269 0.341 1.953 0.515 0.055 0.297 0.061 0.594 0.058 0.946-0.739-0.127-1.468-0.313-2.199-0.49-0.177-0.043-0.361-0.054-0.593-0.080-0.058-0.293-0.065-0.586-0.075-0.934z"></path>
<path fill="#6b3bc8" style="fill: var(--color4, #6b3bc8)" d="M31.478 6.215c-0.038 0.015-0.065-0.011-0.090-0.073 0.026-0.004 0.059 0.019 0.090 0.073z"></path>
<path fill="#f8b863" style="fill: var(--color34, #f8b863)" d="M3.478 24.999c0.12 0.305 0.239 0.609 0.319 0.956-1.088-0.246-2.137-0.535-3.186-0.823-0.037-0.175-0.075-0.35-0.107-0.616 0.282-0.075 0.565-0.093 0.832-0.035 0.717 0.155 1.428 0.343 2.141 0.518z"></path>
<path fill="#f6a054" style="fill: var(--color35, #f6a054)" d="M3.146 23.502c0.033 0.217 0.066 0.433 0.039 0.699-0.281 0.023-0.504 0.012-0.721-0.030-0.691-0.135-1.379-0.281-2.068-0.423-0.047-0.258-0.094-0.516-0.083-0.824 0.361 0.017 0.663 0.081 0.964 0.15 0.623 0.142 1.246 0.285 1.869 0.428z"></path>
<path fill="#f7ad5b" style="fill: var(--color36, #f7ad5b)" d="M0.388 23.799c0.697 0.091 1.385 0.238 2.076 0.372 0.217 0.042 0.441 0.053 0.714 0.078 0.139 0.22 0.225 0.44 0.305 0.705-0.719-0.13-1.429-0.318-2.146-0.473-0.267-0.058-0.55-0.040-0.834-0.013-0.046-0.177-0.085-0.398-0.115-0.669z"></path>
<path fill="#f4954e" style="fill: var(--color38, #f4954e)" d="M3.138 23.452c-0.615-0.093-1.237-0.236-1.861-0.378-0.301-0.068-0.603-0.133-0.955-0.2-0.056-0.175-0.062-0.349-0.058-0.575 0.921 0.198 1.833 0.448 2.793 0.698 0.056 0.135 0.064 0.27 0.081 0.455z"></path>
<path fill="#fac368" style="fill: var(--color37, #fac368)" d="M0.616 25.178c1.044 0.242 2.093 0.53 3.19 0.82 0.096 0.095 0.144 0.19 0.197 0.324-0.32 0.011-0.653 0.013-0.97-0.055-0.724-0.154-1.44-0.343-2.211-0.519-0.101-0.175-0.151-0.349-0.206-0.57z"></path>
<path fill="#7a2ac1" style="fill: var(--color47, #7a2ac1)" d="M16.616 2.937c-1.079 0.049-2.166 0.055-3.34 0.020-0.386-0.181-0.674-0.358-0.987-0.457-1.53-0.483-3.071-0.935-4.598-1.427-0.217-0.070-0.381-0.303-0.57-0.46 0.675-0.119 1.349-0.239 2.077-0.35 0.224 0.133 0.379 0.314 0.57 0.373 1.771 0.548 3.552 1.063 5.321 1.618 0.522 0.164 1.013 0.424 1.527 0.683z"></path>
<path fill="#8221be" style="fill: var(--color46, #8221be)" d="M7.069 0.618c0.24 0.152 0.404 0.385 0.621 0.455 1.527 0.492 3.068 0.944 4.598 1.427 0.313 0.099 0.601 0.276 0.929 0.448-0.975 0.079-1.977 0.126-3.046 0.121-0.13-0.098-0.186-0.164-0.257-0.186-1.337-0.415-2.678-0.815-4.010-1.244-0.239-0.077-0.441-0.266-0.661-0.404 0.591-0.204 1.183-0.409 1.825-0.618z"></path>
<path fill="#8c17ba" style="fill: var(--color48, #8c17ba)" d="M5.199 1.243c0.265 0.131 0.467 0.32 0.706 0.397 1.332 0.429 2.673 0.829 4.010 1.244 0.070 0.022 0.127 0.088 0.2 0.177-0.83 0.133-1.67 0.222-2.572 0.259-1.063-0.387-2.067-0.712-3.062-1.064-0.18-0.064-0.321-0.238-0.48-0.361 0.384-0.215 0.769-0.43 1.199-0.652z"></path>
<path fill="#9311b5" style="fill: var(--color12, #9311b5)" d="M3.958 1.899c0.201 0.119 0.342 0.293 0.522 0.357 0.995 0.352 1.999 0.677 3.010 1.055-0.413 0.216-0.836 0.389-1.349 0.547-1.154-0.34-2.217-0.665-3.28-0.989 0.352-0.322 0.704-0.644 1.097-0.969z"></path>
<path fill="#9d0fa0" style="fill: var(--color49, #9d0fa0)" d="M5.506 4.264c-0.307 0.321-0.615 0.642-0.981 0.94-0.926-0.547-1.855-0.853-2.878-0.827 0.214-0.322 0.428-0.645 0.732-0.986 1.103 0.279 2.115 0.575 3.128 0.872z"></path>
<path fill="#c21450" style="fill: var(--color10, #c21450)" d="M3.105 9.5c-0.001 0.358-0.001 0.716-0.046 1.102-0.927-0.223-1.81-0.474-2.74-0.726-0.047-0.401-0.046-0.8 0.037-1.203 0.971 0.274 1.86 0.55 2.749 0.827z"></path>
<path fill="#bb135f" style="fill: var(--color50, #bb135f)" d="M3.114 9.448c-0.898-0.225-1.787-0.502-2.714-0.804-0.026-0.299-0.013-0.572 0.095-0.871 0.976 0.225 1.855 0.476 2.735 0.727-0.036 0.299-0.071 0.597-0.116 0.948z"></path>
<path fill="#a41192" style="fill: var(--color18, #a41192)" d="M1.627 4.416c1.043-0.065 1.972 0.241 2.858 0.807-0.119 0.236-0.257 0.431-0.482 0.64-0.969-0.236-1.85-0.487-2.732-0.737 0.112-0.224 0.225-0.447 0.356-0.709z"></path>
<path fill="#aa1186" style="fill: var(--color23, #aa1186)" d="M1.251 5.166c0.902 0.209 1.783 0.46 2.714 0.712-0.050 0.239-0.148 0.476-0.337 0.73-0.941-0.235-1.792-0.487-2.643-0.739 0.082-0.221 0.164-0.442 0.265-0.703z"></path>
<path fill="#9910ab" style="fill: var(--color51, #9910ab)" d="M5.549 4.257c-1.055-0.29-2.068-0.587-3.133-0.885 0.089-0.158 0.23-0.315 0.408-0.487 1.1 0.309 2.163 0.634 3.27 0.978-0.138 0.142-0.32 0.265-0.545 0.395z"></path>
<path fill="#b6136a" style="fill: var(--color13, #b6136a)" d="M3.239 8.452c-0.889-0.203-1.768-0.453-2.701-0.706-0.037-0.193-0.021-0.384 0.088-0.599 0.939 0.272 1.784 0.568 2.629 0.864-0.002 0.131-0.005 0.262-0.016 0.441z"></path>
<path fill="#b21274" style="fill: var(--color27, #b21274)" d="M3.296 7.986c-0.886-0.271-1.731-0.567-2.629-0.864-0.015-0.18 0.023-0.358 0.131-0.578 0.292 0.001 0.527 0.013 0.735 0.093 0.621 0.236 1.232 0.499 1.847 0.751-0.015 0.191-0.029 0.382-0.084 0.599z"></path>
<path fill="#ae127c" style="fill: var(--color30, #ae127c)" d="M3.421 7.364c-0.655-0.229-1.266-0.491-1.887-0.728-0.209-0.079-0.443-0.091-0.714-0.135-0.003-0.197 0.043-0.393 0.128-0.611 0.89 0.231 1.741 0.483 2.643 0.738-0.009 0.239-0.069 0.476-0.169 0.736z"></path>
<path fill="#5652d0" style="fill: var(--color45, #5652d0)" d="M21.433 0.306c0.007-0.004-0.007 0.004 0 0z"></path>
<path fill="#e31807" style="fill: var(--color8, #e31807)" d="M2.961 14.264c0.018-0.011 0.034 0.049 0.026 0.079-0.020-0.002-0.032-0.035-0.026-0.079z"></path>
<path fill="#ed5c2b" style="fill: var(--color31, #ed5c2b)" d="M2.962 20.64c0.018-0.011 0.031 0.048 0.023 0.077-0.055 0.007-0.066-0.025-0.023-0.077z"></path>
<path fill="#db1617" style="fill: var(--color9, #db1617)" d="M2.954 12.877c0.026 0 0.042 0.060 0.034 0.090-0.043 0.016-0.071-0.007-0.101-0.065-0.011-0.025 0.041-0.026 0.067-0.025z"></path>
<path fill="#eb4f23" style="fill: var(--color15, #eb4f23)" d="M2.963 19.889c0.018-0.011 0.031 0.049 0.023 0.078-0.026 0.009-0.046-0.009-0.061-0.032-0.004-0.006 0.012-0.023 0.037-0.046z"></path>
<path fill="#e83103" style="fill: var(--color52, #e83103)" d="M20.879 22.763c-0.306 0.197-0.613 0.394-0.969 0.559-0.089-0.077-0.119-0.152-0.167-0.166-1.025-0.297-2.055-0.576-3.077-0.882-2.011-0.602-4.013-1.231-6.027-1.822-0.536-0.157-1.101-0.217-1.652-0.321-0.162-0.341-0.324-0.683-0.481-1.113 0.182-0.098 0.371-0.15 0.536-0.107 1.036 0.267 2.067 0.554 3.139 0.85 0.472 0.342 0.883 0.704 1.343 0.988 1.15 0.71 2.412 0.829 3.745 0.645 1.131 0.355 2.241 0.667 3.343 1.007 0.116 0.036 0.18 0.237 0.269 0.362z"></path>
<path fill="#aa1186" style="fill: var(--color23, #aa1186)" d="M11.994 9.112c0.323-0.169 0.646-0.338 1.056-0.498 0.256 0.088 0.418 0.19 0.595 0.243 1.584 0.477 3.168 0.959 4.759 1.413 1.49 0.425 2.989 0.818 4.483 1.225 0.204 0.345 0.408 0.691 0.567 1.082-0.228 0.024-0.418 0.027-0.591-0.025-1.118-0.337-2.229-0.695-3.348-1.026-0.29-0.086-0.602-0.099-0.933-0.149-0.029-0.003-0.083-0.023-0.1-0.047-0.046-0.052-0.081-0.069-0.17-0.078-0.719-0.176-1.39-0.348-2.071-0.565-0.574-0.258-1.135-0.482-1.703-0.686-0.846-0.304-1.696-0.593-2.544-0.889z"></path>
<path fill="#a41192" style="fill: var(--color18, #a41192)" d="M22.87 11.455c-1.478-0.368-2.977-0.761-4.467-1.186-1.591-0.454-3.174-0.936-4.759-1.413-0.177-0.053-0.339-0.155-0.554-0.261 0.366-0.173 0.779-0.319 1.276-0.425 0.405 0.104 0.734 0.143 1.046 0.237 1.647 0.499 3.288 1.019 4.936 1.514 0.463 0.139 0.944 0.218 1.416 0.324 0.363 0.391 0.726 0.781 1.105 1.211z"></path>
<path fill="#eb4602" style="fill: var(--color53, #eb4602)" d="M10.361 21.881c-0.322-0.349-0.644-0.698-0.931-1.088 0.117-0.037 0.205-0.050 0.282-0.027 2.968 0.887 5.935 1.774 8.899 2.675 0.15 0.045 0.263 0.21 0.393 0.319-0.424 0.122-0.849 0.244-1.35 0.333-1.275-0.41-2.469-0.797-3.67-1.16-1.204-0.364-2.414-0.703-3.622-1.053z"></path>
<path fill="#ea3c03" style="fill: var(--color54, #ea3c03)" d="M19.050 23.755c-0.176-0.104-0.29-0.269-0.439-0.314-2.964-0.901-5.931-1.788-8.899-2.675-0.077-0.023-0.165-0.010-0.3-0.012-0.166-0.181-0.279-0.363-0.409-0.584 0.535 0.065 1.1 0.125 1.636 0.282 2.014 0.591 4.017 1.22 6.027 1.822 1.022 0.306 2.053 0.585 3.077 0.882 0.048 0.014 0.078 0.089 0.125 0.182-0.252 0.169-0.513 0.29-0.819 0.417z"></path>
<path fill="#ed5103" style="fill: var(--color55, #ed5103)" d="M10.377 21.92c1.191 0.311 2.402 0.651 3.605 1.014 1.201 0.363 2.395 0.75 3.619 1.164-1.049 0.307-2.123 0.258-3.199 0.029-1.55-0.33-2.905-1.017-4.026-2.207z"></path>
<path fill="#9e109f" style="fill: var(--color17, #9e109f)" d="M21.747 10.206c-0.455-0.068-0.936-0.146-1.399-0.285-1.648-0.495-3.289-1.015-4.936-1.514-0.312-0.094-0.641-0.133-0.998-0.229 1.538-0.32 3.090-0.286 4.606 0.279 1.022 0.381 1.941 0.926 2.726 1.75z"></path>
<path fill="#e31807" style="fill: var(--color8, #e31807)" d="M8.146 18.124c-0.089-0.631-0.178-1.262-0.215-1.935 0.162 0.112 0.244 0.364 0.386 0.406 0.838 0.242 1.69 0.435 2.552 0.684 0.223 0.555 0.433 1.071 0.59 1.589-0.47-0.082-0.891-0.158-1.306-0.254-0.671-0.156-1.338-0.326-2.007-0.489z"></path>
<path fill="#e31807" style="fill: var(--color8, #e31807)" d="M22.765 20.88c-0.352 0.409-0.704 0.817-1.124 1.206-1.138-0.377-2.208-0.733-3.258-1.129 0.509-0.35 0.999-0.661 1.513-0.934 0.973 0.311 1.921 0.584 2.869 0.858z"></path>
<path fill="#8b18ba" style="fill: var(--color56, #8b18ba)" d="M26.479 7.75c-0.128 0.365-0.256 0.729-0.467 1.092-0.206-0.071-0.323-0.163-0.455-0.206-0.927-0.301-1.857-0.592-2.787-0.886 0.045-0.319 0.090-0.638 0.227-0.98 1.222 0.311 2.352 0.645 3.482 0.979z"></path>
<path fill="#8124be" style="fill: var(--color57, #8124be)" d="M26.488 7.697c-1.139-0.281-2.269-0.615-3.45-0.951 0.201-0.734 1.11-1.194 2.172-0.987 0.783 0.152 1.295 0.924 1.278 1.938z"></path>
<path fill="#db1617" style="fill: var(--color9, #db1617)" d="M10.855 17.239c-0.848-0.21-1.7-0.403-2.538-0.645-0.143-0.041-0.224-0.293-0.377-0.458-0.008-0.349 0.027-0.687 0.103-1.046 0.109 0.077 0.16 0.235 0.248 0.261 0.809 0.23 1.625 0.436 2.448 0.7 0.044 0.43 0.080 0.809 0.115 1.188z"></path>
<path fill="#db1617" style="fill: var(--color9, #db1617)" d="M22.803 20.862c-0.986-0.256-1.934-0.529-2.891-0.879 0.226-0.339 0.462-0.601 0.75-0.862 0.578 0.165 1.104 0.331 1.632 0.492 0.357 0.109 0.806 0.047 0.963 0.523-0.138 0.236-0.277 0.472-0.453 0.726z"></path>
<path fill="#bb135f" style="fill: var(--color50, #bb135f)" d="M9.396 11.501c0.257-0.327 0.513-0.654 0.835-0.96 0.747 0.242 1.439 0.437 2.105 0.698 0.253 0.099 0.448 0.348 0.653 0.566-0.252 0.217-0.488 0.396-0.767 0.558-0.971-0.299-1.898-0.58-2.826-0.861z"></path>
<path fill="#bb135f" style="fill: var(--color50, #bb135f)" d="M24.227 14.876c0.048 0.381 0.096 0.762 0.102 1.165-0.14-0.041-0.23-0.131-0.338-0.164-0.863-0.257-1.73-0.504-2.617-0.797-0.102-0.346-0.184-0.649-0.209-0.953 1.058 0.248 2.059 0.498 3.061 0.748z"></path>
<path fill="#c21450" style="fill: var(--color10, #c21450)" d="M9.377 11.54c0.946 0.242 1.873 0.523 2.827 0.861-0.172 0.322-0.37 0.588-0.618 0.851-0.94-0.295-1.831-0.589-2.722-0.882 0.165-0.263 0.33-0.527 0.513-0.83z"></path>
<path fill="#c21450" style="fill: var(--color10, #c21450)" d="M21.395 15.125c0.866 0.25 1.732 0.496 2.596 0.753 0.108 0.032 0.198 0.123 0.329 0.215-0.002 0.288-0.037 0.547-0.13 0.856-0.518-0.055-1.025-0.075-1.426-0.29-0.412-0.221-1.017-0.102-1.267-0.705-0.049-0.307-0.076-0.568-0.102-0.83z"></path>
<path fill="#d01530" style="fill: var(--color11, #d01530)" d="M23.98 18.25c-0.086 0.32-0.173 0.641-0.351 0.981-0.784-0.159-1.487-0.309-2.162-0.539-0.163-0.056-0.234-0.38-0.345-0.629 0.084-0.308 0.166-0.569 0.254-0.782 0.121 0.149 0.22 0.305 0.353 0.345 0.746 0.224 1.5 0.419 2.251 0.624z"></path>
<path fill="#9311b5" style="fill: var(--color12, #9311b5)" d="M22.762 7.798c0.938 0.246 1.868 0.537 2.795 0.838 0.132 0.043 0.249 0.135 0.415 0.224-0.423 0.657-1.093 0.759-1.777 0.597-0.817-0.194-1.313-0.759-1.433-1.659z"></path>
<path fill="#b21274" style="fill: var(--color27, #b21274)" d="M23.631 12.986c0.122 0.306 0.244 0.613 0.308 0.967-0.842-0.178-1.621-0.419-2.411-0.619-0.29-0.073-0.604-0.051-0.945-0.092-0.267-0.342-0.495-0.664-0.673-0.988 1.102 0.294 2.151 0.6 3.208 0.872 0.149 0.038 0.341-0.089 0.513-0.139z"></path>
<path fill="#b21274" style="fill: var(--color27, #b21274)" d="M10.87 9.862c0.141-0.115 0.283-0.229 0.488-0.322 0.234 0.087 0.402 0.158 0.575 0.215 1.105 0.368 2.211 0.733 3.269 1.109-0.386 0.095-0.723 0.181-1.105 0.248-0.847-0.263-1.657-0.488-2.45-0.764-0.282-0.098-0.52-0.321-0.777-0.487z"></path>
<path fill="#d41626" style="fill: var(--color24, #d41626)" d="M10.731 16c-0.814-0.213-1.63-0.42-2.44-0.649-0.089-0.025-0.139-0.184-0.239-0.313 0.003-0.211 0.038-0.389 0.126-0.593 0.472 0.078 0.89 0.191 1.312 0.284 0.463 0.101 0.931 0.184 1.392 0.326-0.053 0.349-0.102 0.647-0.151 0.945z"></path>
<path fill="#ae127c" style="fill: var(--color30, #ae127c)" d="M23.628 12.944c-0.17 0.092-0.361 0.22-0.51 0.181-1.057-0.272-2.105-0.578-3.247-0.888-0.48-0.296-0.871-0.576-1.261-0.857 0.302 0.047 0.614 0.060 0.904 0.146 1.119 0.331 2.231 0.689 3.348 1.026 0.173 0.052 0.363 0.049 0.598 0.070 0.090 0.093 0.128 0.187 0.168 0.323z"></path>
<path fill="#e62404" style="fill: var(--color58, #e62404)" d="M18.362 20.996c1.070 0.357 2.14 0.713 3.24 1.106-0.195 0.234-0.42 0.432-0.683 0.645-0.128-0.109-0.192-0.31-0.308-0.346-1.101-0.34-2.212-0.652-3.32-1.048 0.357-0.17 0.714-0.263 1.071-0.357z"></path>
<path fill="#b6136a" style="fill: var(--color13, #b6136a)" d="M20.621 13.262c0.303 0.021 0.617-0.001 0.907 0.072 0.79 0.2 1.569 0.441 2.402 0.666 0.137 0.261 0.226 0.521 0.305 0.829-1.010-0.203-2.012-0.452-3.108-0.72-0.232-0.294-0.369-0.571-0.506-0.847z"></path>
<path fill="#ae127c" style="fill: var(--color30, #ae127c)" d="M15.25 10.855c-1.106-0.366-2.212-0.731-3.317-1.099-0.173-0.057-0.341-0.129-0.537-0.231 0.153-0.158 0.333-0.279 0.556-0.406 0.891 0.289 1.742 0.579 2.587 0.883 0.568 0.204 1.129 0.428 1.652 0.695-0.341 0.088-0.641 0.124-0.941 0.16z"></path>
<path fill="#b6136a" style="fill: var(--color13, #b6136a)" d="M10.832 9.877c0.296 0.151 0.534 0.374 0.815 0.472 0.792 0.276 1.603 0.501 2.428 0.803-0.342 0.243-0.707 0.428-1.071 0.614-0.221-0.18-0.416-0.429-0.669-0.528-0.666-0.26-1.358-0.456-2.066-0.715 0.157-0.235 0.341-0.433 0.562-0.646z"></path>
<path fill="#e62404" style="fill: var(--color58, #e62404)" d="M8.15 18.17c0.665 0.118 1.332 0.288 2.003 0.444 0.415 0.096 0.835 0.172 1.303 0.255 0.049-0.002 0.051-0.008 0.059 0.020 0.025 0.065 0.052 0.091 0.106 0.147 0.185 0.262 0.352 0.485 0.52 0.709-1.033-0.281-2.064-0.568-3.1-0.835-0.165-0.042-0.354 0.010-0.539 0.061-0.121-0.223-0.235-0.49-0.352-0.802z"></path>
<path fill="#d01531" style="fill: var(--color19, #d01531)" d="M10.886 15.004c-0.466-0.091-0.933-0.173-1.396-0.275-0.422-0.092-0.84-0.205-1.302-0.33 0.026-0.284 0.096-0.547 0.227-0.833 0.571 0.151 1.071 0.361 1.593 0.485 0.363 0.087 0.755 0.057 1.127 0.126-0.087 0.307-0.167 0.567-0.247 0.826z"></path>
<path fill="#d51624" style="fill: var(--color43, #d51624)" d="M21.12 18.112c0.113 0.201 0.184 0.525 0.347 0.581 0.675 0.231 1.377 0.38 2.122 0.561-0.050 0.281-0.152 0.56-0.293 0.861-0.196-0.454-0.645-0.392-1.002-0.501-0.528-0.161-1.054-0.326-1.625-0.537 0.121-0.353 0.287-0.659 0.452-0.964z"></path>
<path fill="#cb153b" style="fill: var(--color28, #cb153b)" d="M24 18.207c-0.771-0.162-1.525-0.358-2.271-0.581-0.133-0.040-0.232-0.196-0.351-0.39 0.003-0.182 0.011-0.271 0.066-0.36 0.93 0.252 1.812 0.502 2.695 0.753-0.039 0.178-0.079 0.357-0.138 0.578z"></path>
<path fill="#cb153b" style="fill: var(--color28, #cb153b)" d="M11.14 14.13c-0.379-0.022-0.77 0.008-1.134-0.079-0.521-0.125-1.022-0.335-1.571-0.528 0.037-0.239 0.114-0.459 0.234-0.694 0.121 0.075 0.184 0.22 0.281 0.249 0.798 0.236 1.602 0.451 2.404 0.712-0.071 0.14-0.143 0.24-0.214 0.341z"></path>
<path fill="#c61445" style="fill: var(--color29, #c61445)" d="M24.18 17.605c-0.924-0.226-1.806-0.477-2.745-0.778-0.009-0.309 0.038-0.568 0.085-0.827 0.227 0.558 0.832 0.439 1.244 0.66 0.401 0.215 0.907 0.234 1.417 0.34 0.046 0.193 0.044 0.387-0.001 0.605z"></path>
<path fill="#c61445" style="fill: var(--color29, #c61445)" d="M11.354 13.75c-0.802-0.221-1.606-0.436-2.404-0.672-0.097-0.029-0.16-0.173-0.27-0.293 0.016-0.146 0.064-0.264 0.148-0.398 0.927 0.276 1.818 0.57 2.743 0.904-0.049 0.18-0.133 0.32-0.217 0.459z"></path>
<path fill="#ae127c" style="fill: var(--color30, #ae127c)" d="M18.481 11.329c-0.021 0.011-0.059-0.001-0.109-0.044 0.028-0.025 0.063-0.008 0.109 0.044z"></path>
<path fill="#e31807" style="fill: var(--color8, #e31807)" d="M11.515 18.889c0.027-0.004 0.063 0.019 0.094 0.076-0.041 0.016-0.069-0.011-0.094-0.076z"></path>
</symbol>
<symbol id="icon-youtube" viewBox="0 0 32 32">
<path fill="#f00" style="fill: var(--color59, #f00)" d="M0.125 16.375c0-0.133 0-0.267 0.052-0.428 0.101-0.259 0.177-0.488 0.193-0.721 0.133-1.931 0.222-3.867 0.391-5.795 0.122-1.386 0.684-2.629 1.955-3.279 0.768-0.393 1.699-0.551 2.574-0.634 2.356-0.224 4.721-0.479 7.084-0.49 4.107-0.018 8.215 0.104 12.32 0.241 1.342 0.045 2.707 0.196 4.006 0.52 1.183 0.295 2.051 1.203 2.397 2.374 0.559 1.892 0.725 3.866 0.764 5.832 0.057 2.89-0.010 5.77-0.452 8.649-0.39 2.541-1.735 3.818-4.058 4.089-1.736 0.202-3.488 0.29-5.235 0.384-1.448 0.078-2.899 0.119-4.348 0.124-1.116 0.004-2.232-0.084-3.349-0.113-1.887-0.050-3.775-0.051-5.66-0.139-1.518-0.071-3.046-0.149-4.543-0.391-1.576-0.255-2.795-1.169-3.184-2.768-0.346-1.422-0.492-2.898-0.64-4.359-0.090-0.886-0.006-1.79-0.028-2.684-0.003-0.139-0.155-0.274-0.239-0.411zM20.645 16.442c0.181-0.112 0.363-0.224 0.596-0.369-2.758-1.582-5.436-3.118-8.177-4.69 0 3.177 0 6.243 0 9.406 2.543-1.456 5.024-2.876 7.581-4.348z"></path>
<path fill="#fffafa" style="fill: var(--color60, #fffafa)" d="M20.606 16.468c-2.519 1.446-4.999 2.866-7.542 4.322 0-3.164 0-6.229 0-9.406 2.741 1.572 5.419 3.108 8.177 4.69-0.233 0.144-0.415 0.257-0.635 0.394z"></path>
</symbol>
<symbol id="icon-viber" viewBox="0 0 32 32">
<path fill="#4c4e9a" style="fill: var(--color61, #4c4e9a)" d="M29.514 20.882c-0.057 0.153-0.115 0.307-0.255 0.484-0.138 0.149-0.194 0.274-0.249 0.4 0 0-0.004-0.011-0.043-0.006-0.175 0.153-0.306 0.306-0.448 0.45-0.633 0.642-1.216 1.346-1.913 1.907-1.485 1.194-3.29 1.651-5.118 1.997-0.527 0.1-1.075 0.095-1.618 0.093-0.123-0.295-0.241-0.545-0.38-0.837-0.166 0.149-0.287 0.295-0.44 0.383-0.159 0.091-0.461 0.219-0.507 0.165-0.143-0.167-0.228-0.406-0.266-0.63-0.020-0.118 0.103-0.261 0.161-0.392 0.313-0.711 0.626-1.422 0.984-2.149 0.205-0.057 0.367-0.093 0.525-0.141 1.816-0.551 2.741-1.918 2.86-3.802 0.068-1.073-0.549-1.395-1.236-1.776 0.491-1.031 0.685-2.165 1.617-2.932 0.731 0.006 1.016-0.205 0.908-0.858-0.178-1.082-0.479-2.144-0.704-3.25 0.198 0.022 0.402 0.040 0.539 0.146 0.292 0.224 0.549 0.493 0.839 0.781 0.233 0.231 0.436 0.44 0.666 0.614 0.508 0.385 1.018 0.769 1.557 1.108 0.082 0.051 0.406-0.101 0.47-0.232 0.55-1.118 1.058-2.257 1.594-3.382 0.264-0.553 0.335-1.055-0.164-1.532-0.22-0.211-0.282-0.473 0.152-0.613 0.096 0.001 0.152 0 0.207-0 0.079 0.139 0.157 0.278 0.249 0.486 0.030 0.103 0.056 0.128 0.092 0.141 0.048 0.138 0.095 0.275 0.119 0.477 0.027 0.133 0.078 0.203 0.129 0.272 0.007 0.021 0.014 0.042 0.036 0.119 0.031 0.087 0.055 0.11 0.085 0.126 0.009 0.056 0.019 0.113 0.005 0.231 0.026 0.133 0.075 0.203 0.124 0.274 0.219 1.289 0.575 2.573 0.623 3.868 0.061 1.62-0.128 3.25-0.218 4.875-0.010 0.179-0.079 0.355-0.156 0.6-0.062 0.098-0.079 0.132-0.085 0.172-0.002 0.091-0.003 0.181-0.058 0.325-0.224 0.595-0.395 1.137-0.565 1.678 0 0-0.005 0.055-0.051 0.086-0.053 0.113-0.059 0.195-0.066 0.277z"></path>
<path fill="#6b6dad" style="fill: var(--color62, #6b6dad)" d="M1.768 17.751c-0.090-1.543-0.272-3.088-0.247-4.63 0.039-2.464 0.519-4.846 1.863-6.974 1.052-1.666 2.556-2.792 4.372-3.5 1.631-0.636 3.331-0.973 5.085-1.012 1.844-0.041 3.69-0.165 5.531-0.11 2.359 0.071 4.706 0.379 6.858 1.429 1.036 0.506 2.054 1.11 2.724 2.13-0.095 0.046-0.15 0.045-0.223 0.007-1.101-1.132-2.428-1.817-3.903-2.343-2.050-0.65-4.118-0.816-6.261-0.871-0.77-0.001-1.481-0-2.25-0.001-1.903-0.054-3.712 0.217-5.265 0.474-0.787 1.744-1.487 3.295-2.186 4.841 0.157 0.146 0.287 0.268 0.399 0.425-1.012 0.98-1.493 2.137-1.5 3.509-0.615-0.24-0.887 0.020-1.115 0.539-0.319 0.726-0.73 1.41-1.089 2.119-0.083 0.164-0.106 0.358-0.18 0.528-0.166 0.383-0.342 0.762-0.522 1.139-0.079 0.165-0.19 0.314-0.264 0.48-0.312 0.693-0.617 1.389-0.897 2.022-0.422-0.092-0.676-0.147-0.93-0.202z"></path>
<path fill="#5b5ca4" style="fill: var(--color63, #5b5ca4)" d="M8.27 29.379c-0.048-0.815-0.101-1.631-0.14-2.446-0.017-0.351-0.003-0.703-0.005-1.16-0.121-0.248-0.219-0.417-0.363-0.527-0.194-0.148-0.422-0.249-0.596-0.392 0.197-0.375 0.344-0.734 0.515-1.082 0.427-0.868 0.856-1.735 1.299-2.594 0.507-0.984 1.030-1.96 1.587-2.933 0.8 0.667 1.558 1.327 2.317 2.031 0.54 0.646 1.079 1.247 1.617 1.901-0.043 0.294-0.040 0.557-0.137 0.776-0.537 1.211-1.111 2.406-1.648 3.617-0.504 1.137-0.978 2.287-1.487 3.472-0.328 0.138-0.63 0.252-0.941 0.331-0.728 0.184-1.221-0.348-1.802-0.614 0 0 0.009-0.004 0-0.027-0.027-0.060-0.054-0.086-0.092-0.102 0 0-0.019-0.054-0.030-0.111-0.029-0.095-0.056-0.122-0.094-0.139z"></path>
<path fill="#6365a9" style="fill: var(--color64, #6365a9)" d="M1.779 17.799c0.243 0.008 0.497 0.063 0.919 0.154 0.28-0.633 0.584-1.33 0.897-2.022 0.075-0.166 0.186-0.315 0.264-0.48 0.18-0.377 0.356-0.756 0.522-1.139 0.074-0.17 0.097-0.364 0.18-0.528 0.36-0.708 0.771-1.393 1.089-2.119 0.228-0.519 0.5-0.78 1.13-0.489 0.22 0.608 0.327 1.189 0.551 1.719 0.362 0.857 0.802 1.682 1.188 2.566-0.094 0.177-0.166 0.309-0.306 0.567 0.292-0.059 0.456-0.092 0.626-0.125 0.007-0 0.021-0.001-0.005 0.050-0.204 0.641-0.351 1.243-0.569 1.817-0.193 0.507-0.463 0.985-0.703 1.473-0.090 0.182-0.185 0.362-0.286 0.539-0.212 0.373-0.451 0.732-0.637 1.117-0.314 0.649-0.573 1.326-0.907 1.963-0.083 0.158-0.358 0.257-0.562 0.297-0.213 0.042-0.446-0.020-0.689-0.074-0.22-0.177-0.422-0.317-0.624-0.457-0.042-0.002-0.075-0.020-0.104-0.13-0.094-0.172-0.181-0.27-0.268-0.368 0 0 0.009-0.003 0-0.027-0.027-0.060-0.055-0.087-0.093-0.102-0.811-1.171-1.255-2.485-1.52-3.87-0.019-0.097-0.055-0.192-0.094-0.335z"></path>
<path fill="#50529c" style="fill: var(--color65, #50529c)" d="M27.75 5.13c0.055 0 0.11 0.001 0.206-0.001 0.077 0.020 0.112 0.042 0.156 0.14 0.135 0.211 0.262 0.346 0.388 0.482 0.034 0.023 0.069 0.046 0.112 0.143 0.092 0.169 0.176 0.264 0.259 0.359 0.038 0.058 0.077 0.115 0.121 0.257 0.007 0.178 0.008 0.272 0.009 0.366-0.392 0.14-0.331 0.403-0.11 0.614 0.499 0.478 0.428 0.979 0.164 1.532-0.536 1.125-1.044 2.264-1.594 3.382-0.064 0.131-0.388 0.284-0.47 0.232-0.538-0.338-1.049-0.723-1.557-1.108-0.23-0.174-0.433-0.383-0.621-0.618 0.226-0.212 0.512-0.341 0.611-0.557 0.795-1.732 1.555-3.479 2.326-5.222z"></path>
<path fill="#5557a1" style="fill: var(--color66, #5557a1)" d="M11.25 30c0.487-1.144 0.961-2.294 1.465-3.431 0.537-1.211 1.111-2.406 1.648-3.617 0.097-0.219 0.094-0.482 0.175-0.757 0.71 0.757 1.401 1.534 2.039 2.35 0.131 0.167 0.162 0.531 0.071 0.727-0.201 0.435-0.509 0.821-0.829 1.226-0.352 0-0.648 0-0.963-0.028-0.089-0.009-0.16 0.010-0.27 0.048-0.178 0.262-0.317 0.505-0.456 0.749-0.098 0.112-0.195 0.224-0.374 0.352-0.18 0.185-0.278 0.353-0.376 0.522-0.179 0.195-0.359 0.389-0.619 0.601-0.313 0.207-0.55 0.392-0.776 0.589-0.25 0.217-0.49 0.446-0.735 0.67z"></path>
<path fill="#5f62a7" style="fill: var(--color67, #5f62a7)" d="M4.5 23.125c0.224 0.017 0.458 0.078 0.671 0.037 0.204-0.040 0.479-0.139 0.562-0.297 0.334-0.638 0.593-1.314 0.907-1.963 0.186-0.385 0.425-0.744 0.637-1.117 0.1-0.177 0.196-0.357 0.286-0.539 0.24-0.489 0.511-0.966 0.703-1.473 0.218-0.574 0.365-1.176 0.602-1.79 0.379 0.48 0.7 0.985 1.002 1.53-0.508 0.959-1.028 1.862-1.477 2.8-0.423 0.884-0.745 1.816-1.164 2.702-0.189 0.399-0.508 0.737-0.685 0.987-0.391 0-0.655 0-0.962-0.005-0.354-0.166-0.665-0.328-0.975-0.489-0.042-0.003-0.074-0.022-0.102-0.13-0.005-0.132-0.004-0.192-0.003-0.252z"></path>
<path fill="#44478f" style="fill: var(--color68, #44478f)" d="M19.875 26.251c0.538-0.043 1.086-0.038 1.613-0.138 1.828-0.347 3.633-0.803 5.118-1.997 0.698-0.561 1.281-1.265 1.913-1.907 0.141-0.143 0.273-0.296 0.453-0.447-0.429 1.111-1.275 1.907-2.218 2.61-1.806 1.346-3.887 1.922-6.094 2.129-0.47 0.044-0.94 0.084-1.508 0.122-0.158-0.085-0.218-0.166-0.228-0.248 0.35-0.042 0.65-0.083 0.95-0.123z"></path>
<path fill="#505298" style="fill: var(--color69, #505298)" d="M11.228 30.041c0.267-0.264 0.507-0.493 0.757-0.71 0.226-0.197 0.463-0.381 0.739-0.573-0.657 0.904-1.215 2.001-2.603 1.991-0.702-0.005-1.25-0.299-1.628-0.948 0.573 0.223 1.066 0.754 1.794 0.571 0.311-0.078 0.613-0.192 0.941-0.331z"></path>
<path fill="#4c4e95" style="fill: var(--color70, #4c4e95)" d="M18.875 26.375c0.060 0.081 0.12 0.162 0.222 0.249-0.148 0.046-0.336 0.118-0.525 0.119-1.193 0.010-2.386 0.004-3.638-0.043-0.059-0.098-0.059-0.15-0.059-0.201 0.296 0 0.593 0 0.998 0 1.074-0.042 2.038-0.083 3.002-0.125z"></path>
<path fill="#595b9c" style="fill: var(--color71, #595b9c)" d="M4.625 23.545c0.291 0.123 0.602 0.285 0.975 0.489 0.55 0.309 1.038 0.575 1.525 0.841 0.213 0.121 0.442 0.223 0.635 0.371 0.144 0.11 0.243 0.279 0.361 0.47-0.963-0.499-1.931-1.037-2.884-1.6-0.224-0.133-0.397-0.352-0.613-0.57z"></path>
<path fill="#44478f" style="fill: var(--color68, #44478f)" d="M29.672 20.495c0.131-0.518 0.301-1.060 0.515-1.61-0.13 0.523-0.302 1.055-0.515 1.61z"></path>
<path fill="#595b9c" style="fill: var(--color71, #595b9c)" d="M4.482 23.087c0.018 0.098 0.017 0.157 0.014 0.262-0.208-0.182-0.414-0.408-0.629-0.676 0.193 0.097 0.395 0.237 0.615 0.415z"></path>
<path fill="#4c4e95" style="fill: var(--color70, #4c4e95)" d="M14.167 27.25c0.103-0.226 0.242-0.469 0.42-0.687 0.041 0.084 0.043 0.143 0.044 0.202-0.143 0.156-0.286 0.311-0.465 0.485z"></path>
<path fill="#6b6dad" style="fill: var(--color62, #6b6dad)" d="M28.498 5.708c-0.124-0.093-0.25-0.229-0.376-0.409 0.125 0.092 0.249 0.23 0.376 0.409z"></path>
<path fill="#4c4e95" style="fill: var(--color70, #4c4e95)" d="M13.418 28.123c0.060-0.15 0.158-0.319 0.303-0.49-0.057 0.155-0.161 0.313-0.303 0.49z"></path>
<path fill="#53559d" style="fill: var(--color72, #53559d)" d="M14.672 26.76c-0.043-0.053-0.044-0.112-0.047-0.216 0.071-0.063 0.142-0.082 0.231-0.073 0.018 0.080 0.018 0.131 0.019 0.221-0.054 0.046-0.108 0.054-0.203 0.067z"></path>
<path fill="#44478f" style="fill: var(--color68, #44478f)" d="M29.047 21.748c0.018-0.108 0.074-0.233 0.175-0.363-0.016 0.112-0.077 0.229-0.175 0.363z"></path>
<path fill="#595b9c" style="fill: var(--color71, #595b9c)" d="M3.493 22.173c0.080 0.057 0.167 0.155 0.253 0.3-0.083-0.055-0.164-0.157-0.253-0.3z"></path>
<path fill="#6b6dad" style="fill: var(--color62, #6b6dad)" d="M29.043 6.875c-0.042-0.095-0.043-0.189-0.043-0.33 0.083 0.051 0.166 0.149 0.249 0.288-0.054 0.042-0.109 0.042-0.206 0.041z"></path>
<path fill="#6b6dad" style="fill: var(--color62, #6b6dad)" d="M28.871 6.21c-0.083-0.054-0.166-0.149-0.249-0.288 0.083 0.053 0.166 0.15 0.249 0.288z"></path>
<path fill="#44478f" style="fill: var(--color68, #44478f)" d="M29.548 20.864c-0.027-0.065-0.020-0.147 0.023-0.234 0.028 0.069 0.020 0.143-0.023 0.234z"></path>
<path fill="#50529c" style="fill: var(--color65, #50529c)" d="M30.1 8.964c-0.058-0.033-0.108-0.104-0.129-0.194 0.065 0.039 0.102 0.098 0.129 0.194z"></path>
<path fill="#50529c" style="fill: var(--color65, #50529c)" d="M29.849 8.213c-0.060-0.031-0.111-0.101-0.136-0.19 0.066 0.038 0.106 0.095 0.136 0.19z"></path>
<path fill="#505298" style="fill: var(--color69, #505298)" d="M8.393 29.661c0.039-0.017 0.067 0.010 0.093 0.075-0.026 0.004-0.060-0.019-0.093-0.075z"></path>
<path fill="#505298" style="fill: var(--color69, #505298)" d="M8.268 29.412c0.040-0.016 0.067 0.011 0.093 0.078-0.026 0.004-0.060-0.021-0.093-0.078z"></path>
<path fill="#6b6dad" style="fill: var(--color62, #6b6dad)" d="M29.598 7.471c-0.043 0.018-0.070-0.006-0.092-0.068 0.029-0.006 0.064 0.015 0.092 0.068z"></path>
<path fill="#50529c" style="fill: var(--color65, #50529c)" d="M29.967 8.466c-0.037 0.013-0.060-0.010-0.085-0.064 0.036-0.023 0.069-0.004 0.085 0.064z"></path>
<path fill="#595b9c" style="fill: var(--color71, #595b9c)" d="M3.392 22.036c0.039-0.017 0.067 0.009 0.094 0.075-0.026 0.005-0.060-0.019-0.094-0.075z"></path>
<path fill="#44478f" style="fill: var(--color68, #44478f)" d="M30.284 18.503c-0.023-0.027-0.006-0.061 0.045-0.107 0.011 0.020-0.003 0.058-0.045 0.107z"></path>
<path fill="#fefefe" style="fill: var(--color73, #fefefe)" d="M9.888 17.471c-0.321-0.504-0.642-1.009-0.995-1.54-0.032-0.028-0.046-0.027-0.050-0.065-0.103-0.175-0.202-0.312-0.302-0.449-0.407-0.839-0.847-1.663-1.209-2.521-0.224-0.531-0.331-1.111-0.506-1.719-0.054-1.422 0.428-2.579 1.479-3.581 0.411-0.257 0.744-0.511 1.121-0.647 1.29-0.463 2.379-0.173 2.918 0.75 0.004 0.021 0.036 0.051 0.042 0.094 0.31 0.659 0.6 1.282 0.924 1.886s0.314 1.213 0.012 1.794c-0.228 0.438-0.565 0.818-0.825 1.242-0.093 0.151-0.191 0.391-0.134 0.526 0.516 1.226 1.232 2.308 2.395 3.090 0.214 0.159 0.405 0.283 0.594 0.41 0.709 0.478 1.326 0.698 2.096-0.052 0.782-0.762 1.781-0.9 2.792-0.257 0.398 0.253 0.853 0.416 1.282 0.619 0.735 0.355 1.352 0.677 1.284 1.75-0.119 1.884-1.044 3.252-2.86 3.802-0.158 0.048-0.32 0.083-0.582 0.135-1.657 0.141-2.969-0.558-4.277-1.239-0.752-0.391-1.471-0.844-2.205-1.269-0.758-0.66-1.516-1.32-2.322-2.030-0.256-0.277-0.463-0.503-0.671-0.73z"></path>
<path fill="#5456a0" style="fill: var(--color74, #5456a0)" d="M27.732 5.091c-0.753 1.781-1.513 3.529-2.308 5.26-0.099 0.216-0.385 0.345-0.629 0.519-0.316-0.246-0.573-0.515-0.865-0.739-0.137-0.105-0.341-0.123-0.572-0.175-0.619-0.772-1.181-1.55-1.705-2.346 0.273-0.689 0.455-1.384 0.756-2.024 0.392-0.832 0.88-1.619 1.32-2.429 0.067-0.124 0.099-0.267 0.148-0.402 1.427 0.518 2.754 1.203 3.855 2.335z"></path>
<path fill="#53559d" style="fill: var(--color72, #53559d)" d="M21.569 17.026c-0.477-0.178-0.933-0.34-1.331-0.593-1.012-0.644-2.010-0.506-2.792 0.257-0.77 0.75-1.386 0.53-2.096 0.052-0.189-0.127-0.38-0.251-0.589-0.467 0.186-0.749 0.376-1.413 0.601-2.065 0.238-0.691 0.508-1.371 0.81-2.063 0.857 0.101 1.184 0.611 1.326 1.376 0.043 0.233 0.405 0.535 0.654 0.571 0.399 0.057 0.644-0.269 0.615-0.683-0.024-0.348-0.119-0.692-0.137-1.035 0.395 0.278 0.744 0.554 1.108 0.842 0.099-0.118 0.198-0.237 0.32-0.312 0.035 0.207 0.044 0.371 0.059 0.535 0.040 0.437 0.273 0.705 0.719 0.671 0.453-0.034 0.687-0.376 0.599-0.779-0.189-0.87-0.46-1.723-0.653-2.579 0.369 0.206 0.69 0.413 1.018 0.607 0.232 0.138 0.475 0.259 0.738 0.429 0.093 0.506 0.132 0.977 0.238 1.433 0.070 0.299 0.235 0.576 0.358 0.863-0.882 0.776-1.077 1.91-1.567 2.941z"></path>
<path fill="#fafafc" style="fill: var(--color75, #fafafc)" d="M23.186 14.094c-0.172-0.295-0.338-0.572-0.408-0.871-0.106-0.456-0.145-0.927-0.238-1.481-0.397-1.386-1.063-2.491-2.16-3.36-1.131-0.966-2.413-1.448-3.858-1.56-0.344-0.027-0.674-0.225-1.033-0.384-0.24-0.501-0.024-0.766 0.444-0.943 2.23-0.073 4.062 0.75 5.682 2.135 0.562 0.778 1.124 1.556 1.718 2.363 0.282 1.099 0.583 2.161 0.762 3.244 0.108 0.653-0.178 0.864-0.908 0.858z"></path>
<path fill="#53559d" style="fill: var(--color72, #53559d)" d="M12.883 20.276c0.732 0.381 1.452 0.834 2.203 1.225 1.309 0.681 2.62 1.38 4.233 1.255-0.256 0.716-0.569 1.427-0.882 2.138-0.058 0.132-0.181 0.274-0.161 0.392 0.038 0.223 0.123 0.463 0.266 0.63 0.046 0.054 0.348-0.074 0.507-0.165 0.154-0.088 0.274-0.234 0.44-0.383 0.138 0.292 0.257 0.542 0.38 0.837-0.295 0.086-0.594 0.127-0.945 0.169-1.015 0.043-1.979 0.084-2.997 0.125 0.211-0.406 0.518-0.791 0.72-1.226 0.091-0.196 0.060-0.56-0.071-0.727-0.638-0.817-1.329-1.593-2.039-2.402-0.577-0.62-1.115-1.222-1.656-1.868zM17.011 25.819c0.055 0.084 0.111 0.168 0.166 0.252 0.058-0.094 0.116-0.187 0.174-0.281-0.105-0.019-0.21-0.037-0.34 0.029z"></path>
<path fill="#6365a9" style="fill: var(--color64, #6365a9)" d="M12.341 7.678c-0.535-0.902-1.624-1.192-2.914-0.729-0.376 0.135-0.71 0.39-1.102 0.611-0.17-0.101-0.3-0.222-0.457-0.369 0.698-1.547 1.398-3.097 2.186-4.841 1.553-0.257 3.362-0.528 5.264-0.423 0.014 0.271 0.011 0.51-0.079 0.709-0.583 1.281-1.216 2.541-1.768 3.836-0.241 0.566-0.493 1.045-1.129 1.206z"></path>
<path fill="#5b5da4" style="fill: var(--color76, #5b5da4)" d="M21.652 7.611c-1.657-1.367-3.489-2.19-5.711-2.161 0.184-0.32 0.47-0.569 0.638-0.882 0.353-0.653 0.658-1.334 0.951-2.017 0.086-0.201 0.067-0.448 0.096-0.673 2.084 0.054 4.152 0.22 6.202 0.87 0 0.142-0.032 0.285-0.099 0.409-0.44 0.81-0.929 1.597-1.32 2.429-0.301 0.64-0.483 1.335-0.756 2.024z"></path>
<path fill="#5f61a6" style="fill: var(--color77, #5f61a6)" d="M17.568 1.877c0.030 0.227 0.049 0.473-0.037 0.674-0.293 0.683-0.598 1.364-0.951 2.017-0.169 0.312-0.455 0.561-0.696 0.883-0.419 0.22-0.635 0.485-0.412 1.027-0.446 0.937-0.896 1.792-1.384 2.629-0.286-0.259-0.518-0.52-0.787-0.734-0.289-0.23-0.612-0.417-0.92-0.623 0 0-0.032-0.029-0.036-0.051 0.632-0.183 0.884-0.662 1.125-1.228 0.552-1.295 1.185-2.554 1.768-3.836 0.091-0.199 0.094-0.437 0.138-0.708 0.711-0.051 1.422-0.051 2.192-0.051z"></path>
<path fill="#5f61a6" style="fill: var(--color77, #5f61a6)" d="M9.87 17.512c0.226 0.186 0.433 0.413 0.647 0.683-0.509 1.023-1.031 1.999-1.538 2.983-0.443 0.86-0.873 1.726-1.299 2.594-0.171 0.347-0.317 0.707-0.515 1.082-0.527-0.245-1.014-0.511-1.521-0.816 0.244-0.038 0.507-0.038 0.899-0.038 0.177-0.25 0.496-0.588 0.685-0.987 0.42-0.886 0.741-1.818 1.164-2.702 0.449-0.937 0.97-1.841 1.477-2.8z"></path>
<path fill="#5f62a7" style="fill: var(--color67, #5f62a7)" d="M8.52 15.462c0.121 0.092 0.22 0.229 0.316 0.404-0.167 0.071-0.33 0.104-0.623 0.163 0.141-0.258 0.213-0.389 0.306-0.567z"></path>
<path fill="#595b9c" style="fill: var(--color71, #595b9c)" d="M12.386 7.794c0.302 0.162 0.626 0.349 0.915 0.579 0.269 0.215 0.501 0.476 0.805 0.772 0.586 0.618 1.117 1.18 1.622 1.781-0.423 0.667-0.319 0.959 0.398 1.229-0.256 0.685-0.526 1.365-0.764 2.057-0.224 0.652-0.415 1.316-0.625 2.031-1.143-0.692-1.859-1.773-2.375-2.999-0.057-0.135 0.042-0.376 0.134-0.526 0.26-0.424 0.597-0.804 0.825-1.242 0.303-0.581 0.313-1.189-0.012-1.794s-0.613-1.227-0.924-1.886z"></path>
<path fill="#5d5fa5" style="fill: var(--color78, #5d5fa5)" d="M15.754 10.886c-0.531-0.562-1.062-1.124-1.611-1.724 0.432-0.892 0.882-1.747 1.35-2.644 0.354 0.078 0.685 0.276 1.029 0.303 1.445 0.112 2.727 0.595 3.849 1.612-0.137 0.463-0.201 0.907-0.755 0.974-0.901-0.7-1.876-1.127-2.976-1.253-0.703-0.081-1.209 0.156-1.265 0.586-0.058 0.444 0.313 0.691 1.128 0.754 1.798 0.137 3.339 1.607 3.532 3.369-0.099 0.118-0.198 0.236-0.297 0.355-0.365-0.288-0.714-0.563-1.136-0.87-0.78-1.202-1.765-1.709-2.849-1.46z"></path>
<path fill="#fafafc" style="fill: var(--color75, #fafafc)" d="M20.059 12.905c-0.216-1.804-1.757-3.274-3.555-3.411-0.816-0.062-1.186-0.31-1.128-0.754 0.056-0.43 0.562-0.666 1.265-0.586 1.1 0.126 2.074 0.553 2.994 1.292 0.406 0.468 0.755 0.885 1.104 1.303 0.238 0.86 0.509 1.712 0.698 2.583 0.087 0.403-0.146 0.744-0.599 0.779-0.446 0.034-0.679-0.234-0.719-0.671-0.015-0.164-0.024-0.329-0.059-0.535z"></path>
<path fill="#fafafc" style="fill: var(--color75, #fafafc)" d="M15.728 10.925c1.111-0.287 2.095 0.22 2.83 1.419 0.091 0.374 0.186 0.718 0.21 1.066 0.029 0.414-0.216 0.74-0.615 0.683-0.249-0.035-0.611-0.338-0.654-0.571-0.142-0.765-0.469-1.275-1.326-1.376-0.763-0.262-0.867-0.554-0.444-1.222z"></path>
<path fill="#585aa2" style="fill: var(--color79, #585aa2)" d="M20.784 10.754c-0.394-0.421-0.743-0.839-1.11-1.295 0.497-0.118 0.561-0.562 0.717-0.99 1.086 0.784 1.752 1.888 2.124 3.233-0.239-0.080-0.481-0.202-0.713-0.34-0.328-0.195-0.649-0.402-1.018-0.607z"></path>
<path fill="#5557a1" style="fill: var(--color66, #5557a1)" d="M17.023 25.776c0.118-0.024 0.223-0.005 0.328 0.014-0.058 0.094-0.116 0.187-0.174 0.281-0.055-0.084-0.111-0.168-0.154-0.295z"></path>
</symbol>
<symbol id="icon-telegram" viewBox="0 0 32 32">
<path fill="#0188cc" style="fill: var(--color80, #0188cc)" d="M32.125 15.125c0 0.628 0 1.256-0.048 1.965-0.14 0.793-0.191 1.511-0.331 2.212-0.809 4.049-2.917 7.285-6.226 9.729-2.079 1.535-4.409 2.503-6.983 2.851-0.473 0.064-0.941 0.161-1.411 0.243-0.628 0-1.256 0-1.965-0.048-0.552-0.099-1.022-0.139-1.49-0.202-3.033-0.412-5.697-1.68-7.989-3.662-2.557-2.211-4.265-4.988-5.055-8.296-0.191-0.8-0.335-1.611-0.501-2.417 0-0.878 0-1.755 0.047-2.714 0.098-0.425 0.151-0.769 0.201-1.113 0.419-2.869 1.571-5.405 3.407-7.651 2.254-2.757 5.111-4.538 8.553-5.395 0.798-0.199 1.611-0.336 2.417-0.502 0.878 0 1.755 0 2.714 0.047 0.666 0.14 1.256 0.211 1.836 0.328 4.049 0.815 7.286 2.919 9.73 6.229 1.536 2.080 2.505 4.409 2.852 6.984 0.064 0.473 0.161 0.941 0.243 1.412zM20.014 9.208c-4.656 1.799-9.314 3.596-13.967 5.404-0.324 0.126-0.639 0.307-0.917 0.517-0.357 0.27-0.306 0.576 0.074 0.788 0.252 0.14 0.529 0.242 0.805 0.331 1.149 0.368 2.297 0.743 3.456 1.076 0.41 0.118 0.622 0.334 0.746 0.732 0.496 1.588 1.014 3.17 1.53 4.751 0.237 0.726 0.706 0.889 1.318 0.418 0.41-0.316 0.764-0.705 1.14-1.065 0.445-0.426 0.887-0.857 1.328-1.283 1.535 1.131 2.999 2.233 4.489 3.297 0.865 0.618 1.505 0.366 1.747-0.663 0.248-1.053 0.46-2.114 0.683-3.173 0.789-3.746 1.588-7.489 2.356-11.239 0.226-1.106-0.38-1.586-1.439-1.189-1.091 0.409-2.174 0.836-3.348 1.297z"></path>
<path fill="#fcfefe" style="fill: var(--color81, #fcfefe)" d="M20.058 9.187c1.13-0.44 2.214-0.868 3.304-1.276 1.059-0.397 1.665 0.083 1.439 1.189-0.768 3.75-1.567 7.493-2.356 11.239-0.223 1.059-0.435 2.12-0.683 3.173-0.242 1.029-0.881 1.281-1.747 0.663-1.49-1.065-2.954-2.167-4.489-3.297-0.441 0.427-0.883 0.857-1.328 1.283-0.376 0.36-0.73 0.749-1.14 1.065-0.612 0.471-1.081 0.308-1.318-0.418-0.516-1.582-1.033-3.163-1.53-4.751-0.124-0.398-0.336-0.614-0.746-0.732-1.159-0.333-2.307-0.708-3.456-1.076-0.276-0.088-0.553-0.19-0.805-0.331-0.38-0.212-0.432-0.518-0.074-0.788 0.278-0.21 0.592-0.391 0.917-0.517 4.653-1.808 9.31-3.604 14.010-5.425zM11.81 16.499c-1.096 0.689-1.096 0.69-0.693 1.907 0.033 0.099 0.068 0.197 0.1 0.296 0.359 1.109 0.717 2.218 1.075 3.326 0.206-0.842 0.296-1.664 0.346-2.489 0.031-0.51 0.221-0.889 0.61-1.235 2.533-2.26 5.049-4.54 7.567-6.818 0.184-0.167 0.336-0.369 0.503-0.555-0.043-0.062-0.085-0.123-0.128-0.185-0.265 0.116-0.55 0.2-0.792 0.351-2.84 1.779-5.675 3.568-8.587 5.402z"></path>
<path fill="#078acd" style="fill: var(--color82, #078acd)" d="M11.848 16.475c2.874-1.81 5.708-3.599 8.549-5.378 0.242-0.152 0.527-0.236 0.792-0.351 0.043 0.062 0.085 0.123 0.128 0.185-0.167 0.186-0.319 0.389-0.503 0.555-2.517 2.278-5.033 4.558-7.567 6.818-0.388 0.346-0.579 0.725-0.61 1.235-0.050 0.825-0.14 1.647-0.346 2.489-0.358-1.109-0.717-2.218-1.075-3.326-0.032-0.099-0.067-0.197-0.1-0.296-0.403-1.218-0.403-1.218 0.732-1.931z"></path>
</symbol>
</defs>
</svg>
