<svg width="24" height="24" viewBox="0 0 24 24" fill="none" xmlns="http://www.w3.org/2000/svg">
<path d="M18.6529 23.3866L12 19.2235L5.34707 23.3866C5.10538 23.5397 4.79362 23.5281 4.56088 23.3591C4.3288 23.1909 4.22235 22.8984 4.29238 22.6203L6.19574 15.0061L0.251428 9.96615C0.0316784 9.78211 -0.0541497 9.48273 0.034444 9.21015C0.123038 8.93687 0.36885 8.74529 0.654507 8.72537L8.41298 8.18358L11.3477 0.904461C11.5633 0.372992 12.4367 0.372992 12.6523 0.904461L15.587 8.18358L23.3455 8.72537C23.6311 8.74529 23.8769 8.93687 23.9655 9.21015C24.0541 9.48273 23.9683 9.78211 23.7486 9.96615L17.8042 15.0061L19.7076 22.6204C19.7776 22.8985 19.6712 23.191 19.4391 23.3592C19.2015 23.5317 18.8907 23.5356 18.6529 23.3866Z" fill="#E3B589"/>
</svg>
